<svg width="16" height="16" viewBox="0 0 16 16" fill="none" xmlns="http://www.w3.org/2000/svg">
<g clip-path="url(#clip0_375_35318)">
<path d="M14.6188 12.0762C14.6188 12.4134 14.4849 12.7367 14.2465 12.9751C14.0081 13.2135 13.6847 13.3474 13.3476 13.3474H1.90693C1.56979 13.3474 1.24646 13.2135 1.00806 12.9751C0.76967 12.7367 0.635742 12.4134 0.635742 12.0762V5.0847C0.635742 4.74756 0.76967 4.42423 1.00806 4.18584C1.24646 3.94745 1.56979 3.81352 1.90693 3.81352H4.4493L5.72049 1.90674H9.53404L10.8052 3.81352H13.3476C13.6847 3.81352 14.0081 3.94745 14.2465 4.18584C14.4849 4.42423 14.6188 4.74756 14.6188 5.0847V12.0762Z" stroke="#DADADA" stroke-width="1.27119" stroke-linecap="round" stroke-linejoin="round"/>
<path d="M7.62733 10.8051C9.03145 10.8051 10.1697 9.66682 10.1697 8.26271C10.1697 6.8586 9.03145 5.72034 7.62733 5.72034C6.22322 5.72034 5.08496 6.8586 5.08496 8.26271C5.08496 9.66682 6.22322 10.8051 7.62733 10.8051Z" stroke="#DADADA" stroke-width="1.27119" stroke-linecap="round" stroke-linejoin="round"/>
</g>
<defs>
<clipPath id="clip0_375_35318">
<rect width="15.2542" height="15.2542" fill="white"/>
</clipPath>
</defs>
</svg>
