<svg width="46" height="45" viewBox="0 0 46 45" fill="none" xmlns="http://www.w3.org/2000/svg">
<g clip-path="url(#clip0_335_33227)">
<path d="M43.5082 35.678C43.5082 36.667 43.1153 37.6154 42.416 38.3147C41.7167 39.014 40.7683 39.4069 39.7793 39.4069H6.22002C5.23108 39.4069 4.28264 39.014 3.58336 38.3147C2.88407 37.6154 2.49121 36.667 2.49121 35.678V15.1696C2.49121 14.1806 2.88407 13.2322 3.58336 12.5329C4.28264 11.8336 5.23108 11.4408 6.22002 11.4408H13.6777L17.4065 5.84753H28.5929L32.3217 11.4408H39.7793C40.7683 11.4408 41.7167 11.8336 42.416 12.5329C43.1153 13.2322 43.5082 14.1806 43.5082 15.1696V35.678Z" stroke="#DADADA" stroke-width="3.72881" stroke-linecap="round" stroke-linejoin="round"/>
<path d="M22.9996 31.9492C27.1184 31.9492 30.4572 28.6103 30.4572 24.4916C30.4572 20.3728 27.1184 17.0339 22.9996 17.0339C18.8809 17.0339 15.542 20.3728 15.542 24.4916C15.542 28.6103 18.8809 31.9492 22.9996 31.9492Z" stroke="#DADADA" stroke-width="3.72881" stroke-linecap="round" stroke-linejoin="round"/>
</g>
<defs>
<clipPath id="clip0_335_33227">
<rect width="44.7458" height="44.7458" fill="white" transform="translate(0.626953 0.254272)"/>
</clipPath>
</defs>
</svg>
