<svg width="136" height="46" viewBox="0 0 136 46" fill="none" xmlns="http://www.w3.org/2000/svg">
<path d="M79.5715 24.0533C78.7361 26.7212 77.7659 29.0254 76.661 30.9657C75.5561 32.906 74.4108 34.3882 73.2251 35.4122C72.0393 36.4363 70.9075 36.9483 69.8295 36.9483C67.3502 36.9483 66.1106 34.4017 66.1106 29.3083C66.1106 26.1823 66.4879 23.0831 67.2424 20.011C67.997 16.9119 68.8324 14.2574 69.7487 12.0476C70.0182 11.3469 70.3685 10.7945 70.7997 10.3902C71.2309 9.95907 71.8372 9.74348 72.6187 9.74348C73.3463 9.74348 73.9257 9.93212 74.3569 10.3094C74.7881 10.6597 75.0037 11.1987 75.0037 11.9263L74.9633 12.4114C74.9633 12.4653 74.8016 12.91 74.4782 13.7454C73.6697 15.9282 72.9421 18.0168 72.2953 20.011C71.6755 22.0052 71.2847 23.9051 71.1231 25.7107C71.0422 26.6269 71.0018 27.5297 71.0018 28.419C71.0018 29.3083 71.0961 30.0359 71.2847 30.6019C71.4734 31.1408 71.7429 31.4103 72.0932 31.4103C72.8747 31.4103 73.8179 30.292 74.9228 28.0552C76.0547 25.7915 77.1326 23.0966 78.1567 19.9706C79.1808 16.8175 79.9353 14.0553 80.4204 11.6838C80.5282 11.1718 80.8381 10.7406 81.3501 10.3902C81.8622 10.0399 82.3068 9.86475 82.6841 9.86475C83.3578 9.86475 83.8429 10.0399 84.1393 10.3902C84.4627 10.7136 84.6244 11.2257 84.6244 11.9263L84.584 12.4923C84.584 12.6001 84.557 12.7483 84.5031 12.9369C84.4493 13.1256 84.3954 13.3681 84.3415 13.6645C83.0479 19.8089 82.2664 24.3902 81.9969 27.4084C81.97 27.624 81.9565 27.9474 81.9565 28.3786C81.9565 29.2949 82.0778 30.0359 82.3203 30.6019C82.5898 31.1408 82.9266 31.4103 83.3309 31.4103C84.6514 31.4103 85.9853 29.3622 87.3328 25.266C88.6802 21.1428 89.8794 16.575 90.9304 11.5625C91.0382 11.0774 91.2673 10.7271 91.6176 10.5115C91.9949 10.269 92.4396 10.1477 92.9516 10.1477C93.5984 10.1477 94.2586 10.2825 94.9323 10.5519C95.6061 10.8214 95.9429 11.1179 95.9429 11.4413L95.2962 14.2709C94.299 18.6905 93.2885 22.4633 92.2644 25.5894C91.2673 28.7155 89.9468 31.3969 88.3029 33.6336C86.686 35.8434 84.7187 36.9483 82.4011 36.9483C80.1374 36.9483 79.0056 34.8733 79.0056 30.7231C79.0056 28.8098 79.2481 26.5865 79.7332 24.0533H79.5715ZM102.026 37.0696C99.385 37.0696 97.4582 36.5441 96.2455 35.4931C95.0328 34.4421 94.4264 33.0407 94.4264 31.2891C94.4264 28.7289 95.0597 26.3574 96.3263 24.1746C97.6199 21.9917 99.3311 20.267 101.46 19.0004C103.616 17.7069 105.934 17.0601 108.413 17.0601C109.922 17.0601 111.189 17.4913 112.213 18.3536C113.237 19.189 113.749 20.4287 113.749 22.0726C113.749 23.0158 113.439 23.7973 112.819 24.4171C112.226 25.01 111.364 25.549 110.232 26.034C109.1 26.4922 107.268 27.1524 104.734 28.0148C102.444 28.7694 100.584 29.4026 99.1559 29.9147C99.0481 30.3189 98.9943 30.7366 98.9943 31.1678C98.9943 31.9224 99.3042 32.5018 99.924 32.906C100.571 33.3102 101.474 33.5123 102.632 33.5123C103.36 33.5123 104.195 33.3641 105.139 33.0677C106.082 32.7713 106.675 32.394 106.917 31.9358C107.833 30.265 108.669 29.4296 109.423 29.4296C110.528 29.4296 111.269 29.6452 111.647 30.0764C112.051 30.4806 112.267 30.9387 112.293 31.4508C111.97 32.3131 111.337 33.189 110.394 34.0783C109.45 34.9406 108.251 35.6548 106.796 36.2207C105.341 36.7866 103.751 37.0696 102.026 37.0696ZM100.288 26.1957C102.956 25.3334 105.152 24.5384 106.877 23.8108C108.602 23.0562 109.464 22.3151 109.464 21.5875C109.464 21.2641 109.289 21.0081 108.938 20.8194C108.588 20.6039 108.211 20.4961 107.807 20.4961C106.998 20.4961 106.068 20.806 105.017 21.4258C103.993 22.0456 103.037 22.8002 102.147 23.6895C101.258 24.5788 100.638 25.4142 100.288 26.1957ZM123.558 14.2305C120.513 27.0312 118.721 34.3478 118.182 36.1803C118.128 36.342 117.845 36.5441 117.333 36.7866C116.848 37.0561 116.511 37.1909 116.323 37.1909C115.568 37.1909 114.84 37.0022 114.14 36.6249C113.439 36.2477 113.062 35.6413 113.008 34.8059C113.035 34.752 113.17 34.469 113.412 33.957C113.655 33.445 113.897 32.7174 114.14 31.7741C114.76 29.4565 115.46 26.7078 116.242 23.5278C117.05 20.3478 117.589 18.2189 117.859 17.1409L119.759 9.42009C119.732 9.2045 119.718 8.08612 119.718 6.06496C119.799 5.71463 120.095 5.43166 120.607 5.21607C121.146 5.00048 121.631 4.89269 122.063 4.89269C122.736 4.89269 123.424 5.12175 124.124 5.57988C124.852 6.03801 125.229 6.59046 125.256 7.23724L123.558 14.2305ZM133.105 15.7665C130.302 27.5701 128.671 34.24 128.213 35.776C128.159 35.9377 127.876 36.1399 127.364 36.3824C126.879 36.6519 126.542 36.7866 126.354 36.7866C125.653 36.7866 125.02 36.6115 124.454 36.2611C123.888 35.9377 123.578 35.3583 123.524 34.5229C123.551 34.3882 123.619 34.0109 123.726 33.3911C123.834 32.7713 123.982 32.0975 124.171 31.3699C125.195 27.5162 126.381 22.8002 127.728 17.2218L129.669 9.42009C129.642 9.2584 129.628 9.02933 129.628 8.7329C129.628 7.68189 129.925 6.77911 130.517 6.02454C131.137 5.26997 131.838 4.89269 132.619 4.89269C133.131 4.89269 133.617 5.0948 134.075 5.49904C134.533 5.87632 134.897 6.45572 135.166 7.23724L133.105 15.7665Z" fill="white"/>
<path d="M15.1433 36.4711C13.2976 36.4711 11.5821 36.1517 9.9967 35.5128C8.43499 34.8503 7.06257 33.9393 5.87945 32.7798C4.69633 31.6204 3.78533 30.2716 3.14644 28.7335C2.50756 27.1718 2.18812 25.48 2.18812 23.658C2.18812 21.8596 2.51939 20.1914 3.18194 18.6534C3.84448 17.1153 4.75548 15.7666 5.91494 14.6071C7.09806 13.4476 8.48231 12.5485 10.0677 11.9096C11.6767 11.2707 13.4041 10.9513 15.2498 10.9513C16.5275 10.9513 17.7698 11.1287 18.9766 11.4837C20.1834 11.8386 21.2718 12.3355 22.242 12.9744C23.2358 13.6133 24.0522 14.335 24.691 15.1395L21.7806 18.1565C20.7868 17.21 19.7456 16.4883 18.6571 15.9914C17.5687 15.4944 16.421 15.246 15.2143 15.246C14.0311 15.246 12.9308 15.4589 11.9134 15.8849C10.9195 16.3108 10.0322 16.9024 9.25134 17.6595C8.49414 18.4167 7.90258 19.3041 7.47666 20.3216C7.0744 21.3391 6.87327 22.4512 6.87327 23.658C6.87327 24.8411 7.08623 25.9532 7.51215 26.9944C7.96174 28.0118 8.57696 28.911 9.35782 29.6919C10.1623 30.4727 11.0733 31.088 12.0908 31.5375C13.132 31.9635 14.2323 32.1764 15.3917 32.1764C16.2672 32.1764 17.0836 32.0581 17.8408 31.8215C18.598 31.5612 19.2724 31.2063 19.8639 30.7567C20.4555 30.2834 20.9051 29.7392 21.2127 29.124C21.5439 28.5088 21.7096 27.858 21.7096 27.1718V26.391L22.3485 27.1008H15.0013V22.9836H26.2528C26.3001 23.2439 26.3356 23.5397 26.3592 23.8709C26.3829 24.1785 26.3947 24.4743 26.3947 24.7583C26.4184 25.0422 26.4302 25.2907 26.4302 25.5036C26.4302 27.1363 26.1345 28.6271 25.5429 29.9758C24.975 31.3009 24.1823 32.4485 23.1648 33.4187C22.1473 34.3889 20.9524 35.1461 19.58 35.6903C18.2312 36.2109 16.7523 36.4711 15.1433 36.4711ZM39.2606 36.4711C37.2966 36.4711 35.5574 36.0689 34.043 35.2644C32.5523 34.4362 31.381 33.3122 30.5292 31.8925C29.701 30.4491 29.2869 28.7927 29.2869 26.9234C29.2869 25.4563 29.5235 24.1194 29.9968 22.9126C30.47 21.7058 31.1326 20.6647 31.9844 19.7892C32.8363 18.89 33.8419 18.2038 35.0014 17.7305C36.1845 17.2336 37.4623 16.9852 38.8347 16.9852C40.0888 16.9852 41.2364 17.2218 42.2776 17.695C43.3424 18.1683 44.2652 18.819 45.0461 19.6472C45.8269 20.4517 46.4185 21.4219 46.8207 22.5577C47.2467 23.6698 47.4478 24.8884 47.4241 26.2135L47.3886 27.7752H32.2684L31.4165 24.7583H43.7328L43.2004 25.3617V24.5453C43.1294 23.8354 42.8928 23.2084 42.4905 22.6641C42.0883 22.0962 41.5677 21.6585 40.9288 21.3509C40.3136 21.0196 39.6274 20.854 38.8702 20.854C37.7107 20.854 36.7287 21.0788 35.9242 21.5283C35.1197 21.9543 34.5045 22.5932 34.0785 23.445C33.6763 24.2968 33.4752 25.3498 33.4752 26.6039C33.4752 27.8107 33.7236 28.8637 34.2205 29.7629C34.7411 30.662 35.4746 31.3601 36.4211 31.857C37.3676 32.3539 38.4679 32.6023 39.722 32.6023C40.5975 32.6023 41.4021 32.4604 42.1356 32.1764C42.8928 31.8925 43.6973 31.3837 44.5491 30.6502L46.6788 33.6317C46.0399 34.2232 45.3063 34.732 44.4782 35.1579C43.6736 35.5601 42.8218 35.8796 41.9226 36.1162C41.0235 36.3528 40.1361 36.4711 39.2606 36.4711ZM53.3493 36.1162V12.655H57.6796V36.1162H53.3493ZM49.658 21.4574V17.4111H61.7613V21.4574H49.658Z" fill="white"/>
</svg>
