<svg width="24" height="24" viewBox="0 0 24 24" fill="none" xmlns="http://www.w3.org/2000/svg">
<g clip-path="url(#clip0_375_35289)">
<path d="M12.5716 1.14299C9.42071 1.14299 6.85728 3.70642 6.85728 6.85728V10.2858H5.71443C4.45385 10.2858 3.42871 11.311 3.42871 12.5716V21.7144C3.42871 22.975 4.45385 24.0001 5.71443 24.0001H19.4287C20.6893 24.0001 21.7144 22.975 21.7144 21.7144V12.5716C21.7144 11.311 20.6893 10.2858 19.4287 10.2858H18.2859V6.85728C18.2859 3.70642 15.7224 1.14299 12.5716 1.14299ZM19.4287 12.5716L19.431 21.7144H5.71443V12.5716H19.4287ZM9.143 10.2858V6.85728C9.143 4.96699 10.6813 3.4287 12.5716 3.4287C14.4619 3.4287 16.0001 4.96699 16.0001 6.85728V10.2858H9.143Z" fill="#222222"/>
</g>
<defs>
<clipPath id="clip0_375_35289">
<rect width="24" height="24" fill="white"/>
</clipPath>
</defs>
</svg>
