<svg width="226" height="140" viewBox="0 0 226 140" fill="none" xmlns="http://www.w3.org/2000/svg">
<path d="M132.306 103.635C130.907 108.103 129.282 111.962 127.432 115.212C125.581 118.462 123.663 120.944 121.677 122.66C119.691 124.375 117.795 125.232 115.99 125.232C111.837 125.232 109.761 120.967 109.761 112.436C109.761 107.201 110.393 102.01 111.657 96.8646C112.92 91.674 114.32 87.2281 115.854 83.527C116.306 82.3535 116.892 81.4282 117.615 80.7512C118.337 80.029 119.352 79.6679 120.661 79.6679C121.88 79.6679 122.85 79.9839 123.572 80.6158C124.295 81.2025 124.656 82.1053 124.656 83.3239L124.588 84.1364C124.588 84.2266 124.317 84.9714 123.776 86.3706C122.422 90.0266 121.203 93.5246 120.12 96.8646C119.081 100.205 118.427 103.387 118.156 106.411C118.021 107.945 117.953 109.457 117.953 110.947C117.953 112.436 118.111 113.655 118.427 114.603C118.743 115.506 119.194 115.957 119.781 115.957C121.09 115.957 122.67 114.084 124.52 110.338C126.416 106.546 128.221 102.033 129.937 96.7969C131.652 91.516 132.916 86.8896 133.728 82.9177C133.909 82.0601 134.428 81.3379 135.285 80.7512C136.143 80.1644 136.887 79.871 137.519 79.871C138.648 79.871 139.46 80.1644 139.957 80.7512C140.498 81.2928 140.769 82.1504 140.769 83.3239L140.701 84.2718C140.701 84.4523 140.656 84.7006 140.566 85.0165C140.476 85.3325 140.385 85.7387 140.295 86.2352C138.129 96.5261 136.82 104.199 136.368 109.254C136.323 109.615 136.301 110.157 136.301 110.879C136.301 112.414 136.504 113.655 136.91 114.603C137.361 115.506 137.926 115.957 138.603 115.957C140.814 115.957 143.048 112.527 145.305 105.666C147.562 98.7603 149.571 91.1098 151.331 82.7146C151.511 81.9021 151.895 81.3154 152.482 80.9543C153.114 80.5481 153.858 80.345 154.716 80.345C155.799 80.345 156.905 80.5706 158.033 81.022C159.162 81.4734 159.726 81.9699 159.726 82.5115L158.643 87.2507C156.973 94.653 155.28 100.972 153.565 106.208C151.895 111.443 149.683 115.934 146.93 119.681C144.222 123.382 140.927 125.232 137.045 125.232C133.254 125.232 131.358 121.757 131.358 114.806C131.358 111.601 131.765 107.878 132.577 103.635H132.306ZM169.914 125.435C165.491 125.435 162.264 124.555 160.233 122.795C158.202 121.035 157.186 118.688 157.186 115.754C157.186 111.466 158.247 107.494 160.368 103.838C162.535 100.182 165.401 97.2934 168.967 95.172C172.577 93.0055 176.459 91.9223 180.612 91.9223C183.139 91.9223 185.26 92.6444 186.976 94.0888C188.691 95.488 189.548 97.5642 189.548 100.317C189.548 101.897 189.029 103.206 187.991 104.244C186.998 105.237 185.554 106.14 183.658 106.952C181.762 107.72 178.693 108.826 174.451 110.27C170.614 111.534 167.5 112.594 165.107 113.452C164.927 114.129 164.837 114.829 164.837 115.551C164.837 116.815 165.356 117.785 166.394 118.462C167.477 119.139 168.989 119.478 170.93 119.478C172.149 119.478 173.548 119.229 175.128 118.733C176.707 118.236 177.7 117.604 178.107 116.837C179.641 114.039 181.04 112.639 182.304 112.639C184.155 112.639 185.396 113.001 186.028 113.723C186.705 114.4 187.066 115.167 187.111 116.025C186.569 117.469 185.509 118.936 183.929 120.425C182.349 121.87 180.341 123.066 177.903 124.014C175.466 124.962 172.803 125.435 169.914 125.435ZM167.003 107.223C171.472 105.779 175.15 104.447 178.039 103.229C180.927 101.965 182.372 100.724 182.372 99.505C182.372 98.9634 182.078 98.5346 181.492 98.2187C180.905 97.8576 180.273 97.677 179.596 97.677C178.242 97.677 176.685 98.1961 174.924 99.2342C173.209 100.272 171.607 101.536 170.118 103.026C168.628 104.515 167.59 105.914 167.003 107.223ZM205.978 87.183C200.878 108.622 197.876 120.877 196.974 123.946C196.883 124.217 196.409 124.555 195.552 124.962C194.739 125.413 194.175 125.639 193.859 125.639C192.595 125.639 191.377 125.323 190.203 124.691C189.03 124.059 188.398 123.043 188.308 121.644C188.353 121.554 188.578 121.08 188.985 120.222C189.391 119.365 189.797 118.146 190.203 116.566C191.241 112.685 192.415 108.081 193.724 102.755C195.078 97.4288 195.981 93.8631 196.432 92.0577L199.614 79.1263C199.569 78.7652 199.546 76.8921 199.546 73.5069C199.682 72.9202 200.178 72.4462 201.036 72.0852C201.938 71.7241 202.751 71.5435 203.473 71.5435C204.601 71.5435 205.752 71.9272 206.926 72.6945C208.145 73.4618 208.777 74.3871 208.822 75.4703L205.978 87.183ZM221.967 89.7557C217.273 109.525 214.542 120.696 213.775 123.269C213.684 123.54 213.21 123.878 212.353 124.284C211.54 124.736 210.976 124.962 210.66 124.962C209.487 124.962 208.426 124.668 207.478 124.081C206.53 123.54 206.011 122.569 205.921 121.17C205.966 120.944 206.079 120.313 206.259 119.274C206.44 118.236 206.688 117.108 207.004 115.889C208.719 109.435 210.705 101.536 212.962 92.1931L216.212 79.1263C216.167 78.8555 216.144 78.4718 216.144 77.9753C216.144 76.2151 216.641 74.703 217.634 73.4392C218.672 72.1754 219.845 71.5435 221.154 71.5435C222.012 71.5435 222.824 71.882 223.592 72.5591C224.359 73.191 224.968 74.1614 225.42 75.4703L221.967 89.7557Z" fill="#00A3FF"/>
<path d="M24.9347 124.458C21.8435 124.458 18.9702 123.923 16.3149 122.853C13.6993 121.743 11.4006 120.217 9.41908 118.275C7.43752 116.333 5.91172 114.074 4.84167 111.498C3.77163 108.883 3.23661 106.049 3.23661 102.997C3.23661 99.9854 3.79144 97.1914 4.90112 94.6154C6.01079 92.0394 7.5366 89.7804 9.47853 87.8385C11.4601 85.8965 13.7785 84.3905 16.4338 83.3205C19.1287 82.2504 22.0218 81.7154 25.1131 81.7154C27.2532 81.7154 29.3338 82.0127 31.355 82.6071C33.3762 83.2016 35.1992 84.0339 36.8241 85.1039C38.4886 86.1739 39.8559 87.3827 40.9259 88.7302L36.0513 93.7831C34.3868 92.1979 32.643 90.9891 30.82 90.1569C28.9969 89.3246 27.0748 88.9085 25.0536 88.9085C23.0721 88.9085 21.2292 89.2652 19.5251 89.9785C17.8605 90.6919 16.3744 91.6827 15.0665 92.9509C13.7983 94.2191 12.8076 95.7053 12.0942 97.4094C11.4205 99.1136 11.0836 100.976 11.0836 102.997C11.0836 104.979 11.4403 106.842 12.1536 108.585C12.9066 110.29 13.937 111.796 15.2449 113.103C16.5923 114.411 18.1181 115.442 19.8223 116.195C21.5661 116.908 23.4089 117.265 25.3509 117.265C26.8172 117.265 28.1845 117.067 29.4527 116.67C30.7209 116.234 31.8504 115.64 32.8412 114.887C33.8319 114.094 34.5849 113.183 35.1001 112.152C35.655 111.122 35.9324 110.032 35.9324 108.883V107.575L37.0024 108.764H24.6969V101.868H43.5416C43.6209 102.304 43.6803 102.799 43.7199 103.354C43.7596 103.869 43.7794 104.365 43.7794 104.84C43.819 105.316 43.8388 105.732 43.8388 106.089C43.8388 108.823 43.3434 111.32 42.3527 113.579C41.4015 115.798 40.0739 117.72 38.3697 119.345C36.6656 120.97 34.6642 122.238 32.3656 123.15C30.1066 124.022 27.6297 124.458 24.9347 124.458ZM65.328 124.458C62.0386 124.458 59.1257 123.784 56.5893 122.437C54.0925 121.049 52.1308 119.167 50.704 116.789C49.3169 114.372 48.6234 111.597 48.6234 108.467C48.6234 106.009 49.0197 103.77 49.8123 101.749C50.6049 99.7278 51.7146 97.9841 53.1413 96.5177C54.5681 95.0117 56.2524 93.8624 58.1943 93.0698C60.1759 92.2375 62.316 91.8214 64.6146 91.8214C66.7151 91.8214 68.6372 92.2177 70.381 93.0103C72.1644 93.803 73.71 94.8928 75.0178 96.2799C76.3256 97.6274 77.3164 99.2523 77.9902 101.155C78.7035 103.017 79.0404 105.058 79.0008 107.278L78.9413 109.893H53.6169L52.1902 104.84H72.8183L71.9266 105.851V104.484C71.8077 103.295 71.4114 102.244 70.7376 101.333C70.0639 100.382 69.192 99.6486 68.122 99.1334C67.0916 98.5785 65.9422 98.3011 64.674 98.3011C62.7321 98.3011 61.0874 98.6776 59.74 99.4306C58.3925 100.144 57.3621 101.214 56.6487 102.641C55.975 104.067 55.6381 105.831 55.6381 107.932C55.6381 109.953 56.0542 111.716 56.8865 113.222C57.7584 114.728 58.987 115.897 60.5722 116.73C62.1575 117.562 64.0003 117.978 66.1008 117.978C67.5671 117.978 68.9146 117.74 70.1432 117.265C71.4114 116.789 72.7588 115.937 74.1856 114.708L77.7524 119.702C76.6823 120.693 75.4538 121.545 74.0667 122.258C72.7192 122.932 71.2925 123.467 69.7865 123.863C68.2805 124.26 66.7943 124.458 65.328 124.458ZM88.9247 123.863V84.5689H96.1772V123.863H88.9247ZM82.7422 99.3117V92.5348H103.014V99.3117H82.7422Z" fill="black"/>
<rect x="58" width="107.66" height="72.7431" rx="36.3716" fill="#00A4FF"/>
<rect x="99.3044" y="6.3044" width="60.1343" height="60.1343" rx="30.0672" fill="white" stroke="#00A3FF" stroke-width="12.6088"/>
</svg>
