<svg width="30" height="31" viewBox="0 0 30 31" fill="none" xmlns="http://www.w3.org/2000/svg">
<path d="M4 7.5H26" stroke="#222222" stroke-width="2.34357" stroke-linecap="round"/>
<path d="M4 15.5H26" stroke="#222222" stroke-width="2.34357" stroke-linecap="round"/>
<path d="M4 23.5H26" stroke="#222222" stroke-width="2.34357" stroke-linecap="round"/>
<rect y="18" width="12" height="12" rx="6" fill="#FF0000"/>
<path d="M5.496 23.512H6.2C6.73333 23.512 7.184 23.672 7.552 23.992C7.92 24.3067 8.104 24.744 8.104 25.304C8.104 25.864 7.91467 26.304 7.536 26.624C7.16267 26.944 6.69867 27.104 6.144 27.104C5.69067 27.104 5.296 27 4.96 26.792C4.624 26.584 4.384 26.288 4.24 25.904L5.032 25.448C5.18667 25.9547 5.55733 26.208 6.144 26.208C6.45867 26.208 6.70933 26.128 6.896 25.968C7.088 25.8027 7.184 25.5813 7.184 25.304C7.184 25.032 7.09067 24.816 6.904 24.656C6.71733 24.4907 6.46933 24.408 6.16 24.408H4.528L4.744 21.4H7.864V22.264H5.592L5.496 23.512Z" fill="white"/>
</svg>
