<svg width="24" height="24" viewBox="0 0 24 24" fill="none" xmlns="http://www.w3.org/2000/svg">
<g clip-path="url(#clip0_375_35296)">
<path d="M20.7344 17.3681H19.9997V10.6197C19.9997 6.41054 16.8069 2.93225 12.6528 2.35353V1.1931C12.6528 0.533837 12.1048 -0.000137329 11.4283 -0.000137329C10.7518 -0.000137329 10.2038 0.533837 10.2038 1.1931V2.35353C6.04972 2.93225 2.85686 6.41054 2.85686 10.6197V17.3681H2.12217C1.58033 17.3681 1.14258 17.7947 1.14258 18.3227V19.2773C1.14258 19.4085 1.25278 19.5159 1.38748 19.5159H7.99972C7.99972 21.3595 9.53646 22.857 11.4283 22.857C13.3201 22.857 14.8569 21.3595 14.8569 19.5159H21.4691C21.6038 19.5159 21.714 19.4085 21.714 19.2773V18.3227C21.714 17.7947 21.2763 17.3681 20.7344 17.3681ZM11.4283 20.9478C10.6171 20.9478 9.9589 20.3065 9.9589 19.5159H12.8977C12.8977 20.3065 12.2395 20.9478 11.4283 20.9478ZM5.06095 17.3681V10.6197C5.06095 8.96108 5.72217 7.40391 6.92523 6.23155C8.12829 5.05919 9.72625 4.41484 11.4283 4.41484C13.1303 4.41484 14.7283 5.05919 15.9314 6.23155C17.1344 7.40391 17.7956 8.96108 17.7956 10.6197V17.3681H5.06095Z" fill="#222222"/>
</g>
<defs>
<clipPath id="clip0_375_35296">
<rect width="24" height="24" fill="white"/>
</clipPath>
</defs>
</svg>
