<svg width="30" height="31" viewBox="0 0 30 31" fill="none" xmlns="http://www.w3.org/2000/svg">
<g clip-path="url(#clip0_1793_5227)">
<path d="M11.8761 23.9239L5.1094 24.8906L6.07607 18.1239L19.0571 5.14281C20.4299 3.76998 22.6557 3.76998 24.0286 5.14281L24.8571 5.97139C26.23 7.34422 26.23 9.57002 24.8571 10.9429L11.8761 23.9239Z" stroke="#222222" stroke-width="2.34357"/>
<path d="M23.2002 12.6C22.8688 12.2685 19.7478 9.14757 18.2287 7.62851" stroke="#222222" stroke-width="2.34357"/>
<path d="M12.4287 23.3715C12.0973 23.04 8.97631 19.9191 7.45725 18.4" stroke="#222222" stroke-width="2.34357"/>
</g>
<rect y="18" width="12" height="12" rx="6" fill="#FF0000"/>
<path d="M5.496 23.512H6.2C6.73333 23.512 7.184 23.672 7.552 23.992C7.92 24.3067 8.104 24.744 8.104 25.304C8.104 25.864 7.91467 26.304 7.536 26.624C7.16267 26.944 6.69867 27.104 6.144 27.104C5.69067 27.104 5.296 27 4.96 26.792C4.624 26.584 4.384 26.288 4.24 25.904L5.032 25.448C5.18667 25.9547 5.55733 26.208 6.144 26.208C6.45867 26.208 6.70933 26.128 6.896 25.968C7.088 25.8027 7.184 25.5813 7.184 25.304C7.184 25.032 7.09067 24.816 6.904 24.656C6.71733 24.4907 6.46933 24.408 6.16 24.408H4.528L4.744 21.4H7.864V22.264H5.592L5.496 23.512Z" fill="white"/>
<defs>
<clipPath id="clip0_1793_5227">
<rect width="30" height="30" fill="white" transform="translate(0 0.5)"/>
</clipPath>
</defs>
</svg>
