<svg width="17" height="17" viewBox="0 0 17 17" fill="none" xmlns="http://www.w3.org/2000/svg">
<path fill-rule="evenodd" clip-rule="evenodd" d="M3.27972 0.0465973L3.0885 0.0881774L2.91911 0.172717L2.74972 0.257226L1.80463 1.20259L0.859546 2.14799L0.748665 2.38317L0.637785 2.61836L0.585543 2.8065L0.53327 2.99465L0.516651 3.45504L0.5 3.9154L0.552681 4.23898L0.605393 4.56252L0.696549 4.90968L0.787706 5.25684L0.911787 5.59955L1.03587 5.94226L1.16073 6.22698L1.2856 6.51171L1.42806 6.79531L1.57048 7.07893L1.81222 7.49837L2.05399 7.91778L2.33624 8.34111L2.61848 8.76443L2.88534 9.12505L3.15216 9.48566L3.40434 9.79923L3.65648 10.1128L4.01713 10.5205L4.37774 10.9281L4.86507 11.4248L5.35239 11.9216L5.86979 12.3855L6.38719 12.8495L6.74119 13.1357L7.09518 13.4219L7.44711 13.6823L7.79907 13.9427L8.14362 14.1742L8.48815 14.4057L8.92715 14.6683L9.36616 14.9309L9.89924 15.1922L10.4323 15.4535L10.7203 15.5654L11.0083 15.6773L11.3788 15.7901L11.7493 15.9028L12.0943 15.9696L12.4392 16.0363L12.8939 16.0379L13.3486 16.0394L13.5927 15.9821L13.8369 15.9248L14.0945 15.7978L14.352 15.6707L15.2818 14.7418L16.2115 13.813L16.3052 13.6249L16.3989 13.4367L16.4495 13.2664L16.5 13.0961V12.8409V12.5858L16.4495 12.4155L16.3989 12.2451L16.32 12.0883L16.2411 11.9315L15.0457 10.7291L13.8503 9.5267L13.6621 9.39278L13.474 9.25882L13.2859 9.18945L13.0978 9.12009L12.8939 9.10341L12.6901 9.08676L12.5031 9.12175L12.3161 9.15675L12.1151 9.25082L11.9141 9.34489L11.7207 9.54204L11.5274 9.73918L11.3939 10.0493L11.2603 10.3594L11.1756 10.4743L11.0908 10.5891L10.9417 10.7179L10.7927 10.8466L10.5968 10.9397L10.401 11.0329L10.1971 11.0697L9.99331 11.1065L9.80516 11.0866L9.61702 11.0666L9.41319 11.0015L9.20937 10.9364L8.89579 10.7864L8.58222 10.6363L8.26864 10.4265L7.95507 10.2167L7.67191 9.987L7.38875 9.75734L7.04937 9.41767L6.70996 9.07801L6.48076 8.7936L6.25154 8.50918L6.03931 8.18212L5.82705 7.85507L5.71006 7.6042L5.59306 7.35334L5.50906 7.10248L5.42505 6.85162L5.40846 6.62977L5.39187 6.40788L5.42608 6.24846L5.46026 6.08904L5.54396 5.91228L5.62765 5.73551L5.76848 5.57888L5.90927 5.42228L6.0385 5.33552L6.16769 5.24878L6.37151 5.16199L6.57534 5.07516L6.68067 5.02266L6.786 4.97017L6.92849 4.84568L7.07097 4.72122L7.17414 4.55992L7.27734 4.39862L7.34181 4.20718L7.40631 4.01574V3.75152V3.4873L7.34473 3.288L7.28314 3.08872L7.18468 2.93193L7.08621 2.77514L5.95276 1.63567L4.81931 0.49617L4.64685 0.364092L4.47438 0.232014L4.28624 0.149795L4.09809 0.0676069L3.91202 0.0338034L3.72597 0L3.59844 0.00247725L3.47094 0.00498585L3.27972 0.0465973Z" fill="white"/>
</svg>
