<svg width="24" height="24" viewBox="0 0 24 24" fill="none" xmlns="http://www.w3.org/2000/svg">
<path d="M13.5874 16.6349H12.5716V12.5714H11.5557M12.5716 8.50787H12.5817M21.7144 12.5714C21.7144 13.772 21.4779 14.9609 21.0185 16.0702C20.559 17.1794 19.8855 18.1873 19.0365 19.0363C18.1876 19.8853 17.1797 20.5588 16.0704 21.0183C14.9611 21.4777 13.7722 21.7142 12.5716 21.7142C11.3709 21.7142 10.182 21.4777 9.07275 21.0183C7.96349 20.5588 6.95558 19.8853 6.10659 19.0363C5.2576 18.1873 4.58414 17.1794 4.12467 16.0702C3.6652 14.9609 3.42871 13.772 3.42871 12.5714C3.42871 10.1465 4.39197 7.821 6.10659 6.10638C7.82121 4.39176 10.1467 3.4285 12.5716 3.4285C14.9964 3.4285 17.3219 4.39176 19.0365 6.10638C20.7512 7.821 21.7144 10.1465 21.7144 12.5714Z" stroke="#222222" stroke-width="2.03175" stroke-linecap="round" stroke-linejoin="round"/>
</svg>
