<svg width="24" height="24" viewBox="0 0 24 24" fill="none" xmlns="http://www.w3.org/2000/svg">
<g clip-path="url(#clip0_375_35283)">
<path d="M19 1.00008H5C3.67441 1.00166 2.40356 1.52896 1.46622 2.4663C0.528882 3.40363 0.00158786 4.67448 0 6.00008L0 18.0001C0.00158786 19.3257 0.528882 20.5965 1.46622 21.5339C2.40356 22.4712 3.67441 22.9985 5 23.0001H19C20.3256 22.9985 21.5964 22.4712 22.5338 21.5339C23.4711 20.5965 23.9984 19.3257 24 18.0001V6.00008C23.9984 4.67448 23.4711 3.40363 22.5338 2.4663C21.5964 1.52896 20.3256 1.00166 19 1.00008ZM5 3.00008H19C19.7956 3.00008 20.5587 3.31615 21.1213 3.87876C21.6839 4.44137 22 5.20443 22 6.00008V7.00008H2V6.00008C2 5.20443 2.31607 4.44137 2.87868 3.87876C3.44129 3.31615 4.20435 3.00008 5 3.00008ZM19 21.0001H5C4.20435 21.0001 3.44129 20.684 2.87868 20.1214C2.31607 19.5588 2 18.7957 2 18.0001V9.00008H22V18.0001C22 18.7957 21.6839 19.5588 21.1213 20.1214C20.5587 20.684 19.7956 21.0001 19 21.0001ZM19 13.0001C19 13.2653 18.8946 13.5196 18.7071 13.7072C18.5196 13.8947 18.2652 14.0001 18 14.0001H6C5.73478 14.0001 5.48043 13.8947 5.29289 13.7072C5.10536 13.5196 5 13.2653 5 13.0001C5 12.7349 5.10536 12.4805 5.29289 12.293C5.48043 12.1054 5.73478 12.0001 6 12.0001H18C18.2652 12.0001 18.5196 12.1054 18.7071 12.293C18.8946 12.4805 19 12.7349 19 13.0001ZM15 17.0001C15 17.2653 14.8946 17.5196 14.7071 17.7072C14.5196 17.8947 14.2652 18.0001 14 18.0001H6C5.73478 18.0001 5.48043 17.8947 5.29289 17.7072C5.10536 17.5196 5 17.2653 5 17.0001C5 16.7349 5.10536 16.4805 5.29289 16.293C5.48043 16.1054 5.73478 16.0001 6 16.0001H14C14.2652 16.0001 14.5196 16.1054 14.7071 16.293C14.8946 16.4805 15 16.7349 15 17.0001ZM3 5.00008C3 4.80229 3.05865 4.60896 3.16853 4.44451C3.27841 4.28006 3.43459 4.15188 3.61732 4.0762C3.80004 4.00051 4.00111 3.98071 4.19509 4.01929C4.38907 4.05788 4.56725 4.15312 4.70711 4.29297C4.84696 4.43282 4.9422 4.61101 4.98079 4.80499C5.01937 4.99897 4.99957 5.20003 4.92388 5.38276C4.84819 5.56549 4.72002 5.72166 4.55557 5.83155C4.39112 5.94143 4.19778 6.00008 4 6.00008C3.73478 6.00008 3.48043 5.89472 3.29289 5.70718C3.10536 5.51965 3 5.26529 3 5.00008ZM6 5.00008C6 4.80229 6.05865 4.60896 6.16853 4.44451C6.27841 4.28006 6.43459 4.15188 6.61732 4.0762C6.80004 4.00051 7.00111 3.98071 7.19509 4.01929C7.38907 4.05788 7.56725 4.15312 7.70711 4.29297C7.84696 4.43282 7.9422 4.61101 7.98079 4.80499C8.01937 4.99897 7.99957 5.20003 7.92388 5.38276C7.84819 5.56549 7.72002 5.72166 7.55557 5.83155C7.39112 5.94143 7.19778 6.00008 7 6.00008C6.73478 6.00008 6.48043 5.89472 6.29289 5.70718C6.10536 5.51965 6 5.26529 6 5.00008ZM9 5.00008C9 4.80229 9.05865 4.60896 9.16853 4.44451C9.27841 4.28006 9.43459 4.15188 9.61732 4.0762C9.80004 4.00051 10.0011 3.98071 10.1951 4.01929C10.3891 4.05788 10.5673 4.15312 10.7071 4.29297C10.847 4.43282 10.9422 4.61101 10.9808 4.80499C11.0194 4.99897 10.9996 5.20003 10.9239 5.38276C10.8482 5.56549 10.72 5.72166 10.5556 5.83155C10.3911 5.94143 10.1978 6.00008 10 6.00008C9.73478 6.00008 9.48043 5.89472 9.29289 5.70718C9.10536 5.51965 9 5.26529 9 5.00008Z" fill="#222222"/>
</g>
<defs>
<clipPath id="clip0_375_35283">
<rect width="24" height="24" fill="white"/>
</clipPath>
</defs>
</svg>
