<svg width="18" height="15" viewBox="0 0 18 15" fill="none" xmlns="http://www.w3.org/2000/svg">
<path d="M14.9937 5.11088C14.1608 1.79287 10.7959 -0.221696 7.47788 0.611203C4.88494 1.26211 3.00217 3.50316 2.80818 6.16948C0.96708 6.4731 -0.279313 8.21172 0.0243053 10.0528C0.294207 11.6896 1.71245 12.8882 3.37128 12.8817H6.18679V11.7555H3.37128C2.12732 11.7555 1.11887 10.747 1.11887 9.50305C1.11887 8.25909 2.12732 7.25064 3.37128 7.25064C3.68229 7.25064 3.93438 6.99855 3.93438 6.68754C3.93157 3.8886 6.1983 1.61733 8.99724 1.61455C11.4201 1.61212 13.5058 3.32501 13.9745 5.70211C14.0208 5.93946 14.2134 6.12077 14.4531 6.15259C15.9926 6.37181 17.0628 7.79748 16.8436 9.3369C16.6468 10.7192 15.4665 11.7485 14.0702 11.7555H11.8178V12.8817H14.0702C16.2472 12.8751 18.0066 11.105 18 8.92802C17.9945 7.11588 16.7541 5.54092 14.9937 5.11088Z" fill="#222222"/>
<path d="M8.60251 7.41376L6.3501 9.66617L7.14407 10.4601L8.43921 9.17064V14.5708H9.56541V9.17064L10.8549 10.4601L11.6489 9.66617L9.39648 7.41376C9.17684 7.19541 8.82215 7.19541 8.60251 7.41376Z" fill="#222222"/>
</svg>
