<svg width="17" height="17" viewBox="0 0 17 17" fill="none" xmlns="http://www.w3.org/2000/svg">
<path fill-rule="evenodd" clip-rule="evenodd" d="M7.92163 0.0122169L7.79632 0.0244337L7.5144 0.0586723L7.23247 0.0929109L6.91922 0.154653L6.60596 0.216427L6.23823 0.324624L5.87054 0.432853L5.54908 0.560316L5.22765 0.68781L4.8108 0.90361L4.39392 1.11944L4.05899 1.34448L3.72403 1.56949L3.48909 1.75885L3.25415 1.94822L2.91402 2.27898L2.57389 2.60974L2.31511 2.923L2.05634 3.23625L1.81544 3.59649L1.57452 3.95673L1.32724 4.45794L1.07999 4.95914L0.969942 5.26033L0.859897 5.56153L0.749663 5.98082L0.639398 6.40011L0.571202 6.823L0.503007 7.24589L0.501504 7.95071L0.5 8.65553L0.539595 8.95312L0.57919 9.25071L0.643 9.57963L0.706841 9.90854L0.815791 10.2789L0.92474 10.6493L1.0648 10.9978L1.20485 11.3463L1.38331 11.6897L1.56174 12.0331L1.78612 12.3783L2.01051 12.7235L1.51206 14.1949L1.01358 15.6664L1.02323 15.676L1.03291 15.6857L2.54698 15.2013L4.06109 14.717H4.08587H4.11065L4.37156 14.8791L4.63247 15.0414L5.0397 15.2362L5.44693 15.4311L5.7915 15.5565L6.13608 15.6819L6.52765 15.7785L6.91922 15.8751L7.18548 15.9203L7.45175 15.9654L7.90596 16.0031L8.36018 16.0408L8.83006 16.0207L9.29994 16.0006L9.69151 15.9399L10.0831 15.8793L10.2867 15.8318L10.4903 15.7843L10.8118 15.6888L11.1333 15.5932L11.454 15.4661L11.7746 15.3389L12.1915 15.1231L12.6084 14.9073L12.9433 14.6825L13.2783 14.4576L13.5915 14.2L13.9048 13.9422L14.2654 13.57L14.626 13.1977L14.8962 12.8375L15.1664 12.4772L15.3476 12.1796L15.5289 11.882L15.7247 11.4748L15.9205 11.0676L16.0314 10.7664L16.1424 10.4652L16.2526 10.0459L16.3629 9.62661L16.4315 9.20372L16.5 8.78083V8.01336V7.24589L16.4315 6.823L16.3629 6.40011L16.2526 5.98082L16.1424 5.56153L16.0314 5.26033L15.9205 4.95914L15.7247 4.55191L15.5289 4.14468L15.3476 3.84709L15.1664 3.5495L14.8962 3.18926L14.626 2.82902L14.2654 2.45675L13.9048 2.08448L13.5915 1.82677L13.2783 1.56909L12.9433 1.34426L12.6084 1.11944L12.1915 0.90361L11.7746 0.68781L11.454 0.560629L11.1333 0.43348L10.8118 0.337969L10.4903 0.242427L10.2867 0.194937L10.0831 0.147448L9.69151 0.0854868L9.29994 0.0235253L8.67343 0.0117783L8.04693 0L7.92163 0.0122169ZM6.01113 3.72937L6.10545 3.7783L6.17267 3.89884L6.23993 4.01938L6.63582 4.97017L7.0317 5.92095L7.04978 6.01139L7.06789 6.10183L6.98722 6.26666L6.90659 6.43146L6.62798 6.74472L6.34938 7.05794L6.29556 7.16203L6.24174 7.26613L6.26214 7.35901L6.28253 7.45185L6.49379 7.77178L6.70504 8.09167L6.96241 8.41075L7.21978 8.72983L7.48548 8.98134L7.75118 9.23285L8.08173 9.48104L8.41224 9.7292L8.70849 9.89332L9.00473 10.0574L9.26197 10.1691L9.51922 10.2808L9.69151 10.2932L9.8638 10.3057L9.97343 10.2314L10.0831 10.1571L10.3857 9.7543L10.6883 9.35148L10.7802 9.25961L10.8721 9.16776L11.0025 9.15025L11.133 9.13274L11.2815 9.18803L11.4301 9.24332L12.2758 9.64954L13.1216 10.0558L13.2276 10.1358L13.3337 10.2157L13.3162 10.5477L13.2987 10.8796L13.2198 11.1444L13.1409 11.4091L13.0187 11.5829L12.8966 11.7567L12.7115 11.908L12.5264 12.0593L12.1819 12.227L11.8373 12.3946L11.589 12.4481L11.3406 12.5017L10.9938 12.4828L10.6469 12.464L10.3482 12.3864L10.0494 12.3088L9.69035 12.1846L9.33126 12.0605L9.03367 11.9447L8.73608 11.829L8.3661 11.6443L7.99612 11.4596L7.68343 11.2534L7.37074 11.0472L7.051 10.7951L6.73126 10.5429L6.21371 10.0221L5.69612 9.50131L5.39549 9.12541L5.09486 8.74951L4.81046 8.34228L4.52609 7.93505L4.38728 7.68444L4.24851 7.43384L4.15253 7.21341L4.05655 6.99297L3.97485 6.7122L3.89319 6.43143L3.8624 6.18825L3.8316 5.94511L3.86506 5.61635L3.89851 5.28762L3.96367 5.07639L4.02886 4.86517L4.13208 4.66011L4.23526 4.45502L4.36996 4.28461L4.50466 4.1142L4.64039 3.9785L4.77609 3.84277L4.89222 3.7929L5.00837 3.74303L5.165 3.70181L5.32162 3.66058L5.61922 3.67051L5.91681 3.68044L6.01113 3.72937Z" fill="white"/>
</svg>
