<svg width="47" height="47" viewBox="0 0 47 47" fill="none" xmlns="http://www.w3.org/2000/svg">
<circle cx="23.5" cy="23.5" r="23" fill="#00A3FF"/>
<path fill-rule="evenodd" clip-rule="evenodd" d="M19.9823 10.7823C19.6835 10.7823 19.4412 11.0246 19.4412 11.3235V19.4412H11.3235C11.0246 19.4412 10.7823 19.6835 10.7823 19.9823V27.0176C10.7823 27.3165 11.0246 27.5588 11.3235 27.5588H19.4412V35.6765C19.4412 35.9753 19.6835 36.2176 19.9823 36.2176H27.0176C27.3165 36.2176 27.5588 35.9753 27.5588 35.6765V27.5588H35.6765C35.9753 27.5588 36.2176 27.3165 36.2176 27.0176V19.9823C36.2176 19.6835 35.9753 19.4412 35.6765 19.4412H27.5588V11.3235C27.5588 11.0246 27.3165 10.7823 27.0176 10.7823H19.9823Z" fill="white"/>
<circle cx="23.5" cy="23.5" r="23" fill="#00A3FF"/>
<circle cx="23.5" cy="16.4647" r="6.22353" fill="white"/>
<path fill-rule="evenodd" clip-rule="evenodd" d="M23.7705 39.4647C30.6449 39.4647 36.2176 36.4361 36.2176 32.7C36.2176 28.964 30.6449 25.9353 23.7705 25.9353C16.8962 25.9353 11.3235 28.964 11.3235 32.7C11.3235 36.4361 16.8962 39.4647 23.7705 39.4647ZM22.0434 27.2479C22.0434 27.1208 22.1465 27.0177 22.2737 27.0177H25.2674C25.3946 27.0177 25.4977 27.1208 25.4977 27.2479V30.7022H28.952C29.0792 30.7022 29.1823 30.8053 29.1823 30.9325V33.9263C29.1823 34.0535 29.0792 34.1566 28.952 34.1566H25.4977V37.6109C25.4977 37.7381 25.3946 37.8412 25.2674 37.8412H22.2737C22.1465 37.8412 22.0434 37.7381 22.0434 37.6109V34.1566H18.5891C18.4619 34.1566 18.3588 34.0535 18.3588 33.9263V30.9325C18.3588 30.8053 18.4619 30.7022 18.5891 30.7022H22.0434V27.2479Z" fill="white"/>
</svg>
