<svg width="47" height="47" viewBox="0 0 47 47" fill="none" xmlns="http://www.w3.org/2000/svg">
<circle cx="23.5" cy="23.5" r="23" fill="#CDCDCD"/>
<circle cx="23.5" cy="16.4647" r="6.22353" fill="white"/>
<path fill-rule="evenodd" clip-rule="evenodd" d="M23.7705 39.4647C30.6449 39.4647 36.2176 36.4361 36.2176 32.7C36.2176 28.964 30.6449 25.9353 23.7705 25.9353C16.8962 25.9353 11.3235 28.964 11.3235 32.7C11.3235 36.4361 16.8962 39.4647 23.7705 39.4647ZM22.0434 27.2479C22.0434 27.1208 22.1465 27.0177 22.2737 27.0177H25.2674C25.3946 27.0177 25.4977 27.1208 25.4977 27.2479V30.7022H28.952C29.0792 30.7022 29.1823 30.8053 29.1823 30.9325V33.9263C29.1823 34.0535 29.0792 34.1566 28.952 34.1566H25.4977V37.6109C25.4977 37.7381 25.3946 37.8412 25.2674 37.8412H22.2737C22.1465 37.8412 22.0434 37.7381 22.0434 37.6109V34.1566H18.5891C18.4619 34.1566 18.3588 34.0535 18.3588 33.9263V30.9325C18.3588 30.8053 18.4619 30.7022 18.5891 30.7022H22.0434V27.2479Z" fill="white"/>
</svg>
