<svg width="85" height="85" viewBox="0 0 85 85" fill="none" xmlns="http://www.w3.org/2000/svg">
<circle cx="42.5" cy="42.5" r="42.5" fill="#00A3FF"/>
<path fill-rule="evenodd" clip-rule="evenodd" d="M62.0702 47.9056H53.2238L46.0603 56.7222C45.6333 57.2478 44.9445 57.4848 44.2845 57.3333C43.6245 57.1818 43.108 56.6682 42.9529 56.009L39.0672 39.4949L33.0588 47.2199C32.7223 47.6526 32.2049 47.9056 31.6568 47.9056H25.0904C30.766 54.1281 44.6818 66.851 44.6818 66.851C44.6818 66.851 56.8813 54.2449 62.0702 47.9056ZM64.498 44.3534H52.3784C51.8435 44.3534 51.3372 44.5944 50.9999 45.0095L45.5828 51.6767L41.6744 35.0659C41.5177 34.4001 40.9926 33.8834 40.3244 33.7375C39.6561 33.5915 38.9634 33.8423 38.5435 34.3823L30.7882 44.3534H22.4974C21.5424 42.5931 21 40.5764 21 38.4329C21 31.5664 26.5664 26 33.4329 26C37.5715 26 41.2378 28.0221 43.4977 31.1322C45.7576 28.0221 49.4239 26 53.5625 26C60.429 26 65.9954 31.5664 65.9954 38.4329C65.9954 40.5763 65.453 42.5931 64.498 44.3534Z" fill="white"/>
</svg>
