<svg width="85" height="85" viewBox="0 0 85 85" fill="none" xmlns="http://www.w3.org/2000/svg">
<circle cx="42.5" cy="42.5" r="42.5" fill="#CDCDCD"/>
<path fill-rule="evenodd" clip-rule="evenodd" d="M22.4974 44.3534H31.1165L38.8718 34.3823C39.2918 33.8423 39.9845 33.5915 40.6527 33.7375C41.321 33.8834 41.8461 34.4001 42.0027 35.0659L45.9112 51.6767L51.3283 45.0095C51.6656 44.5944 52.1719 44.3534 52.7068 44.3534H64.498C65.453 42.5931 65.9954 40.5764 65.9954 38.4329C65.9954 31.5664 60.429 26 53.5625 26C49.4239 26 45.7576 28.0221 43.4977 31.1322C41.2378 28.0221 37.5715 26 33.4329 26C26.5664 26 21 31.5664 21 38.4329C21 40.5764 21.5424 42.5931 22.4974 44.3534ZM62.0702 47.9056H53.5521L46.3887 56.7222C45.9616 57.2478 45.2729 57.4848 44.6129 57.3333C43.9528 57.1818 43.4364 56.6682 43.2813 56.009L39.3956 39.4949L33.3872 47.2199C33.0507 47.6526 32.5333 47.9056 31.9852 47.9056H25.0904C30.766 54.1281 44.6818 66.851 44.6818 66.851C44.6818 66.851 56.8813 54.2449 62.0702 47.9056Z" fill="white"/>
</svg>
