<svg width="37" height="36" viewBox="0 0 37 36" fill="none" xmlns="http://www.w3.org/2000/svg">
<path d="M5.83709 28.1664C6.13705 28.5449 6.56834 28.7534 7.05142 28.7534H27.8251C28.5479 28.7534 29.1681 28.262 29.3334 27.5583L31.4569 18.5144C31.5673 18.0441 31.4629 17.5766 31.1629 17.198C30.8629 16.8194 30.4317 16.6108 29.9486 16.6108H29.4289V14.2893C29.4289 13.435 28.7339 12.74 27.8796 12.74H16.8585C16.6353 12.74 16.4566 12.6224 16.3683 12.4173L14.8691 8.93651C14.6204 8.35882 14.0752 8 13.4462 8H7.04934C6.19504 7.99995 5.5 8.69499 5.5 9.54929V26.895C5.5 26.9351 5.57145 27.8311 5.83709 28.1664ZM30.3669 17.8288C30.4747 17.9649 30.5078 18.1132 30.4682 18.2822L28.3447 27.3261C28.2868 27.5724 28.0781 27.7378 27.8251 27.7378H7.05142C6.8778 27.7378 6.74094 27.6716 6.63318 27.5357C6.52532 27.3995 6.49222 27.2512 6.53188 27.0822L8.65545 18.0381C8.71324 17.7919 8.92205 17.6265 9.17499 17.6265H29.9486C30.1223 17.6265 30.2591 17.6926 30.3669 17.8288ZM7.04934 9.01557H13.4462C13.6694 9.01557 13.8481 9.13313 13.9363 9.33819L15.4355 12.8191C15.6843 13.3968 16.2295 13.7556 16.8585 13.7556H27.8797C28.1739 13.7556 28.4134 13.995 28.4134 14.2893V16.6109H9.17499C8.45212 16.6109 7.83188 17.1024 7.66668 17.806L6.51563 22.7081V9.54929C6.51563 9.25501 6.75506 9.01557 7.04934 9.01557ZM20.0354 26.7336H26.7012C26.9816 26.7336 27.209 26.5062 27.209 26.2257V23.9761C27.209 23.6957 26.9816 23.4683 26.7012 23.4683H20.0354C19.755 23.4683 19.5276 23.6957 19.5276 23.9761V26.2257C19.5276 26.5062 19.755 26.7336 20.0354 26.7336ZM20.5432 24.484H26.1934V25.718H20.5432V24.484Z" fill="#00A3FF"/>
</svg>
