<svg width="37" height="36" viewBox="0 0 37 36" fill="none" xmlns="http://www.w3.org/2000/svg">
<path d="M3.26178 26.8047H7.07037V29.0898C7.07037 29.5105 7.41141 29.8515 7.83209 29.8515H27.7383C28.159 29.8515 28.5 29.5105 28.5 29.0898V9.28515C28.5 8.86448 28.159 8.52343 27.7383 8.52343H23.9297V7.76172C23.9297 7.34105 23.5887 7 23.168 7C22.7473 7 22.4063 7.34105 22.4063 7.76172V8.52343H18.5469V7.76172C18.5469 7.34105 18.2059 7 17.7852 7C17.3645 7 17.0235 7.34105 17.0235 7.76172V8.52343H13.2149V7.76172C13.2149 7.34105 12.8738 7 12.4532 7C12.0325 7 11.6915 7.34105 11.6915 7.76172V8.52343H7.83209C7.41141 8.52343 7.07037 8.86448 7.07037 9.28515V13.8555C7.07037 19.4693 4.73723 23.788 2.77413 25.4578C2.52774 25.6631 2.43638 26.0007 2.54551 26.3023C2.65474 26.6038 2.94105 26.8047 3.26178 26.8047ZM26.9766 28.3281H8.5938V26.8047H23.168C23.3462 26.8047 23.5187 26.7422 23.6556 26.6281C24.5713 25.8654 25.9897 24.0496 26.9766 21.7239V28.3281ZM8.5938 10.0469H11.6915V10.8086C11.6915 11.2293 12.0325 11.5703 12.4532 11.5703C12.8738 11.5703 13.2149 11.2293 13.2149 10.8086V10.0469H17.0235V10.8086C17.0235 11.2293 17.3645 11.5703 17.7852 11.5703C18.2059 11.5703 18.5469 11.2293 18.5469 10.8086V10.0469H22.4063V10.8086C22.4063 11.2293 22.7473 11.5703 23.168 11.5703C23.5887 11.5703 23.9297 11.2293 23.9297 10.8086V10.0469H26.9766V13.0937H8.5938V10.0469ZM8.58075 14.6167H26.9631C26.7914 19.4487 24.9369 23.2506 22.8693 25.2812H4.99438C7.33707 22.2963 8.45507 18.4096 8.58075 14.6167Z" fill="#00A3FF"/>
</svg>
