<svg width="37" height="36" viewBox="0 0 37 36" fill="none" xmlns="http://www.w3.org/2000/svg">
<path d="M21.7336 6.01215H18.6971V7.90994H20.7846V11.4841C20.7846 14.6234 18.2305 17.1776 15.0912 17.1776C11.9519 17.1776 9.3978 14.6235 9.3978 11.4842V7.90994H11.4221V6.01215H8.4489C7.92479 6.01215 7.5 6.43693 7.5 6.96104V11.4842C7.5 15.6701 10.9053 19.0754 15.0912 19.0754C19.2772 19.0754 22.6825 15.6701 22.6825 11.4842V6.96104C22.6825 6.43693 22.2577 6.01215 21.7336 6.01215Z" fill="#00A3FF"/>
<path d="M25.4343 19.8662V24.3577C25.4343 26.9738 23.3059 29.1022 20.6897 29.1022C18.0736 29.1022 15.9452 26.9738 15.9452 24.3577V18.1581H14.0474V24.3577C14.0474 28.0201 17.0269 31 20.6897 31C24.3522 31 27.3321 28.0201 27.3321 24.3577V19.8662H25.4343Z" fill="#00A3FF"/>
<path d="M26.3835 13.7299C24.4471 13.7299 22.8723 15.3048 22.8723 17.2409C22.8723 19.1767 24.4471 20.7519 26.3832 20.7519C28.3193 20.7519 29.8942 19.1767 29.8945 17.2409C29.8944 15.3048 28.3193 13.7299 26.3835 13.7299ZM26.3832 18.8541C25.4935 18.8541 24.7697 18.1304 24.7697 17.2409C24.7697 16.3515 25.4934 15.6278 26.3832 15.6278C27.2727 15.6278 27.9963 16.3515 27.9963 17.2409C27.9963 18.1304 27.2727 18.8541 26.3832 18.8541Z" fill="#00A3FF"/>
<path d="M11.3905 5C10.8664 5 10.4416 5.42479 10.4416 5.9489V7.97324C10.4416 8.49736 10.8664 8.92214 11.3905 8.92214C11.9146 8.92214 12.3394 8.49736 12.3394 7.97324V5.9489C12.3394 5.42479 11.9146 5 11.3905 5Z" fill="#00A3FF"/>
<path d="M18.7287 5C18.2046 5 17.7798 5.42479 17.7798 5.9489V7.97324C17.7798 8.49736 18.2046 8.92214 18.7287 8.92214C19.2528 8.92214 19.6776 8.49736 19.6776 7.97324V5.9489C19.6776 5.42479 19.2528 5 18.7287 5Z" fill="#00A3FF"/>
</svg>
