<svg width="37" height="36" viewBox="0 0 37 36" fill="none" xmlns="http://www.w3.org/2000/svg">
<path d="M27.2493 22.2667C27.5911 22.1202 27.7494 21.7242 27.6028 21.3824C27.4563 21.0406 27.0604 20.8823 26.7186 21.0288C26.3767 21.1754 26.2184 21.5713 26.365 21.9131C26.5115 22.255 26.9074 22.4133 27.2493 22.2667Z" fill="#00A3FF"/>
<path d="M31.2111 6.5372C31.0305 6.41092 30.7998 6.38081 30.5929 6.45638C29.4481 6.87475 28.2349 7.08691 26.9868 7.08691C25.2362 7.08691 22.4206 6.03922 18.9478 1.04795C18.8216 0.866641 18.6147 0.758545 18.3939 0.758545H18.3788C18.1579 0.758545 17.951 0.866641 17.8249 1.04795C14.3521 6.03922 11.5365 7.08691 9.78585 7.08691C8.5378 7.08691 7.32457 6.87475 6.17983 6.45638C5.97293 6.38081 5.74206 6.41092 5.56156 6.5372C5.38099 6.66348 5.27344 6.86991 5.27344 7.09021V16.2489C5.27344 19.9651 6.34288 23.6461 8.36619 26.8942C10.383 30.1319 13.3115 32.8801 16.8348 34.8418C17.3134 35.1083 17.8497 35.2415 18.3863 35.2415C18.9228 35.2415 19.4594 35.1083 19.9378 34.8418C23.4612 32.8801 26.3895 30.1319 28.4064 26.8942C30.4298 23.6461 31.4993 19.9651 31.4993 16.2489V7.09021C31.4993 6.86984 31.3917 6.66341 31.2111 6.5372V6.5372ZM30.1497 16.2489C30.1497 19.7126 29.1508 23.1469 27.261 26.1806C25.3647 29.2247 22.6054 31.812 19.2814 33.6627C18.7377 33.9654 18.035 33.9653 17.4914 33.6627C14.1673 31.812 11.408 29.2248 9.51174 26.1806C7.62185 23.1469 6.62292 19.7126 6.62292 16.2489V8.01377C7.64347 8.29455 8.70361 8.43652 9.78585 8.43652C13.229 8.43652 16.2831 5.40977 18.3861 2.5792C19.4289 3.98499 20.4927 5.1562 21.5563 6.06845C23.3884 7.63978 25.2154 8.43652 26.9868 8.43652C28.069 8.43652 29.1291 8.29455 30.1497 8.01377V16.2489Z" fill="#00A3FF"/>
<path d="M21.1435 23.7122V20.7566H24.0991C24.4717 20.7566 24.7738 20.4545 24.7738 20.0818V15.9163C24.7738 15.5437 24.4717 15.2415 24.0991 15.2415H21.1435V12.286C21.1435 11.9133 20.8414 11.6112 20.4687 11.6112H16.3032C15.9305 11.6112 15.6284 11.9133 15.6284 12.286V15.2415H12.6728C12.3002 15.2415 11.998 15.5437 11.998 15.9163V20.0818C11.998 20.4545 12.3002 20.7566 12.6728 20.7566H15.6284V23.7122C15.6284 24.0848 15.9305 24.3869 16.3032 24.3869H20.4687C20.8414 24.3869 21.1435 24.0849 21.1435 23.7122V23.7122ZM19.794 20.0818V23.0374H16.9779V20.0818C16.9779 19.7092 16.6758 19.407 16.3032 19.407H13.3476V16.5912H16.3032C16.6758 16.5912 16.9779 16.289 16.9779 15.9164V12.9608H19.794V15.9164C19.794 16.289 20.0961 16.5912 20.4687 16.5912H23.4243V19.4071H20.4687C20.096 19.407 19.794 19.7092 19.794 20.0818Z" fill="#00A3FF"/>
<path d="M26.158 23.8405C25.8188 23.6865 25.4188 23.8368 25.2647 24.1762C24.1603 26.6101 22.3206 28.7309 19.9445 30.3093C19.6634 30.496 19.5629 30.8755 19.7161 31.1767C19.8965 31.5313 20.3591 31.6541 20.6913 31.4334C23.2783 29.715 25.2847 27.3983 26.4937 24.7337C26.6477 24.3944 26.4974 23.9944 26.158 23.8405V23.8405Z" fill="#00A3FF"/>
</svg>
