<svg width="37" height="36" viewBox="0 0 37 36" fill="none" xmlns="http://www.w3.org/2000/svg">
<path d="M14.5 6V13C14.5 13.5523 14.0523 14 13.5 14H6.5C5.94772 14 5.5 14.4477 5.5 15V21C5.5 21.5523 5.94772 22 6.5 22H13.5C14.0523 22 14.5 22.4477 14.5 23V30C14.5 30.5523 14.9477 31 15.5 31H21.5C22.0523 31 22.5 30.5523 22.5 30V23C22.5 22.4477 22.9477 22 23.5 22H29.5C30.0523 22 30.5 21.5523 30.5 21V15C30.5 14.4477 30.0523 14 29.5 14H23.5C22.9477 14 22.5 13.5523 22.5 13V6C22.5 5.44772 22.0523 5 21.5 5H15.5C14.9477 5 14.5 5.44772 14.5 6Z" stroke="#00A3FF" stroke-width="2"/>
</svg>
