<svg width="37" height="36" viewBox="0 0 37 36" fill="none" xmlns="http://www.w3.org/2000/svg">
<g clip-path="url(#clip0_647_26797)">
<path d="M29.0334 19.7486L28.1182 18.9952C27.4913 18.4791 27.4924 17.5199 28.1182 17.0048L29.0334 16.2514C29.6847 15.7152 29.8513 14.7957 29.4295 14.0651L27.6223 10.9349C27.2004 10.2043 26.3207 9.88892 25.5308 10.1848L24.4207 10.6007C23.6604 10.8855 22.8302 10.4051 22.697 9.6055L22.5021 8.43614C22.3634 7.60401 21.6504 7 20.8068 7H17.1925C16.3488 7 15.6357 7.60401 15.4971 8.43619L15.3022 9.6055C15.1687 10.4066 14.3374 10.885 13.5784 10.6007L12.4683 10.1848C11.6785 9.88892 10.7988 10.2044 10.3769 10.9349L8.56975 14.065C8.14792 14.7956 8.31447 15.7151 8.96584 16.2513L9.88103 17.0048C10.508 17.5209 10.5068 18.48 9.88103 18.9952L8.96579 19.7486C8.31447 20.2848 8.14788 21.2043 8.56971 21.9349L10.3769 25.065C10.7988 25.7956 11.6782 26.111 12.4683 25.8152L13.5784 25.3993C14.3389 25.1143 15.1689 25.595 15.3021 26.3945L15.497 27.5637C15.6357 28.396 16.3488 29 17.1924 29H20.8067C21.6504 29 22.3634 28.396 22.5021 27.5638L22.6969 26.3945C22.8304 25.5937 23.6616 25.1149 24.4207 25.3993L25.5308 25.8152C26.3209 26.1111 27.2004 25.7957 27.6223 25.0651L29.4295 21.9349C29.8513 21.2043 29.6847 20.2848 29.0334 19.7486ZM26.1338 24.2057L25.0237 23.7898C23.2492 23.125 21.3125 24.2465 21.0016 26.1119L20.8068 27.2812H17.1925L16.9976 26.1119C16.6861 24.2429 14.7466 23.1263 12.9755 23.7898L11.8654 24.2057L10.0582 21.0756L10.9734 20.3222C12.4365 19.1177 12.4334 16.8798 10.9734 15.6778L10.0582 14.9244L11.8654 11.7943L12.9755 12.2102C14.7501 12.8749 16.6867 11.7535 16.9976 9.88806L17.1924 8.71875H20.8067L21.0016 9.88806C21.3131 11.7573 23.2527 12.8736 25.0237 12.2102L26.1338 11.7943L27.9414 14.924C27.9414 14.924 27.9412 14.9241 27.9409 14.9244L27.0257 15.6778C25.5627 16.8821 25.5657 19.1202 27.0257 20.3221L27.9409 21.0755L26.1338 24.2057ZM18.9996 13.7604C16.6619 13.7604 14.76 15.6623 14.76 18C14.76 20.3377 16.6619 22.2396 18.9996 22.2396C21.3373 22.2396 23.2392 20.3377 23.2392 18C23.2392 15.6623 21.3373 13.7604 18.9996 13.7604ZM18.9996 20.5208C17.6096 20.5208 16.4787 19.39 16.4787 18C16.4787 16.61 17.6096 15.4792 18.9996 15.4792C20.3896 15.4792 21.5204 16.61 21.5204 18C21.5204 19.39 20.3896 20.5208 18.9996 20.5208Z" fill="#00A3FF"/>
</g>
<defs>
<clipPath id="clip0_647_26797">
<rect width="22" height="22" fill="white" transform="translate(8 7)"/>
</clipPath>
</defs>
</svg>
