<svg width="37" height="36" viewBox="0 0 37 36" fill="none" xmlns="http://www.w3.org/2000/svg">
<path d="M10.9962 28.1143L14.1103 26.3164L15.0902 28.0137L9.54937 31.2127L8.85288 30.0063L9.43974 24.1875L6.62022 25.8153L5.64027 24.118L10.9006 21.081L11.5971 22.2873L10.9962 28.1143Z" stroke="#00A3FF"/>
<path d="M17.538 21.6432L22.4202 20.335L23.1332 22.996L14.4464 25.3236L13.9396 23.4323L16.8533 15.7453L12.4329 16.9297L11.7199 14.2687L19.9669 12.0589L20.4737 13.9502L17.538 21.6432Z" stroke="#00A3FF"/>
<path d="M25.6621 15.145H31.6045V18.3839H21.0312V16.0819L26.6793 8.23891H21.2989V5H31.3369V7.30203L25.6621 15.145Z" stroke="#00A3FF"/>
</svg>
