<svg width="37" height="36" viewBox="0 0 37 36" fill="none" xmlns="http://www.w3.org/2000/svg">
<path d="M27.4375 6.625H9.5625C8.91625 6.62571 8.29668 6.88274 7.83971 7.33971C7.38274 7.79668 7.12571 8.41625 7.125 9.0625V26.9375C7.12571 27.5837 7.38274 28.2033 7.83971 28.6603C8.29668 29.1173 8.91625 29.3743 9.5625 29.375H27.4375C28.0837 29.3743 28.7033 29.1173 29.1603 28.6603C29.6173 28.2033 29.8743 27.5837 29.875 26.9375V9.0625C29.8743 8.41625 29.6173 7.79668 29.1603 7.33971C28.7033 6.88274 28.0837 6.62571 27.4375 6.625ZM28.25 26.9375C28.2498 27.1529 28.1641 27.3595 28.0118 27.5118C27.8595 27.6641 27.6529 27.7498 27.4375 27.75H9.5625C9.34707 27.7498 9.14052 27.6641 8.98819 27.5118C8.83586 27.3595 8.75019 27.1529 8.75 26.9375V9.0625C8.75019 8.84707 8.83586 8.64052 8.98819 8.48819C9.14052 8.33586 9.34707 8.25019 9.5625 8.25H27.4375C27.6529 8.25019 27.8595 8.33586 28.0118 8.48819C28.1641 8.64052 28.2498 8.84707 28.25 9.0625V26.9375Z" fill="#00A3FF"/>
<path d="M18.5 9.875C16.7767 9.87698 15.1245 10.5624 13.906 11.781C12.6874 12.9995 12.002 14.6517 12 16.375C12 16.5905 12.0856 16.7972 12.238 16.9495C12.3903 17.1019 12.597 17.1875 12.8125 17.1875H24.1875C24.403 17.1875 24.6097 17.1019 24.762 16.9495C24.9144 16.7972 25 16.5905 25 16.375C24.998 14.6517 24.3126 12.9995 23.094 11.781C21.8755 10.5624 20.2233 9.87698 18.5 9.875ZM19.3125 15.5625V13.9375C19.3125 13.722 19.2269 13.5153 19.0745 13.363C18.9222 13.2106 18.7155 13.125 18.5 13.125C18.2845 13.125 18.0778 13.2106 17.9255 13.363C17.7731 13.5153 17.6875 13.722 17.6875 13.9375V15.5625H13.6981C13.8886 14.4266 14.4755 13.395 15.3547 12.651C16.2338 11.907 17.3483 11.4987 18.5 11.4987C19.6517 11.4987 20.7662 11.907 21.6453 12.651C22.5245 13.395 23.1114 14.4266 23.3019 15.5625H19.3125Z" fill="#00A3FF"/>
</svg>
