<svg width="30" height="30" viewBox="0 0 30 30" fill="none" xmlns="http://www.w3.org/2000/svg">
<g clip-path="url(#clip0_1206_1086)">
<rect width="30" height="30" rx="6" fill="white"/>
<path d="M9.97686 12.7814L9.97686 12.7814C10.3821 13.8836 10.5361 14.8911 10.697 15.944L10.6975 15.9469L9.97686 12.7814ZM9.97686 12.7814C9.92852 12.6499 9.82995 12.5431 9.70281 12.4843C9.57568 12.4255 9.43041 12.4197 9.29896 12.468C9.16751 12.5163 9.06064 12.6149 9.00187 12.742C8.9431 12.8692 8.93723 13.0144 8.98557 13.1459L8.98558 13.1459M9.97686 12.7814L8.98558 13.1459M8.98558 13.1459C9.35346 14.1461 9.4981 15.0914 9.6534 16.1065L9.65357 16.1076C9.86858 17.5139 10.1139 19.1185 11.0105 21.2317L11.1251 21.1831M8.98558 13.1459L11.1251 21.1831M11.1251 21.1831L11.0105 21.2317C11.0652 21.3606 11.1689 21.4625 11.2988 21.515M11.1251 21.1831L11.2988 21.515M11.2988 21.515C11.4286 21.5675 11.574 21.5663 11.7029 21.5116M11.2988 21.515L11.7029 21.5116M11.7029 21.5116C11.8319 21.4568 11.9338 21.3532 11.9863 21.2233M11.7029 21.5116L11.9863 21.2233M11.9863 21.2233C12.0388 21.0934 12.0375 20.9481 11.9828 20.8191M11.9863 21.2233L11.9828 20.8191M11.9828 20.8191C11.1383 18.8285 10.9149 17.3689 10.6975 15.9469L11.9828 20.8191ZM9.10289 13.1028L9.10289 13.1028L9.10289 13.1028Z" fill="white" stroke="white" stroke-width="0.25"/>
<path d="M9.30459 8.55303L9.30463 8.55299C9.66589 8.19102 10.1474 8.00195 10.6913 8.00195C10.8314 8.00195 10.9657 8.05759 11.0647 8.15663C11.1637 8.25566 11.2194 8.38998 11.2194 8.53004C11.2194 8.6701 11.1637 8.80442 11.0647 8.90346C10.9657 9.00249 10.8314 9.05813 10.6913 9.05813C10.4159 9.05813 10.2118 9.13925 10.0524 9.29894C9.77148 9.58059 9.60489 10.1376 9.60698 10.9472L9.30459 8.55303ZM9.30459 8.55303C8.79232 9.0667 8.54804 9.88285 8.5508 10.95L8.5508 10.95M9.30459 8.55303L8.5508 10.95M8.5508 10.95C8.55117 11.0898 8.60697 11.2237 8.70597 11.3225L8.79424 11.234M8.5508 10.95L8.79424 11.234M8.79424 11.234L8.70597 11.3225C8.80496 11.4212 8.93907 11.4767 9.07889 11.4767L9.07995 11.4767L9.08028 11.4767M8.79424 11.234L9.08028 11.4767M9.08028 11.4767C9.14963 11.4765 9.21826 11.4626 9.28226 11.4359M9.08028 11.4767L9.28226 11.4359M9.28226 11.4359C9.34627 11.4092 9.40438 11.3702 9.45329 11.321M9.28226 11.4359L9.45329 11.321M9.45329 11.321C9.5022 11.2718 9.54094 11.2135 9.56731 11.1494M9.45329 11.321L9.56731 11.1494M9.56731 11.1494C9.59368 11.0852 9.60716 11.0165 9.60698 10.9472L9.56731 11.1494Z" fill="white" stroke="white" stroke-width="0.25"/>
<path d="M19.1598 5.98926H19.1594H19.1542C18.7611 5.98926 18.3201 6.09035 17.8768 6.23093C17.4335 6.37155 16.9788 6.55478 16.5573 6.72462L16.5547 6.72569C16.2606 6.8442 15.9652 6.96321 15.7084 7.05284C15.4463 7.14433 15.2435 7.19797 15.1269 7.19852C15.0097 7.19797 14.8068 7.14431 14.5446 7.05283C14.2877 6.96321 13.9924 6.84421 13.6983 6.72569L13.6516 6.84163L13.6983 6.72569L13.6958 6.72469C13.2742 6.5548 12.8195 6.37154 12.3761 6.23091C11.9329 6.09034 11.4919 5.98926 11.0988 5.98926L11.0934 5.98926L11.0931 5.98926C9.04597 5.99442 7.9409 6.99145 7.37691 7.83195L7.3769 7.83197C6.26768 9.48547 6.38165 11.7022 6.9773 13.1659L6.97731 13.1659C7.48317 14.4085 7.6025 15.3575 7.74228 16.4721C7.90821 17.7954 8.09727 19.3028 8.98914 21.6212C9.76556 23.64 11.2461 24.3783 12.3036 24.3783C12.8916 24.3783 13.4375 24.1011 13.8407 23.6089C14.4565 22.8577 14.6697 21.7012 14.4338 20.5219C14.3529 20.1173 14.2376 19.4247 14.2282 18.7305C14.2235 18.3835 14.2453 18.0397 14.3095 17.7332C14.3738 17.4258 14.4792 17.1639 14.6356 16.9731L14.6356 16.973C14.7782 16.7991 14.9417 16.7196 15.1252 16.7196H15.1274C15.3109 16.7196 15.4745 16.7991 15.6171 16.9731C15.7736 17.1639 15.8789 17.4258 15.9433 17.7332C16.0075 18.0397 16.0293 18.3835 16.0246 18.7305C16.0151 19.4246 15.8998 20.1172 15.8189 20.5219C15.583 21.7012 15.7961 22.8578 16.4119 23.6089C16.8154 24.1011 17.361 24.3783 17.9491 24.3783C19.0065 24.3783 20.4872 23.64 21.2636 21.6212C22.155 19.3034 22.3442 17.7963 22.5103 16.4732L22.5105 16.4721L22.5105 16.4721C22.6502 15.3575 22.7696 14.4085 23.2754 13.1659C23.8713 11.7021 23.985 9.48541 22.8758 7.83197C22.3119 6.9913 21.2069 5.99427 19.1598 5.98926ZM16.4343 16.3036L16.4343 16.3036C16.098 15.8936 15.6339 15.6636 15.1278 15.6636H15.1256C14.6196 15.6636 14.1553 15.8936 13.8191 16.3036C13.3238 16.908 12.8846 18.1597 13.3985 20.7292C13.5778 21.626 13.427 22.4483 13.0243 22.9395C12.8744 23.1224 12.6345 23.3221 12.304 23.3221C11.7604 23.3221 10.6142 22.9032 9.97524 21.2421C9.12972 19.0437 8.95011 17.6116 8.79081 16.3414L8.79072 16.3407L8.79072 16.3407L8.78976 16.3331C8.64892 15.2118 8.5141 14.1385 7.95614 12.7677L7.95613 12.7677C7.37253 11.334 7.50145 9.54312 8.25459 8.42023C8.86198 7.51487 9.81026 7.0485 11.096 7.04533C11.3718 7.04517 11.7249 7.12849 12.1144 7.25565C12.5017 7.38211 12.9131 7.54777 13.3038 7.7052L13.3505 7.58926L13.3038 7.7052L13.3066 7.70633C13.6632 7.85002 14.0005 7.98592 14.3034 8.08593C14.6056 8.18568 14.8849 8.25372 15.1237 8.2546H15.1241L15.1292 8.2546L15.1296 8.2546C15.3684 8.25372 15.6477 8.18568 15.9499 8.08593C16.2528 7.98595 16.5899 7.85008 16.9464 7.70643L16.9495 7.7052C17.3394 7.54807 17.7504 7.3825 18.1374 7.25601C18.5265 7.1288 18.8791 7.04533 19.154 7.04533H19.1574C20.4431 7.04851 21.3915 7.51483 21.9988 8.42022C22.7518 9.54305 22.8807 11.3341 22.2972 12.7677C21.7381 14.141 21.6035 15.2161 21.4628 16.3394L21.4626 16.3407L21.4626 16.3407L21.4626 16.3411C21.3033 17.6113 21.1237 19.0435 20.2781 21.2421C19.6393 22.9032 18.4931 23.3221 17.9494 23.3221C17.619 23.3221 17.3791 23.1223 17.2291 22.9395C16.8264 22.4483 16.6755 21.6259 16.8549 20.7292C17.3688 18.1597 16.9297 16.908 16.4343 16.3036Z" fill="white" stroke="white" stroke-width="0.25"/>
<g clip-path="url(#clip1_1206_1086)">
<path d="M29.8315 23.6591C29.725 23.5525 29.577 23.4912 29.4264 23.4912C29.2758 23.4912 29.1279 23.5525 29.0214 23.6591C28.9148 23.7658 28.8535 23.9135 28.8535 24.0641C28.8535 24.215 28.9148 24.3627 29.0214 24.4692C29.1279 24.5757 29.2758 24.637 29.4264 24.637C29.577 24.637 29.725 24.5757 29.8315 24.4692C29.938 24.3627 29.9993 24.215 29.9993 24.0641C29.9993 23.9135 29.938 23.7658 29.8315 23.6591Z" fill="#00A3FF"/>
<path d="M21.9125 15.7414L21.9143 14.4062C21.9177 12.1622 21.0456 10.0528 19.4589 8.46604L18.0796 7.08679C17.8558 6.863 17.493 6.863 17.2692 7.08679C17.0457 7.31036 17.0457 7.67314 17.2692 7.89693L18.6485 9.27618C20.0183 10.646 20.7714 12.4673 20.7685 14.4047L20.7663 15.9775C20.766 16.1297 20.8265 16.2758 20.9341 16.3835L27.4005 22.8498C27.5124 22.9617 27.6589 23.0177 27.8055 23.0177C27.9521 23.0177 28.0989 22.9617 28.2106 22.8498C28.4344 22.626 28.4344 22.2633 28.2106 22.0397L21.9125 15.7414Z" fill="#00A3FF"/>
<path d="M15.5956 21.7214C15.4882 21.614 15.3425 21.5536 15.1906 21.5536C15.1903 21.5536 15.1899 21.5536 15.1897 21.5536L12.7561 21.5572C12.7525 21.5572 12.7492 21.5572 12.7458 21.5572C11.305 21.5572 9.91123 21.1331 8.71459 20.3306L5.13141 17.9279C4.89396 17.7683 4.73394 17.5257 4.68158 17.2444C4.62898 16.9631 4.6903 16.6791 4.85457 16.4448C5.17258 15.9907 5.79317 15.86 6.26739 16.1474L7.81606 17.0864C8.17099 17.3015 8.61433 17.2207 8.87036 16.8942C9.1266 16.5677 9.0993 16.1178 8.8059 15.8244L2.11084 9.12914C1.91815 8.93646 1.81185 8.67999 1.81185 8.40718C1.81185 8.13437 1.91815 7.8779 2.11106 7.68499C2.30375 7.4923 2.56022 7.386 2.83303 7.386C3.07003 7.386 3.29472 7.46634 3.47599 7.61405L8.76875 12.8988C8.99232 13.1226 9.3551 13.1226 9.57889 12.8988C9.80269 12.675 9.80269 12.3122 9.57889 12.0884L2.94269 5.46024C2.54455 5.06211 2.54455 4.41445 2.94269 4.01631C3.34082 3.61796 3.98871 3.61818 4.38684 4.01631L11.0192 10.6485C11.2428 10.8723 11.6056 10.8723 11.8294 10.6485C12.0532 10.4247 12.0532 10.0619 11.8294 9.83813L6.54065 4.54962C6.39316 4.36812 6.3126 4.14365 6.3126 3.90643C6.3126 3.63362 6.4189 3.37738 6.61181 3.18447C7.00994 2.78633 7.65761 2.78633 8.05574 3.18447L11.9238 7.06038C11.9419 7.07851 13.2695 8.39801 13.2695 8.39801C13.4933 8.6218 13.8561 8.6218 14.0799 8.39801C14.3034 8.17443 14.3034 7.81166 14.0799 7.58787L9.96897 3.47697C9.82126 3.29569 9.74092 3.071 9.74092 2.83378C9.74092 2.5612 9.847 2.30473 10.0399 2.11182C10.2328 1.9189 10.4893 1.81282 10.7621 1.81282C11.0347 1.81282 11.2912 1.9189 11.4841 2.11182L14.0282 4.65592C14.252 4.87972 14.6147 4.87972 14.8383 4.65592C15.0621 4.43235 15.0621 4.06958 14.8383 3.84578L12.2944 1.30168C11.8847 0.892354 11.3406 0.666992 10.7619 0.666992C10.1829 0.666992 9.63865 0.892354 9.22955 1.30168C8.97106 1.55994 8.78621 1.87213 8.68483 2.21275C7.83485 1.53375 6.58831 1.58724 5.80145 2.37433C5.54207 2.63348 5.36259 2.94299 5.26255 3.27152L5.19698 3.20595C4.35215 2.36112 2.97737 2.36112 2.13255 3.20595C1.72323 3.61527 1.49786 4.15932 1.49786 4.73828C1.49786 5.31701 1.72323 5.86106 2.13255 6.27038L2.19678 6.33461C1.86198 6.43711 1.55515 6.62017 1.3007 6.87485C0.891378 7.28417 0.666016 7.82845 0.666016 8.40718C0.666016 8.98592 0.891378 9.53019 1.3007 9.93951L6.2835 14.9221C5.41294 14.6929 4.45554 15.017 3.91597 15.7875C3.57379 16.2763 3.44555 16.8682 3.55521 17.4548C3.66465 18.0413 3.99788 18.5471 4.49336 18.8795L8.07655 21.2821C9.46588 22.214 11.0853 22.7028 12.7577 22.7028L14.9536 22.6997L22.0864 29.8325C22.1983 29.9444 22.3449 30.0003 22.4914 30.0003C22.638 30.0003 22.7846 29.9444 22.8965 29.8325C23.1203 29.6087 23.1203 29.2461 22.8965 29.0223L15.5956 21.7214Z" fill="#00A3FF"/>
<path d="M16.2754 13.5752C17.2229 13.5752 17.9941 12.804 17.9941 11.8564C17.9941 10.9087 17.2229 10.1377 16.2754 10.1377C15.3276 10.1377 14.5566 10.9087 14.5566 11.8564C14.5566 12.804 15.3276 13.5752 16.2754 13.5752ZM16.2754 11.2835C16.5912 11.2835 16.8483 11.5404 16.8483 11.8564C16.8483 12.1722 16.5912 12.4294 16.2754 12.4294C15.9594 12.4294 15.7025 12.1722 15.7025 11.8564C15.7025 11.5404 15.9594 11.2835 16.2754 11.2835Z" fill="#00A3FF"/>
<path d="M13.0117 19.8387C13.9595 19.8387 14.7305 19.0675 14.7305 18.12C14.7305 17.1722 13.9595 16.4012 13.0117 16.4012C12.0639 16.4012 11.293 17.1722 11.293 18.12C11.293 19.0675 12.0639 19.8387 13.0117 19.8387ZM13.0117 17.5471C13.3277 17.5471 13.5846 17.804 13.5846 18.12C13.5846 18.4358 13.3277 18.6929 13.0117 18.6929C12.6959 18.6929 12.4388 18.4358 12.4388 18.12C12.4388 17.804 12.6959 17.5471 13.0117 17.5471Z" fill="#00A3FF"/>
<path d="M21.9102 19.6885C20.9624 19.6885 20.1914 20.4597 20.1914 21.4072C20.1914 22.355 20.9624 23.126 21.9102 23.126C22.8579 23.126 23.6289 22.355 23.6289 21.4072C23.6289 20.4597 22.8579 19.6885 21.9102 19.6885ZM21.9102 21.9801C21.5944 21.9801 21.3372 21.7232 21.3372 21.4072C21.3372 21.0914 21.5944 20.8343 21.9102 20.8343C22.2262 20.8343 22.4831 21.0914 22.4831 21.4072C22.4831 21.7232 22.2262 21.9801 21.9102 21.9801Z" fill="#00A3FF"/>
<path d="M26.6582 26.5605C25.7104 26.5605 24.9395 27.3317 24.9395 28.2793C24.9395 29.2271 25.7104 29.998 26.6582 29.998C27.606 29.998 28.377 29.2271 28.377 28.2793C28.377 27.3317 27.606 26.5605 26.6582 26.5605ZM26.6582 28.8522C26.3424 28.8522 26.0853 28.5953 26.0853 28.2793C26.0853 27.9635 26.3424 27.7064 26.6582 27.7064C26.9742 27.7064 27.2311 27.9635 27.2311 28.2793C27.2311 28.5953 26.9742 28.8522 26.6582 28.8522Z" fill="#00A3FF"/>
<path d="M12.5112 13.854C12.6177 13.7468 12.679 13.5995 12.679 13.4489C12.679 13.2976 12.6177 13.1503 12.5112 13.0432C12.4047 12.9366 12.2567 12.876 12.1061 12.876C11.9548 12.876 11.8076 12.9366 11.701 13.0432C11.5939 13.1497 11.5332 13.2976 11.5332 13.4489C11.5332 13.5995 11.5939 13.7472 11.701 13.854C11.8076 13.9605 11.9548 14.0211 12.1061 14.0211C12.2567 14.0211 12.4047 13.9605 12.5112 13.854Z" fill="#00A3FF"/>
<path d="M18.812 16.8274C18.9185 16.7208 18.9798 16.5731 18.9798 16.4225C18.9798 16.2712 18.9185 16.124 18.812 16.0175C18.7054 15.9107 18.5575 15.8496 18.4069 15.8496C18.2556 15.8496 18.1084 15.9107 18.0018 16.0175C17.8946 16.124 17.834 16.2712 17.834 16.4225C17.834 16.5731 17.8946 16.7208 18.0018 16.8274C18.1084 16.9341 18.2556 16.9954 18.4069 16.9954C18.5575 16.9954 18.7054 16.9341 18.812 16.8274Z" fill="#00A3FF"/>
<path d="M17.2189 20.2147C17.1121 20.3212 17.0508 20.4692 17.0508 20.6198C17.0508 20.7711 17.1121 20.9183 17.2189 21.0249C17.3254 21.1314 17.4731 21.1927 17.6237 21.1927C17.7745 21.1927 17.9222 21.1314 18.0288 21.0249C18.1355 20.9183 18.1966 20.7704 18.1966 20.6198C18.1966 20.4692 18.1355 20.3212 18.0288 20.2147C17.9222 20.1082 17.7745 20.0469 17.6237 20.0469C17.4731 20.0469 17.3254 20.1082 17.2189 20.2147Z" fill="#00A3FF"/>
<path d="M22.8737 24.958C22.7229 24.958 22.5752 25.0193 22.4686 25.1259C22.3621 25.2324 22.3008 25.3803 22.3008 25.5309C22.3008 25.6815 22.3621 25.8295 22.4686 25.936C22.5752 26.0425 22.7229 26.1038 22.8737 26.1038C23.0243 26.1038 23.172 26.0425 23.2788 25.936C23.3853 25.8295 23.4466 25.6815 23.4466 25.5309C23.4466 25.3803 23.3853 25.2324 23.2788 25.1259C23.172 25.0193 23.0243 24.958 22.8737 24.958Z" fill="#00A3FF"/>
<path d="M16.0534 6.44368C16.2047 6.44368 16.3519 6.38236 16.4585 6.27584C16.5652 6.16931 16.6263 6.02138 16.6263 5.87077C16.6263 5.72015 16.5652 5.57222 16.4585 5.4657C16.3519 5.35917 16.2042 5.29785 16.0534 5.29785C15.9028 5.29785 15.7551 5.35917 15.6485 5.4657C15.5418 5.57222 15.4805 5.72015 15.4805 5.87077C15.4805 6.02138 15.5418 6.16931 15.6485 6.27584C15.7551 6.38236 15.9028 6.44368 16.0534 6.44368Z" fill="#00A3FF"/>
</g>
</g>
<defs>
<clipPath id="clip0_1206_1086">
<rect width="30" height="30" rx="6" fill="white"/>
</clipPath>
<clipPath id="clip1_1206_1086">
<rect width="29.3333" height="29.3333" fill="white" transform="translate(0.666016 0.666992)"/>
</clipPath>
</defs>
</svg>
