<svg width="30" height="30" viewBox="0 0 30 30" fill="none" xmlns="http://www.w3.org/2000/svg">
<g clip-path="url(#clip0_1206_1209)">
<path d="M28.2287 12.3009C27.9621 12.3009 27.6979 12.3867 27.4646 12.5493C26.8477 12.9791 26.0095 13.1968 24.9729 13.1968H23.533C23.3112 12.1471 22.8943 11.1407 22.309 10.2416L22.316 10.2343C22.9415 9.60879 23.8008 9.28154 24.5596 9.04365C24.7658 8.97891 24.9451 8.87139 25.0937 8.72373C25.8073 8.00947 25.5252 6.65039 24.4371 5.5626C23.3496 4.47539 21.9902 4.19355 21.2754 4.90723C21.1289 5.05459 21.0214 5.23359 20.9561 5.44072C20.7179 6.19951 20.3903 7.05908 19.7657 7.68398L19.7587 7.69102C18.859 7.10537 17.8529 6.68877 16.8032 6.46699V5.02705C16.8032 3.99053 17.0209 3.15234 17.4501 2.53564C17.6127 2.30244 17.6988 2.03789 17.6988 1.77129C17.6988 0.761426 16.5387 0 15 0C13.4613 0 12.3009 0.761426 12.3009 1.77129C12.3009 2.0373 12.3867 2.30127 12.5493 2.53535C12.9788 3.15205 13.1965 3.99023 13.1965 5.02705V6.46699C12.1468 6.68877 11.1407 7.10537 10.2413 7.69102L10.234 7.68398C9.60938 7.05908 9.28184 6.19951 9.04365 5.44102C8.97891 5.23418 8.87109 5.0543 8.72344 4.90664C8.34697 4.52988 7.75986 4.41973 7.11533 4.60283C6.58154 4.754 6.03018 5.09502 5.5626 5.5626C4.4748 6.65039 4.19268 8.00947 4.90723 8.72461C5.05459 8.87109 5.23359 8.97861 5.44072 9.04395C6.19922 9.28154 7.0585 9.60908 7.68398 10.2343L7.69102 10.2413C7.10537 11.141 6.68877 12.1471 6.46699 13.1968H5.02705C3.99053 13.1968 3.15234 12.9791 2.53506 12.549C2.30127 12.3867 2.0373 12.3009 1.77129 12.3009C0.761426 12.3009 0 13.4613 0 15C0 16.5387 0.761426 17.6991 1.77129 17.6991C2.0373 17.6991 2.30127 17.6133 2.53535 17.4507C3.15234 17.0209 3.99053 16.8032 5.02705 16.8032H6.46699C6.68877 17.8532 7.10537 18.8593 7.69102 19.7587L7.55654 19.8932C7.14434 20.3054 6.49336 20.814 5.73193 20.896C5.40527 20.9314 5.11963 21.063 4.90635 21.2763C4.19268 21.9905 4.4748 23.3496 5.5626 24.4374C6.03018 24.905 6.58154 25.246 7.11533 25.3972C7.76016 25.5812 8.34697 25.4698 8.72344 25.0934C8.93701 24.8801 9.06855 24.5944 9.104 24.2675C9.18604 23.5063 9.69463 22.8557 10.1068 22.4435L10.2413 22.309C11.1407 22.8946 12.1468 23.3112 13.1965 23.533V25.8674C13.1965 26.4434 13.0248 26.9399 12.7125 27.2657C12.4433 27.5473 12.3009 27.8801 12.3009 28.2287C12.3009 29.2386 13.4613 30 15 30C16.5387 30 17.6988 29.2386 17.6988 28.2287C17.6988 27.8801 17.5564 27.5473 17.2872 27.2657C16.9752 26.9396 16.8032 26.4431 16.8032 25.8674V23.533C17.8529 23.3112 18.859 22.8946 19.7587 22.309L19.7657 22.316C20.3903 22.9409 20.7179 23.8005 20.9563 24.5604C21.0214 24.7664 21.1289 24.9454 21.2763 25.0937C21.9905 25.807 23.3493 25.5255 24.4371 24.4374C25.5252 23.3496 25.8073 21.9905 25.0928 21.2754C24.9451 21.1286 24.7658 21.0211 24.559 20.9561C23.8008 20.7185 22.9415 20.3912 22.316 19.7654L22.309 19.7584C22.8943 18.8593 23.3112 17.8529 23.533 16.8032H24.9729C26.0095 16.8032 26.8477 17.0209 27.4644 17.4504C27.6979 17.6133 27.9621 17.6991 28.2287 17.6991C29.2386 17.6991 30 16.5387 30 15C30 13.4613 29.2386 12.3009 28.2287 12.3009ZM28.2287 16.4991C28.2035 16.4991 28.1722 16.481 28.1502 16.4657C27.3284 15.8936 26.2594 15.6032 24.9729 15.6032H23.0314C22.7341 15.6032 22.4818 15.8209 22.4379 16.115C22.2577 17.3262 21.777 18.4869 21.0478 19.4713C20.8708 19.7101 20.8957 20.0426 21.1058 20.2529L21.4676 20.6142C22.2768 21.4233 23.3027 21.8197 24.2446 22.1247C24.3683 22.248 24.2481 22.9292 23.5887 23.589C22.9289 24.2481 22.248 24.3671 22.101 24.2001C21.8194 23.3024 21.4225 22.2759 20.6142 21.4676L20.2526 21.1061C20.0423 20.8957 19.7109 20.8708 19.4713 21.048C18.4866 21.7772 17.3262 22.2577 16.115 22.4379C15.8209 22.4818 15.6032 22.7341 15.6032 23.0314V25.8674C15.6032 26.7536 15.8933 27.5449 16.42 28.0954C16.4695 28.147 16.4988 28.1968 16.4988 28.2287C16.4988 28.4033 15.9325 28.8 15 28.8C14.0672 28.8 13.5009 28.4033 13.5009 28.2287C13.5009 28.1968 13.5302 28.147 13.5794 28.0957C14.1064 27.5455 14.3965 26.7542 14.3965 25.8674V23.0314C14.3965 22.7341 14.1788 22.4818 13.8847 22.4379C12.6738 22.2577 11.5134 21.7772 10.5287 21.048C10.4218 20.9689 10.2967 20.9303 10.1719 20.9303C10.0172 20.9303 9.86367 20.9897 9.74736 21.1061L9.2584 21.5947C8.47149 22.3813 8.00566 23.2611 7.91104 24.138C7.90547 24.1884 7.89229 24.2273 7.875 24.2449C7.83691 24.2818 7.69014 24.3129 7.44258 24.2429C7.10772 24.148 6.73154 23.9095 6.41104 23.589C5.75156 22.9295 5.63174 22.248 5.75508 22.1247C5.77236 22.1074 5.81133 22.0945 5.86143 22.089C6.73857 21.9943 7.61807 21.5285 8.40498 20.7416L8.89395 20.2526C9.1043 20.0426 9.12891 19.7101 8.95195 19.4713C8.22275 18.4872 7.74229 17.3265 7.56211 16.115C7.51816 15.8209 7.26592 15.6032 6.96855 15.6032H5.02705C3.74063 15.6032 2.67158 15.8936 1.8501 16.4654C1.83223 16.478 1.79795 16.4991 1.77129 16.4991C1.59668 16.4991 1.2 15.9328 1.2 15C1.2 14.0672 1.59668 13.5009 1.77129 13.5009C1.79795 13.5009 1.83223 13.522 1.8498 13.5343C2.67158 14.1064 3.74063 14.3968 5.02705 14.3968H6.96855C7.26592 14.3968 7.51816 14.1791 7.56211 13.885C7.74229 12.6738 8.22275 11.5134 8.95195 10.5287C9.12891 10.2896 9.104 9.95742 8.89395 9.74736L8.53242 9.38584C7.72354 8.57666 6.69697 8.18027 5.75537 7.87529C5.63174 7.75195 5.75156 7.07051 6.41104 6.41104C6.73154 6.09053 7.10772 5.85205 7.44258 5.75713C7.69131 5.68711 7.83721 5.71758 7.89873 5.7999C8.18027 6.69756 8.57725 7.72412 9.38555 8.53271L9.74736 8.89424C9.95742 9.1043 10.2899 9.12949 10.5287 8.95195C11.5134 8.22275 12.6738 7.74229 13.8847 7.56211C14.1788 7.51816 14.3965 7.26592 14.3965 6.96855V5.02705C14.3965 3.74033 14.1064 2.67129 13.5346 1.8501C13.519 1.82813 13.5009 1.79648 13.5009 1.77129C13.5009 1.59668 14.0672 1.2 15 1.2C15.9325 1.2 16.4988 1.59668 16.4988 1.77129C16.4988 1.79678 16.481 1.82783 16.4654 1.8498C15.8933 2.67188 15.6032 3.74092 15.6032 5.02705V6.96855C15.6032 7.26592 15.8209 7.51816 16.115 7.56211C17.3262 7.74229 18.4866 8.22275 19.4713 8.95195C19.7112 9.12979 20.0429 9.1043 20.2526 8.89395L20.6142 8.53242C21.4225 7.72412 21.8194 6.69756 22.1247 5.75537C22.2478 5.63086 22.9292 5.75127 23.5887 6.41104C24.2481 7.0708 24.3683 7.75195 24.1998 7.89902C23.3027 8.18027 22.2768 8.57666 21.4676 9.38555L21.1058 9.74707C20.8957 9.95742 20.8708 10.2899 21.0478 10.5287C21.777 11.5131 22.2577 12.6738 22.4379 13.885C22.4818 14.1791 22.7341 14.3968 23.0314 14.3968H24.9729C26.2594 14.3968 27.3284 14.1064 28.1505 13.534C28.1722 13.519 28.2035 13.5009 28.2287 13.5009C28.4033 13.5009 28.8 14.0672 28.8 15C28.8 15.9328 28.4033 16.4991 28.2287 16.4991Z" fill="#00A3FF"/>
<path d="M17 10.9998C17 9.89722 16.1028 9 14.9998 9C13.8972 9 13 9.89722 13 10.9998C13 12.1028 13.8972 13 14.9998 13C16.1028 13 17 12.1028 17 10.9998ZM14.3291 10.9998C14.3291 10.6299 14.6299 10.3291 14.9998 10.3291C15.3698 10.3291 15.6709 10.6299 15.6709 10.9998C15.6709 11.3698 15.3698 11.6709 14.9998 11.6709C14.6299 11.6709 14.3291 11.3698 14.3291 10.9998Z" fill="#00A3FF"/>
<path d="M10.9998 13C9.89722 13 9 13.8972 9 15.0002C9 16.1028 9.89722 17 10.9998 17C12.1028 17 13 16.1028 13 15.0002C13 13.8972 12.1028 13 10.9998 13ZM10.9998 15.6709C10.6299 15.6709 10.3291 15.3701 10.3291 15.0002C10.3291 14.6302 10.6299 14.3291 10.9998 14.3291C11.3698 14.3291 11.6709 14.6302 11.6709 15.0002C11.6709 15.3701 11.3698 15.6709 10.9998 15.6709Z" fill="#00A3FF"/>
<path d="M17.0002 15C15.8972 15 15 15.8972 15 16.9998C15 18.1028 15.8972 19 17.0002 19C18.1028 19 19 18.1028 19 16.9998C19 15.8972 18.1028 15 17.0002 15ZM17.0002 17.6709C16.6302 17.6709 16.3291 17.3698 16.3291 16.9998C16.3291 16.6299 16.6302 16.3291 17.0002 16.3291C17.3701 16.3291 17.6709 16.6299 17.6709 16.9998C17.6709 17.3698 17.3701 17.6709 17.0002 17.6709Z" fill="#00A3FF"/>
</g>
<defs>
<clipPath id="clip0_1206_1209">
<rect width="30" height="30" fill="white"/>
</clipPath>
</defs>
</svg>
