<svg width="30" height="31" viewBox="0 0 30 31" fill="none" xmlns="http://www.w3.org/2000/svg">
<path d="M15.0606 29.5807C14.942 29.5807 14.8234 29.5484 14.718 29.4845C10.7162 27.0475 6.59454 22.6444 4.49417 20.2371C3.62055 19.2356 2.86553 18.196 2.25149 17.1484C2.06767 16.8342 2.17309 16.4303 2.48669 16.2465C2.79898 16.0633 3.20351 16.1681 3.38798 16.4817C3.96051 17.4594 4.66678 18.4318 5.48638 19.3713C7.47672 21.6522 11.3158 25.7621 15.0599 28.1457C18.8034 25.7621 22.6431 21.6522 24.6328 19.3713C26.2483 17.5194 27.3979 15.5738 28.0502 13.5868C29.4034 9.46641 28.5858 6.33957 25.6191 4.29388C20.2779 0.607037 16.7538 4.50932 15.8011 5.79274C15.4546 6.26051 14.6673 6.26051 14.3201 5.79274C13.368 4.50866 9.84523 0.606378 4.50142 4.29388C1.96226 6.04573 0.997725 8.61453 1.63548 11.9278C1.704 12.2849 1.47077 12.6301 1.11302 12.6993C0.755273 12.7685 0.410702 12.5346 0.341524 12.1769C-0.393737 8.35693 0.786239 5.25644 3.75298 3.20944C9.62518 -0.841744 13.7423 3.03748 15.0606 4.60749C16.3783 3.0388 20.4953 -0.841744 26.3675 3.20944C29.8231 5.59311 30.8377 9.3241 29.3026 13.9979C28.5957 16.1536 27.3591 18.2526 25.627 20.2377C23.5266 22.6458 19.4049 27.0488 15.4032 29.4851C15.2984 29.5484 15.1792 29.5807 15.0606 29.5807Z" fill="#00A3FF"/>
<path d="M11.2575 20.7162C11.2542 20.7162 11.2503 20.7162 11.2463 20.7162C10.9439 20.7109 10.6837 20.5008 10.6151 20.2063L8.27364 10.1057L6.37356 14.6042C6.27012 14.848 6.03096 15.0067 5.76677 15.0067H0.660789C0.297112 15.0067 0.00195312 14.7116 0.00195312 14.3479C0.00195312 13.9842 0.297112 13.6891 0.660789 13.6891H5.32996L7.85001 7.72265C7.96135 7.45978 8.22818 7.29309 8.51346 7.32274C8.79807 7.34712 9.0346 7.55201 9.0985 7.8307L11.3023 17.3377L13.2347 10.1149C13.3124 9.82368 13.5562 9.62735 13.879 9.62603C14.1801 9.62932 14.4403 9.83686 14.5115 10.13L15.399 13.7984H19.6017C19.966 13.7984 20.2605 14.0936 20.2605 14.4573C20.2605 14.821 19.966 15.1161 19.6017 15.1161H14.8798C14.5754 15.1161 14.3112 14.9079 14.2394 14.6121L13.8382 12.9538L11.8926 20.228C11.8169 20.5159 11.5553 20.7162 11.2575 20.7162Z" fill="#00A3FF"/>
</svg>
