<svg width="30" height="31" viewBox="0 0 30 31" fill="none" xmlns="http://www.w3.org/2000/svg">
<g clip-path="url(#clip0_1206_1222)">
<path d="M5.25907 16.7798L0.164065 25.1123C-0.0923885 25.532 0.0396474 26.08 0.459065 26.3368C0.817118 26.5543 1.21926 26.6889 1.63606 26.7308C1.64756 26.7308 1.65756 26.7378 1.66906 26.7378H1.72356C1.79256 26.7428 1.85806 26.7533 1.93006 26.7533C2.02606 26.7533 2.12556 26.7478 2.22706 26.7378H8.49907C8.71437 26.7379 8.90553 26.6001 8.97357 26.3958L9.51957 24.7573L11.0291 28.9073C11.1008 29.1051 11.2887 29.2367 11.4991 29.2367C11.7094 29.2367 11.8973 29.1051 11.9691 28.9073L13.4786 24.7573L14.0246 26.3958C14.0926 26.6001 14.2838 26.7379 14.4991 26.7378H17.9991C18.2752 26.7378 18.4991 26.514 18.4991 26.2378C18.4991 25.9617 18.2752 25.7378 17.9991 25.7378H14.8596L13.9736 23.0793C13.9062 22.8777 13.7187 22.7407 13.5061 22.7378C13.2918 22.73 13.0979 22.8638 13.0291 23.0668L11.4991 27.2743L9.96907 23.0668C9.89783 22.8656 9.70544 22.7329 9.49207 22.7378C9.27948 22.7407 9.09194 22.8777 9.02457 23.0793L8.13857 25.7378H4.53007C4.54357 25.7278 4.55607 25.7203 4.56907 25.7103C5.954 24.5844 7.12296 23.2164 8.01907 21.6728L9.44557 19.3393C9.71392 18.9006 9.69423 18.344 9.39557 17.9253L10.2456 16.5323C10.2691 16.5323 10.2921 16.5373 10.3156 16.5373C10.8376 16.538 11.3224 16.2672 11.5956 15.8223L18.2771 5.02983V5.02733C18.7091 4.32066 18.4866 3.39756 17.7801 2.96533L16.1531 1.97033C15.4472 1.53894 14.5254 1.7604 14.0926 2.46533L7.41107 13.2603C7.11919 13.725 7.11301 14.3142 7.39507 14.7848L6.54107 16.1808C6.0323 16.1055 5.52771 16.3413 5.25907 16.7798ZM8.59207 18.8178L7.16557 21.1498C6.3358 22.5857 5.25302 23.8596 3.96956 24.9098C3.44225 25.3488 2.80492 25.6351 2.12656 25.7378H1.70206C1.48266 25.7105 1.27024 25.6427 1.07556 25.5378L6.11207 17.2998C6.19429 17.1686 6.36676 17.1278 6.49907 17.2083L8.49907 18.4308C8.63159 18.512 8.67322 18.6853 8.59207 18.8178ZM8.14857 15.4678L9.29506 16.1678L8.59507 17.3148L7.44807 16.6148L8.14857 15.4678ZM8.26257 13.7828L14.9456 2.98933C15.0147 2.87612 15.126 2.79503 15.2549 2.7639C15.3839 2.73277 15.5199 2.75414 15.6331 2.82333L17.2596 3.81833C17.4946 3.96208 17.569 4.26884 17.4261 4.50433L10.7441 15.2998C10.6001 15.5353 10.2926 15.6096 10.0571 15.4658L8.43007 14.4708C8.19531 14.3274 8.12046 14.0214 8.26257 13.7858V13.7828Z" fill="#00A3FF"/>
<path d="M25.5 12.2383C23.9789 12.2405 22.5283 12.8795 21.5 14.0003C20.4713 12.8804 19.0207 12.2423 17.5 12.2408C14.9765 12.2408 13 14.4298 13 17.2238C13 20.3668 15.613 23.4343 20.9885 26.6018C21.3042 26.7881 21.6963 26.7881 22.012 26.6018C27.387 23.4318 30 20.3643 30 17.2213C30 14.4273 28.0235 12.2383 25.5 12.2383ZM21.496 25.7383C16.45 22.7653 14 19.9793 14 17.2213C14 14.9503 15.5045 13.2383 17.5 13.2383C18.9161 13.2434 20.2457 13.9203 21.083 15.0623C21.1755 15.2017 21.3317 15.2856 21.499 15.2858C21.6665 15.2858 21.8229 15.2018 21.9155 15.0623C22.7531 13.9199 24.0834 13.2429 25.5 13.2383C27.4955 13.2383 29 14.9503 29 17.2213C29 19.9793 26.55 22.7653 21.496 25.7378V25.7383Z" fill="#00A3FF"/>
<path d="M17.5 14.2383C15.876 14.2383 15 15.7753 15 17.2213C15 17.4974 15.2239 17.7213 15.5 17.7213C15.7761 17.7213 16 17.4974 16 17.2213C16 16.2598 16.5255 15.2383 17.5 15.2383C17.7761 15.2383 18 15.0144 18 14.7383C18 14.4621 17.7761 14.2383 17.5 14.2383Z" fill="#00A3FF"/>
</g>
<defs>
<clipPath id="clip0_1206_1222">
<rect width="30" height="30" fill="white" transform="translate(0 0.5)"/>
</clipPath>
</defs>
</svg>
