<svg width="30" height="30" viewBox="0 0 30 30" fill="none" xmlns="http://www.w3.org/2000/svg">
<path d="M11.0549 16C10.2721 16 9.4897 15.7026 8.89361 15.1072C7.70213 13.9143 7.70213 11.9752 8.89361 10.7839L11.3383 8.33899C11.4796 8.19802 11.6704 8.11857 11.8703 8.11857C12.0697 8.11857 12.2611 8.19802 12.4026 8.33899L15.1284 11.0664L17.0399 9.15379C17.3338 8.86019 17.4951 8.47064 17.4951 8.05615C17.4951 7.64167 17.3338 7.25212 17.0403 6.95942C16.4539 6.37258 15.4315 6.37312 14.8456 6.95906L13.7477 8.05669C13.454 8.35047 12.9772 8.35047 12.6841 8.05669C12.3904 7.76273 12.3904 7.28638 12.6841 6.9926L13.782 5.89497C14.3589 5.31799 15.1263 5 15.9429 5C16.7596 5 17.5273 5.31799 18.1042 5.89532C18.6817 6.47248 19 7.23992 19 8.05669C19 8.87346 18.6819 9.64073 18.1042 10.2182L15.6621 12.6615C15.6617 12.6619 15.661 12.6624 15.6605 12.6632L13.216 15.1068C12.6203 15.7026 11.8377 16 11.0549 16ZM11.87 9.93504L9.95758 11.8476C9.35287 12.4524 9.35287 13.4371 9.95794 14.0431C10.5626 14.647 11.5472 14.647 12.1522 14.0422L14.0646 12.1303L11.87 9.93504Z" fill="#00A3FF"/>
<path d="M6.47193 4.45854C8.71972 2.22828 11.7083 1 14.887 1C18.0659 1 21.0544 2.22828 23.3021 4.45854C25.5267 6.66583 26.7621 9.59276 26.7873 12.7104L28.9529 17.008C29.0497 17.2 28.995 17.4337 28.8094 17.5441L26.8153 18.7395V25.0821C26.8153 25.3091 26.6022 25.5205 26.3735 25.5205H22.3974V28.589C22.3974 28.816 22.2119 29 21.9832 29C21.7544 29 21.569 28.816 21.569 28.589V25.0821C21.569 24.8552 21.7268 24.6986 21.9556 24.6986H25.987V18.5068C25.987 18.3625 26.0495 18.2287 26.1743 18.1544L28.0475 17.0351L26.0066 12.992C25.9778 12.9349 25.9611 12.872 25.9611 12.8082C25.9612 6.75033 20.9933 1.8219 14.8879 1.8219C8.78245 1.8219 3.81506 6.75033 3.81506 12.8082C3.81506 16.2123 5.38091 19.3687 8.08743 21.4682C8.18785 21.5461 8.26011 21.6655 8.26011 21.792V28.589C8.26011 28.8159 8.07465 28.9999 7.84591 28.9999C7.61718 28.9999 7.43172 28.8159 7.43172 28.589V21.9903C4.61529 19.7347 3 16.3998 3 12.8082C3.00011 9.65412 4.22424 6.6888 6.47193 4.45854Z" fill="#00A3FF" stroke="#00A3FF"/>
</svg>
