<svg width="30" height="30" viewBox="0 0 30 30" fill="none" xmlns="http://www.w3.org/2000/svg">
<g clip-path="url(#clip0_647_27067)">
<path d="M15 17.6367C16.4539 17.6367 17.6367 16.4539 17.6367 15C17.6367 13.5461 16.4539 12.3633 15 12.3633C13.5461 12.3633 12.3633 13.5461 12.3633 15C12.3633 16.4539 13.5461 17.6367 15 17.6367ZM15 13.2422C15.9693 13.2422 16.7578 14.0307 16.7578 15C16.7578 15.9693 15.9693 16.7578 15 16.7578C14.0307 16.7578 13.2422 15.9693 13.2422 15C13.2422 14.0307 14.0307 13.2422 15 13.2422Z" fill="#00A3FF"/>
<path d="M29.5605 16.3184C29.0863 16.3184 28.6272 16.1793 28.2327 15.9163L27.0235 15.1102C26.9652 15.0714 26.9057 15.0349 26.8454 15C26.9057 14.9651 26.9652 14.9286 27.0235 14.8898L28.2327 14.0837C28.6272 13.8207 29.0863 13.6816 29.5605 13.6816C29.8033 13.6816 30 13.4849 30 13.2422C30 12.9994 29.8033 12.8027 29.5605 12.8027C28.9123 12.8027 28.2846 12.9928 27.7452 13.3524L26.536 14.1585C26.1414 14.4215 25.6823 14.5605 25.2081 14.5605H24.1144C22.7604 14.5605 21.5507 13.7522 21.0324 12.5013C20.5143 11.2503 20.7981 9.8233 21.7556 8.86588L22.529 8.0925C22.8643 7.75717 23.2872 7.53082 23.7522 7.43783L25.1771 7.15283C25.8129 7.02568 26.3912 6.71619 26.8496 6.25787C27.0212 6.08619 27.0212 5.80799 26.8496 5.63637C26.6779 5.4648 26.3997 5.4648 26.2281 5.63637C25.8928 5.9717 25.4698 6.19805 25.0048 6.29103L23.5799 6.57604C23.5112 6.58975 23.4433 6.60603 23.376 6.62402C23.394 6.55676 23.4103 6.48885 23.424 6.42018L23.709 4.99523C23.802 4.53023 24.0284 4.10725 24.3637 3.77197C24.5353 3.60029 24.5353 3.32209 24.3637 3.15047C24.192 2.97891 23.9138 2.97891 23.7422 3.15047C23.2839 3.60885 22.9744 4.18717 22.8472 4.82291L22.5622 6.24785C22.4692 6.71285 22.2429 7.13578 21.9076 7.47105L21.1342 8.24443C20.1767 9.20191 18.7498 9.4858 17.4988 8.96766C16.2478 8.44939 15.4395 7.23973 15.4395 5.88568V4.79185C15.4395 4.31771 15.5786 3.85857 15.8415 3.464L16.6477 2.2548C17.0072 1.71545 17.1973 1.08768 17.1973 0.439453C17.1973 0.196699 17.0006 0 16.7579 0C16.5151 0 16.3184 0.196699 16.3184 0.439453C16.3184 0.913652 16.1794 1.37279 15.9164 1.7673L15.1103 2.9765C15.0714 3.0348 15.0349 3.09434 15.0001 3.15457C14.9652 3.09428 14.9287 3.0348 14.8898 2.9765L14.0837 1.7673C13.8207 1.37279 13.6816 0.913652 13.6816 0.439453C13.6816 0.196699 13.4849 0 13.2422 0C12.9994 0 12.8027 0.196699 12.8027 0.439453C12.8027 1.08768 12.9928 1.71545 13.3524 2.2548L14.1585 3.464C14.4215 3.85857 14.5605 4.31771 14.5605 4.79185V5.88562C14.5605 7.23961 13.7522 8.44934 12.5013 8.9676C11.2504 9.48562 9.82336 9.20185 8.86588 8.24437L8.0925 7.471C7.75717 7.13572 7.53082 6.71279 7.43783 6.24779L7.15283 4.82285C7.02568 4.18711 6.71619 3.60879 6.25787 3.15041C6.08619 2.97885 5.80799 2.97885 5.63637 3.15041C5.46475 3.32209 5.46475 3.60029 5.63637 3.77191C5.9717 4.10719 6.19805 4.53018 6.29104 4.99518L6.57604 6.42012C6.58975 6.48879 6.60604 6.5567 6.62402 6.62396C6.55676 6.60603 6.48885 6.58975 6.42018 6.57598L4.99523 6.29098C4.53023 6.19799 4.10725 5.97164 3.77197 5.63631C3.60029 5.46475 3.32209 5.46475 3.15047 5.63631C2.97885 5.80799 2.97885 6.08619 3.15047 6.25781C3.60885 6.71613 4.18717 7.02562 4.82291 7.15277L6.24785 7.43777C6.71285 7.53076 7.13578 7.75711 7.47105 8.09244L8.24443 8.86582C9.20191 9.82324 9.4858 11.2502 8.96766 12.5012C8.4494 13.7522 7.23973 14.5605 5.88568 14.5605H4.79186C4.31771 14.5605 3.85857 14.4214 3.464 14.1585L2.2548 13.3523C1.71545 12.9928 1.08768 12.8027 0.439453 12.8027C0.196699 12.8027 0 12.9994 0 13.2422C0 13.4849 0.196699 13.6816 0.439453 13.6816C0.913652 13.6816 1.37279 13.8207 1.7673 14.0837L2.9765 14.8898C3.0348 14.9286 3.09434 14.9651 3.15457 15C3.09428 15.0349 3.0348 15.0714 2.9765 15.1102L1.7673 15.9163C1.37279 16.1793 0.913652 16.3184 0.439453 16.3184C0.196699 16.3184 0 16.5151 0 16.7578C0 17.0006 0.196699 17.1973 0.439453 17.1973C1.08768 17.1973 1.71545 17.0072 2.2548 16.6476L3.464 15.8415C3.85857 15.5785 4.31771 15.4395 4.79186 15.4395H5.88562C7.23961 15.4395 8.44934 16.2478 8.9676 17.4987C9.48574 18.7497 9.20185 20.1767 8.24437 21.1341L7.471 21.9075C7.13572 22.2428 6.71279 22.4692 6.24779 22.5622L4.82285 22.8472C4.18711 22.9743 3.60879 23.2838 3.15041 23.7421C2.97879 23.9138 2.97879 24.192 3.15041 24.3636C3.23625 24.4494 3.34875 24.4923 3.46119 24.4923C3.57363 24.4923 3.68613 24.4494 3.77197 24.3636C4.10725 24.0283 4.53023 23.802 4.99523 23.709L6.42018 23.424C6.48885 23.4103 6.55676 23.394 6.62402 23.376C6.60609 23.4432 6.5898 23.5112 6.57604 23.5798L6.29104 25.0048C6.19805 25.4698 5.9717 25.8928 5.63637 26.228C5.46475 26.3997 5.46475 26.6779 5.63637 26.8495C5.72221 26.9353 5.83471 26.9782 5.94715 26.9782C6.05959 26.9782 6.17209 26.9353 6.25793 26.8495C6.71625 26.3911 7.02574 25.8128 7.15289 25.1771L7.43789 23.7521C7.53088 23.2871 7.75723 22.8642 8.09256 22.5289L8.86594 21.7556C9.82342 20.7981 11.2503 20.5143 12.5013 21.0323C13.7523 21.5506 14.5606 22.7603 14.5606 24.1143V25.2081C14.5606 25.6822 14.4216 26.1414 14.1586 26.5359L13.3525 27.7451C12.9929 28.2845 12.8028 28.9123 12.8028 29.5605C12.8028 29.8032 12.9995 29.9999 13.2422 29.9999C13.485 29.9999 13.6817 29.8032 13.6817 29.5605C13.6817 29.0863 13.8207 28.6271 14.0837 28.2326L14.8898 27.0234C14.9287 26.9651 14.9652 26.9056 15.0001 26.8454C15.0349 26.9057 15.0714 26.9651 15.1103 27.0234L15.9164 28.2326C16.1794 28.6271 16.3184 29.0863 16.3184 29.5605C16.3184 29.8032 16.5151 29.9999 16.7579 29.9999C17.0006 29.9999 17.1973 29.8032 17.1973 29.5605C17.1973 28.9123 17.0072 28.2845 16.6477 27.7451L15.8415 26.5359C15.5786 26.1414 15.4395 25.6822 15.4395 25.2081V24.1143C15.4395 22.7603 16.2478 21.5506 17.4988 21.0323C18.7496 20.5143 20.1767 20.7981 21.1342 21.7556L21.9076 22.5289C22.2429 22.8642 22.4692 23.2871 22.5622 23.7521L22.8472 25.1771C22.9744 25.8128 23.2839 26.3911 23.7422 26.8495C23.828 26.9353 23.9405 26.9782 24.053 26.9782C24.1654 26.9782 24.2779 26.9353 24.3638 26.8495C24.5354 26.6778 24.5354 26.3996 24.3638 26.228C24.0284 25.8928 23.8021 25.4698 23.7091 25.0048L23.4241 23.5798C23.4104 23.5112 23.3941 23.4432 23.3761 23.376C23.4434 23.3939 23.5113 23.4102 23.5799 23.424L25.0049 23.709C25.4699 23.802 25.8929 24.0283 26.2281 24.3636C26.3998 24.5352 26.678 24.5352 26.8496 24.3636C27.0213 24.192 27.0213 23.9137 26.8496 23.7421C26.3913 23.2838 25.813 22.9743 25.1772 22.8472L23.7523 22.5622C23.2873 22.4692 22.8643 22.2428 22.5291 21.9075L21.7557 21.1341C20.7982 20.1767 20.5143 18.7497 21.0325 17.4987C21.5507 16.2478 22.7604 15.4395 24.1144 15.4395H25.2082C25.6823 15.4395 26.1415 15.5785 26.5361 15.8415L27.7453 16.6476C28.2846 17.0072 28.9124 17.1973 29.5606 17.1973C29.8034 17.1973 30.0001 17.0006 30.0001 16.7578C30.0001 16.5151 29.8033 16.3184 29.5605 16.3184ZM20.2205 17.1623C19.8212 18.1263 19.7995 19.1728 20.1172 20.1172C19.1728 19.7995 18.1263 19.8212 17.1624 20.2205C16.1984 20.6198 15.4431 21.3444 15.0001 22.2369C14.557 21.3444 13.8016 20.6198 12.8377 20.2205C11.8738 19.8212 10.8273 19.7994 9.88289 20.1172C10.2006 19.1728 10.1789 18.1263 9.77965 17.1623C9.38033 16.1984 8.6557 15.4431 7.76326 15C8.6557 14.5569 9.38033 13.8016 9.77965 12.8377C10.179 11.8735 10.2006 10.8268 9.88271 9.8823C10.3133 10.0272 10.7649 10.1025 11.2205 10.1025C11.7642 10.1025 12.3132 9.9968 12.8378 9.77953C13.8018 9.38021 14.557 8.65559 15.0001 7.76314C15.4432 8.65559 16.1985 9.38021 17.1625 9.77953C17.6871 9.99685 18.2358 10.1025 18.7797 10.1025C19.2353 10.1024 19.6869 10.0271 20.1175 9.88219C19.7995 10.8267 19.8212 11.8734 20.2206 12.8376C20.6199 13.8016 21.3445 14.5569 22.237 14.9999C21.3444 15.4431 20.6198 16.1984 20.2205 17.1623Z" fill="#00A3FF"/>
<path d="M15 10.6055C14.1705 10.6055 13.3616 10.8388 12.6608 11.2804C12.4554 11.4097 12.3939 11.6811 12.5232 11.8864C12.6526 12.0918 12.9241 12.1534 13.1293 12.024C13.6897 11.671 14.3365 11.4844 15 11.4844C16.9385 11.4844 18.5156 13.0615 18.5156 15C18.5156 16.9385 16.9385 18.5156 15 18.5156C13.0615 18.5156 11.4844 16.9385 11.4844 15C11.4844 14.3365 11.671 13.6897 12.024 13.1293C12.1533 12.924 12.0918 12.6526 11.8864 12.5232C11.681 12.3939 11.4097 12.4554 11.2803 12.6608C10.8388 13.3616 10.6055 14.1705 10.6055 15C10.6055 17.4231 12.5769 19.3945 15 19.3945C17.4231 19.3945 19.3945 17.4231 19.3945 15C19.3945 12.5769 17.4231 10.6055 15 10.6055Z" fill="#00A3FF"/>
</g>
<defs>
<clipPath id="clip0_647_27067">
<rect width="30" height="30" fill="white"/>
</clipPath>
</defs>
</svg>
