<svg width="30" height="30" viewBox="0 0 30 30" fill="none" xmlns="http://www.w3.org/2000/svg">
<path d="M2.7835 19.1094C2.79311 19.1165 2.80143 19.125 2.81114 19.132C2.40528 20.7667 3.38285 22.4358 4.9694 22.9221C4.98999 24.6099 6.36731 25.954 8.02073 25.9684C8.29076 27.4224 9.5707 28.5272 11.1044 28.5272C11.9941 28.5272 12.8343 28.1386 13.4205 27.4913C14.007 28.1383 14.8475 28.5272 15.7369 28.5272C17.2597 28.5272 18.5325 27.4379 18.8144 25.9684C18.833 25.9682 18.8501 25.963 18.8686 25.9625C20.5108 25.9218 21.8155 24.6101 21.8689 22.9856C21.8696 22.9636 21.8758 22.9431 21.8761 22.921C23.1703 22.5227 24.1202 21.3002 24.1202 19.8843C24.1202 19.8821 24.119 19.8803 24.1189 19.8782C24.1184 19.6195 24.089 19.37 24.0301 19.132C24.0387 19.1258 24.046 19.1183 24.0546 19.112C25.9129 17.7356 25.8562 14.977 24.0276 13.6692C24.0656 13.5152 24.1169 13.1774 24.1183 12.9372C24.1183 12.9305 24.1202 12.9244 24.1202 12.9177C24.1202 12.6051 23.8667 12.3517 23.5542 12.3517C23.2381 12.3517 22.9873 12.6099 22.9873 12.9197C22.9873 13.1847 22.9328 13.4531 22.8298 13.6955C22.8282 13.6992 22.8288 13.7032 22.8273 13.707C22.5287 14.4124 21.8424 14.9146 21.0222 14.9467C20.7099 14.9588 20.4667 15.2219 20.4788 15.5343C20.4907 15.8391 20.7414 16.0782 21.044 16.0782C21.0512 16.0782 21.0589 16.0782 21.0664 16.0776C22.099 16.0375 22.9903 15.5118 23.5403 14.731C23.7607 14.9251 23.9376 15.1596 24.0652 15.4212C24.0658 15.4225 24.0656 15.424 24.0663 15.4254C24.804 16.9371 23.6462 18.6461 22.0465 18.6461C21.9133 18.6461 21.7784 18.6331 21.6349 18.6063C21.3268 18.5474 21.0321 18.7517 20.9746 19.0587C20.9172 19.3661 21.1198 19.6618 21.4271 19.719C21.6371 19.7583 21.8455 19.7782 22.0465 19.7782C22.365 19.7782 22.6721 19.7309 22.9646 19.6483C22.9735 19.7267 22.9873 19.8029 22.9873 19.8851C22.9873 21.0328 22.031 21.9293 20.9431 21.9293C19.8188 21.9293 18.9042 21.0119 18.9042 19.8843C18.9042 19.5717 18.6508 19.3183 18.3382 19.3183C18.0256 19.3183 17.7722 19.5717 17.7722 19.8843C17.7722 21.5623 19.0784 22.9372 20.7251 23.0503C20.6393 24.0469 19.8103 24.8344 18.7918 24.8344C17.7197 24.8344 16.8474 23.9596 16.8474 22.8842C16.8474 22.5716 16.5939 22.3181 16.2813 22.3181C15.9688 22.3181 15.7153 22.5716 15.7153 22.8842C15.7153 24.1995 16.5434 25.3219 17.7035 25.7636C17.5299 26.6905 16.7159 27.3951 15.7369 27.3951C15.0098 27.3951 14.3369 26.9823 13.9868 26.3393V19.4819C14.4506 19.1565 15.0956 19.1982 15.5097 19.6123C15.7308 19.8334 16.089 19.8334 16.3101 19.6123C16.5312 19.3912 16.5312 19.033 16.3101 18.8119C15.6816 18.1835 14.7824 18.0017 13.9868 18.2457V12.9981C13.9874 12.9876 13.9929 12.9787 13.9929 12.968C13.9929 12.9573 13.9874 12.9485 13.9868 12.9379V11.8211C14.5083 12.0424 14.8751 12.5595 14.8751 13.1607C14.8751 13.4733 15.1285 13.7267 15.4411 13.7267C15.7537 13.7267 16.0072 13.4733 16.0072 13.1607C16.0072 11.9295 15.1408 10.9005 13.9868 10.641V6.46491C14.3357 5.81869 15.0088 5.40418 15.7369 5.40418C16.8419 5.40418 17.7407 6.30298 17.7407 7.45302C17.7407 7.76562 17.9941 7.9964 18.3067 7.9964C18.6193 7.9964 18.8727 7.72057 18.8727 7.40797C18.8727 5.6789 17.4659 4.2721 15.7369 4.2721C14.8466 4.2721 14.0064 4.66153 13.4205 5.31021C12.8357 4.66281 11.9971 4.27348 11.1084 4.27231C11.1061 4.27227 11.1042 4.271 11.1019 4.271C9.60835 4.271 8.2953 5.34931 8.02184 6.83219C8.0216 6.83354 8.02098 6.83478 8.02073 6.83613C6.46773 6.85045 5.00288 8.13713 4.97213 9.86328C4.97203 9.86805 4.97061 9.87243 4.97054 9.8772C3.42083 10.3471 2.4063 12.0135 2.81363 13.6709C0.976861 14.9926 0.932544 17.7348 2.7835 19.1094ZM5.7751 16.0776C5.78256 16.0782 5.79003 16.0782 5.79748 16.0782C6.10013 16.0782 6.35081 15.8391 6.3627 15.5343C6.37486 15.2219 6.13164 14.9588 5.81932 14.9467C3.56852 14.8587 3.15552 11.7726 5.17545 11.01C5.52653 11.9243 6.30217 12.6436 7.30268 12.8942C7.34884 12.9056 7.39527 12.9111 7.44088 12.9111C7.69432 12.9111 7.9251 12.7397 7.9895 12.4827C8.06523 12.1792 7.88116 11.8719 7.57796 11.7959C5.61424 11.3046 5.6325 8.52372 7.57852 8.03399C7.58138 8.03326 7.58335 8.03105 7.58622 8.03029C7.72683 7.99553 7.87176 7.97311 8.02243 7.97097C8.29228 9.42669 9.56918 10.5333 11.1019 10.5333C11.4145 10.5333 11.6679 10.2799 11.6679 9.9673C11.6679 9.65471 11.4145 9.40127 11.1019 9.40127C9.998 9.40127 9.09974 8.50301 9.09974 7.39913C9.09974 6.34333 9.97518 5.40418 11.1044 5.40418C11.8331 5.40418 12.5062 5.81903 12.8547 6.46557V12.4707C11.7038 12.7324 10.8404 13.7595 10.8404 14.9887C10.8404 15.3013 11.0939 15.5547 11.4065 15.5547C11.719 15.5547 11.9725 15.3013 11.9725 14.9887C11.9725 14.3898 12.3366 13.8749 12.8547 13.6521V18.9523C12.3918 19.268 11.7543 19.2222 11.344 18.8119C11.1229 18.5908 10.7647 18.5908 10.5436 18.8119C10.3225 19.033 10.3225 19.3912 10.5436 19.6123C10.9963 20.0651 11.5908 20.2914 12.1853 20.2914C12.4119 20.2914 12.636 20.2479 12.8547 20.1822V26.3379C12.5051 26.9817 11.832 27.3951 11.1044 27.3951C10.126 27.3951 9.31436 26.6908 9.14003 25.7628C10.2991 25.3206 11.1262 24.1987 11.1262 22.8842C11.1262 22.5716 10.8728 22.3181 10.5602 22.3181C10.2476 22.3181 9.99413 22.5716 9.99413 22.8842C9.99413 23.9596 9.12185 24.8344 8.04975 24.8344C7.05788 24.8344 6.20752 24.0756 6.11917 23.0501C7.76456 22.9357 9.06934 21.5614 9.06934 19.8843C9.06934 19.5717 8.8159 19.3183 8.5033 19.3183C8.19071 19.3183 7.93727 19.5717 7.93727 19.8843C7.93727 21.0119 7.02271 21.9293 5.89837 21.9293C4.77825 21.9293 3.72716 20.9522 3.8765 19.6482C4.4003 19.7962 4.90285 19.8145 5.41414 19.719C5.72148 19.6618 5.92435 19.3664 5.86686 19.059C5.80965 18.7517 5.51253 18.5469 5.20685 18.6063C3.81987 18.8645 2.54664 17.7808 2.54664 16.4043C2.54664 15.8158 2.79594 15.1801 3.30245 14.7325C3.85256 15.5125 4.74322 16.0375 5.7751 16.0776Z" fill="#00A3FF"/>
<path d="M8.04699 17.1891C7.7344 17.1891 7.48096 17.4425 7.48096 17.7551C7.48096 18.0677 7.7344 18.3212 8.04699 18.3212C9.2501 18.3212 10.2288 17.3422 10.2288 16.1391C10.2288 14.936 9.2501 13.957 8.04699 13.957C7.7344 13.957 7.48096 14.2105 7.48096 14.5231C7.48096 14.8357 7.7344 15.0891 8.04699 15.0891C8.62575 15.0891 9.09671 15.5601 9.09671 16.1391C9.09671 16.7181 8.62575 17.1891 8.04699 17.1891Z" fill="#00A3FF"/>
<path d="M28.0181 1.47266C27.0016 1.47266 26.0536 1.97457 25.482 2.81561L24.6134 4.09386L24.4992 4.01623C24.1808 3.79955 23.7977 3.7205 23.4185 3.79236C23.0404 3.8645 22.7129 4.0798 22.4965 4.3982C17.914 11.141 19.3885 8.97132 19.0193 9.51465C18.8767 9.72498 18.7788 9.9577 18.7285 10.2064L18.5583 11.0461C18.4564 11.5495 18.6122 12.0572 18.9558 12.4188L16.3685 16.2258C16.1927 16.4843 16.2599 16.8364 16.5186 17.0122C16.7766 17.1874 17.1289 17.1212 17.3049 16.8621L19.8921 13.0551C20.0772 13.1297 20.2721 13.1712 20.4684 13.1712C20.7622 13.1712 21.0565 13.0872 21.3147 12.9192L22.033 12.4518C22.2458 12.3133 22.4263 12.1364 22.5695 11.9258C22.9391 11.382 21.4633 13.5536 26.0458 6.81022C26.4925 6.15269 26.3211 5.25444 25.6639 4.8078L25.5497 4.73021L26.4184 3.45185C26.7788 2.92147 27.3769 2.60473 28.0181 2.60473C28.3307 2.60473 28.5842 2.35129 28.5842 2.03869C28.5842 1.7261 28.3307 1.47266 28.0181 1.47266ZM23.4329 5.03444C23.4793 4.96617 23.5495 4.92001 23.6308 4.90454C23.7118 4.88795 23.7944 4.90619 23.8627 4.95263L25.0276 5.7442C25.1694 5.84064 25.2054 6.03298 25.1095 6.17398L24.4611 7.1283C24.3589 7.05887 22.684 5.92048 22.7845 5.9888L23.4329 5.03444ZM21.6334 11.2893C21.575 11.375 21.5015 11.4469 21.4153 11.5032L20.6972 11.9703C20.5549 12.0626 20.3728 12.0604 20.2326 11.9656C20.2012 11.9443 19.8644 11.7155 19.8429 11.7009C19.7028 11.6058 19.6343 11.4369 19.6677 11.2711L19.838 10.4314C19.8584 10.3303 19.8985 10.2355 19.9562 10.1501L22.1482 6.92523C22.2504 6.99466 23.9253 8.13305 23.8248 8.06473L21.6334 11.2893Z" fill="#00A3FF"/>
</svg>
