<svg width="30" height="30" viewBox="0 0 30 30" fill="none" xmlns="http://www.w3.org/2000/svg">
<path d="M11.6117 12.6841C12.6255 12.3434 13.3733 11.2716 13.3733 9.99055V9.45424C13.3733 9.22669 13.1888 9.04227 12.9614 9.04227C12.7337 9.04227 12.5493 9.22669 12.5493 9.45424V9.99055C12.5493 11.0894 11.8267 11.9832 10.9383 11.9832H10.3665C10.3249 11.8851 10.2949 11.7815 10.239 11.6906C10.0724 11.4208 10.0686 11.0981 10.2291 10.8486C12.804 6.84608 8.59989 2.59476 4.78376 4.47218C4.57943 4.57253 4.49536 4.81945 4.59593 5.02367C4.69617 5.2279 4.94331 5.31208 5.14743 5.21128C8.2008 3.70974 11.6743 7.08837 9.53651 10.4026C9.20267 10.9213 9.20322 11.5808 9.53761 12.1233C9.80379 12.5546 9.80588 13.1343 9.53794 13.5693C9.22049 14.0841 9.17516 14.7453 9.57767 15.3534C10.1007 16.149 10.2887 17.1417 10.0938 18.0776C9.4618 21.1117 5.48865 21.8427 3.78288 19.2841C1.03981 15.1699 0.96378 10.6432 3.78145 6.41067C3.90755 6.22108 3.85628 5.96535 3.66701 5.83936C3.47753 5.71315 3.2217 5.76465 3.09571 5.95402C0.179229 10.3345 0.083608 15.2212 3.09736 19.7412C5.20498 22.9025 10.1197 21.9946 10.9003 18.2458C11.1322 17.1314 10.9432 15.9517 10.2335 14.8509C10.0701 14.5981 10.0721 14.2725 10.2391 14.0017C10.3456 13.8287 10.4263 13.6412 10.4805 13.4448H10.9896C12.3919 13.4448 13.5326 14.5855 13.5326 15.9879V25.0634C13.5326 25.2909 13.717 25.4754 13.9446 25.4754C14.1721 25.4754 14.3566 25.2909 14.3566 25.0634V15.9879C14.3566 14.3443 13.1712 12.977 11.6117 12.6841Z" fill="#00A3FF" stroke="#00A3FF" stroke-width="0.5"/>
<path d="M26.7746 5.95421C26.6484 5.76484 26.3926 5.71334 26.2033 5.83955C26.0139 5.96576 25.9625 6.22127 26.0887 6.41086C28.8345 10.5353 28.9023 15.0623 26.0873 19.2843C25.4363 20.2607 24.3463 20.8436 23.1709 20.8436C20.4377 20.8436 18.7017 17.8186 20.3287 15.2983C20.6662 14.7758 20.6677 14.1134 20.3323 13.5695C20.0658 13.1371 20.0651 12.5574 20.3326 12.1234C20.6671 11.581 20.6676 10.9215 20.3337 10.4025C18.2133 7.11728 21.6405 3.69552 24.7227 5.21147C24.927 5.31227 25.174 5.22765 25.2742 5.02386C25.3749 4.81964 25.2907 4.57272 25.0865 4.47237C21.2715 2.59583 17.0646 6.84616 19.6408 10.8485C19.8015 11.0982 19.7978 11.421 19.6312 11.6908C19.5753 11.7817 19.5454 11.8853 19.5038 11.9834H18.9318C18.0434 11.9834 17.3208 11.0896 17.3208 9.99074V9.45443C17.3208 9.22688 17.1366 9.04246 16.9088 9.04246C16.6813 9.04246 16.4967 9.22688 16.4967 9.45443V9.99074C16.4967 11.2718 17.2447 12.3436 18.2585 12.6843C16.699 12.9772 15.5137 14.3445 15.5137 15.9881V25.0636C15.5137 25.2911 15.6981 25.4756 15.9256 25.4756C16.1533 25.4756 16.3376 25.2911 16.3376 25.0636V15.9881C16.3376 14.5859 17.4782 13.445 18.8805 13.445H19.3897C19.444 13.6414 19.5246 13.8292 19.6311 14.0019C19.7938 14.2657 19.8153 14.582 19.6041 14.9013C17.73 17.7519 19.655 21.6677 23.1709 21.6677C24.6224 21.6677 25.9689 20.9475 26.7729 19.7415C29.6924 15.3624 29.7851 10.4763 26.7746 5.95421Z" fill="#00A3FF" stroke="#00A3FF" stroke-width="0.5"/>
</svg>
