<svg width="30" height="30" viewBox="0 0 30 30" fill="none" xmlns="http://www.w3.org/2000/svg">
<g clip-path="url(#clip0_647_27087)">
<path d="M24.649 24.0186C22.5885 21.7771 20.7867 19.7579 19.221 17.9336C21.8416 14.3791 23.045 12.0749 23.0071 10.6857C22.9246 7.66646 21.9124 4.80141 20.0801 2.39994C20.0721 2.38893 20.0637 2.37838 20.0548 2.36824C18.8013 0.863086 16.9596 0 15.0003 0C13.041 0 11.1993 0.863144 9.94577 2.36836C9.93692 2.3785 9.92854 2.38904 9.92051 2.40006C8.08817 4.80158 7.07602 7.66664 6.99352 10.6858C6.95221 12.1973 8.44161 14.7544 10.6786 17.7963C10.4301 18.0987 10.1988 18.3807 9.98186 18.6452C8.37253 20.6073 7.48606 21.6882 5.35067 24.0186C5.20553 24.177 5.18667 24.4138 5.30491 24.5933L8.73012 29.7894C8.81327 29.9155 8.95225 29.9938 9.10325 29.9998C9.10934 30 9.11544 30.0001 9.12153 30.0001C9.26585 30.0001 9.40261 29.9335 9.49161 29.819C9.99153 29.1758 10.8644 28.152 11.9696 26.8559C12.8899 25.7765 13.9258 24.5615 15.0032 23.2647C15.986 24.4489 17.0061 25.6536 18.0309 26.8556C19.1361 28.1518 20.0091 29.1758 20.5091 29.819C20.5981 29.9335 20.7348 30.0001 20.8791 30.0001C20.8852 30.0001 20.8913 30 20.8974 29.9998C21.0484 29.9938 21.1873 29.9155 21.2705 29.7894L24.6953 24.5939C24.8137 24.4141 24.7947 24.177 24.649 24.0186ZM20.2707 4.36699C21.3911 6.29104 22.0083 8.45514 22.07 10.7113C22.0911 11.4832 21.4992 13.235 18.596 17.2008C17.3879 15.7758 16.3307 14.4742 15.4128 13.2824C17.33 10.6728 18.7018 8.46744 19.4903 6.72709C19.8959 5.83195 20.1556 5.0482 20.2707 4.36699ZM14.8211 12.5037C13.9557 11.3483 13.2298 10.3011 12.6315 9.34834C12.3126 8.84057 12.0312 8.36051 11.785 7.90541C12.7249 7.25432 13.8544 6.89777 15.0004 6.89777C16.0438 6.89777 17.0529 7.18318 17.9381 7.72418C17.2344 9.00229 16.229 10.5728 14.8211 12.5037ZM10.7051 2.92207C11.779 1.6599 13.3404 0.9375 15.0003 0.9375C16.6595 0.9375 18.2203 1.6592 19.2941 2.92037C19.5323 3.56221 19.4453 4.73895 18.3745 6.89262C17.3546 6.28207 16.1968 5.96033 15.0002 5.96033C13.7067 5.96033 12.4307 6.34963 11.3562 7.06324C10.5118 5.27912 10.3052 3.93475 10.7051 2.92207ZM11.2562 26.2475C10.3972 27.2549 9.67764 28.0989 9.15809 28.7351L6.28864 24.382C8.26553 22.216 9.15012 21.1375 10.7067 19.2396C10.8802 19.0281 11.0628 18.8055 11.2559 18.5704C12.2083 19.8308 13.2717 21.1624 14.3954 22.5289C13.2812 23.8723 12.2068 25.1325 11.2562 26.2475ZM20.8426 28.7351C20.323 28.0989 19.6033 27.2547 18.7443 26.2472C16.7229 23.8764 13.9545 20.6295 11.7344 17.6473C8.55077 13.371 7.9087 11.5151 7.93067 10.7113C7.98985 8.54449 8.56143 6.46277 9.59919 4.59686C9.75757 6.00018 10.4907 7.70209 11.8375 9.84686C13.9974 13.2865 17.7744 17.911 23.7112 24.3833L20.8426 28.7351Z" fill="#00A3FF" stroke="#00A3FF" stroke-width="0.5"/>
</g>
<defs>
<clipPath id="clip0_647_27087">
<rect width="30" height="30" fill="white"/>
</clipPath>
</defs>
</svg>
