<svg width="30" height="30" viewBox="0 0 30 30" fill="none" xmlns="http://www.w3.org/2000/svg">
<g clip-path="url(#clip0_647_27091)">
<path d="M12.4673 2.35573C12.7089 2.35573 12.9048 2.15985 12.9048 1.91823V0.4375C12.9048 0.195883 12.7089 0 12.4673 0C12.2257 0 12.0298 0.195883 12.0298 0.4375V1.91823C12.0298 2.15985 12.2257 2.35573 12.4673 2.35573Z" fill="#00A3FF" stroke="#00A3FF" stroke-width="0.5"/>
<path d="M17.4741 27.2183C17.2325 27.2183 17.0366 27.4141 17.0366 27.6558V29.5624C17.0366 29.8041 17.2325 29.9999 17.4741 29.9999C17.7157 29.9999 17.9116 29.8041 17.9116 29.5624V27.6558C17.9116 27.4141 17.7157 27.2183 17.4741 27.2183Z" fill="#00A3FF" stroke="#00A3FF" stroke-width="0.5"/>
<path d="M22.2154 15.1458C22.2154 14.1036 21.4216 13.2434 20.4069 13.1377C20.7835 12.5695 20.9968 11.9068 21.0177 11.21C21.0467 10.2376 20.6995 9.30807 20.04 8.59284L18.1506 6.54395C17.9965 6.37676 17.9116 6.15947 17.9116 5.93209V0.4375C17.9116 0.195883 17.7157 0 17.4741 0C17.2325 0 17.0366 0.195883 17.0366 0.4375V5.93203C17.0366 6.37985 17.2038 6.80785 17.5073 7.13708L19.3967 9.18598C19.9002 9.73198 20.1652 10.4415 20.143 11.1838C20.1209 11.9262 19.8139 12.6186 19.2788 13.1336C18.3797 13.9987 16.9964 14.1686 15.9146 13.5467L15.2675 13.1746C15.0844 13.0693 14.8569 13.0693 14.6739 13.1746L14.0266 13.5467C12.945 14.1685 11.5616 13.9988 10.6625 13.1335C10.1274 12.6185 9.82042 11.9261 9.79825 11.1838C9.77609 10.4415 10.0411 9.73198 10.5446 9.18598L12.4339 7.13702C12.7375 6.80779 12.9047 6.37985 12.9047 5.93203V3.78268C12.9047 3.54106 12.7088 3.34518 12.4672 3.34518C12.2256 3.34518 12.0297 3.54106 12.0297 3.78268V5.93203C12.0297 6.15941 11.9448 6.37676 11.7906 6.54389L9.90127 8.59284C9.24175 9.30807 8.89455 10.2375 8.9236 11.21C8.94449 11.9096 9.15945 12.5749 9.53896 13.1446C8.55015 13.2746 7.78418 14.1221 7.78418 15.1459C7.78418 16.1696 8.55015 17.0172 9.53896 17.1472C9.15945 17.7169 8.94455 18.3822 8.9236 19.0818C8.89455 20.0542 9.24175 20.9837 9.90127 21.6989L11.7906 23.7478C11.9448 23.915 12.0297 24.1323 12.0297 24.3597V29.5626C12.0297 29.8042 12.2256 30.0001 12.4672 30.0001C12.7088 30.0001 12.9047 29.8042 12.9047 29.5626V24.3597C12.9047 23.9119 12.7375 23.4839 12.4339 23.1546L10.5446 21.1057C10.0411 20.5597 9.77609 19.8502 9.79825 19.1079C9.82042 18.3655 10.1274 17.6731 10.6625 17.1582C10.9542 16.8775 11.296 16.6666 11.6785 16.5315C11.9063 16.451 12.0257 16.201 11.9452 15.9732C11.8647 15.7454 11.6146 15.6259 11.3869 15.7065C11.0007 15.843 10.6465 16.0391 10.3291 16.29H9.80333C9.17245 16.29 8.65918 15.7767 8.65918 15.1458C8.65918 14.515 9.17245 14.0017 9.80333 14.0017H10.3287C10.9911 14.5232 11.8061 14.793 12.6264 14.793C13.2578 14.793 13.8923 14.6332 14.4628 14.3052L14.9707 14.0132L15.4786 14.3052C16.7899 15.059 18.4393 14.9241 19.6114 14.0017H20.1963C20.8272 14.0017 21.3405 14.515 21.3405 15.1458C21.3405 15.7767 20.8272 16.29 20.1963 16.29H19.6114C18.4393 15.3676 16.7899 15.2325 15.4786 15.9865L14.9707 16.2784L14.4628 15.9865C14.1896 15.8294 13.8963 15.7076 13.5909 15.6245C13.3576 15.5609 13.1173 15.6985 13.0538 15.9316C12.9904 16.1648 13.1279 16.4053 13.361 16.4687C13.5944 16.5322 13.8183 16.6252 14.0267 16.745L14.6739 17.1171C14.857 17.2224 15.0845 17.2224 15.2675 17.1171L15.9147 16.745C16.9963 16.1231 18.3798 16.293 19.2788 17.1582C19.814 17.6731 20.1209 18.3655 20.1431 19.1079C20.1652 19.8502 19.9002 20.5597 19.3968 21.1057L17.5074 23.1547C17.2038 23.4839 17.0367 23.9119 17.0367 24.3597V25.7914C17.0367 26.033 17.2325 26.2289 17.4742 26.2289C17.7158 26.2289 17.9117 26.033 17.9117 25.7914V24.3597C17.9117 24.1323 17.9965 23.915 18.1507 23.7478L20.0401 21.6989C20.6996 20.9837 21.0468 20.0542 21.0177 19.0818C20.9969 18.3849 20.7836 17.7222 20.4069 17.154C21.4216 17.0483 22.2154 16.1881 22.2154 15.1458Z" fill="#00A3FF" stroke="#00A3FF" stroke-width="0.5"/>
<path d="M26.1335 13.7347C26.0374 13.5232 25.8441 13.3689 25.6164 13.322C25.3891 13.2752 25.1506 13.3404 24.9789 13.4965L23.8218 14.5479C23.67 14.6858 23.583 14.8825 23.583 15.0875C23.583 15.2925 23.67 15.4892 23.8218 15.6271L24.9943 16.6925C25.1305 16.8163 25.3034 16.8825 25.483 16.8825C25.5279 16.8825 25.5732 16.8783 25.6184 16.87C25.844 16.8282 26.0324 16.6869 26.1354 16.4825C26.5705 15.6189 26.5698 14.6943 26.1335 13.7347ZM25.4348 15.9105L24.5291 15.0875L25.4148 14.2826C25.6357 14.8597 25.6422 15.3956 25.4348 15.9105Z" fill="#00A3FF"/>
<path d="M23.063 13.1709C23.1794 13.3281 23.3578 13.4296 23.5526 13.4492C23.5757 13.4515 23.5988 13.4527 23.6219 13.4527C23.7929 13.4527 23.9596 13.3894 24.0877 13.2741L25.1308 12.3352C25.294 12.1883 25.3772 11.9785 25.359 11.7595C25.3408 11.5413 25.2247 11.3488 25.0404 11.2315C24.3044 10.7629 23.4751 10.6797 22.5754 10.9842C22.3654 11.0553 22.2005 11.224 22.1342 11.4357C22.0679 11.6471 22.1071 11.8797 22.2389 12.0578L23.063 13.1709ZM24.5455 11.6847L24.5452 11.685C24.5452 11.6849 24.5453 11.6848 24.5455 11.6847ZM24.3593 11.8522L23.6488 12.4917L23.0948 11.7434C23.5557 11.6321 23.973 11.6681 24.3593 11.8522Z" fill="#00A3FF"/>
<path d="M24.0878 17.0176C23.9423 16.8867 23.747 16.8226 23.5526 16.8424C23.358 16.862 23.1795 16.9634 23.063 17.1207L22.2389 18.2339C22.1071 18.4119 22.0679 18.6445 22.1342 18.856C22.2005 19.0676 22.3654 19.2364 22.5754 19.3075C22.9291 19.4273 23.2719 19.4871 23.6026 19.4871C24.1127 19.4871 24.5938 19.3446 25.0404 19.0603C25.2247 18.9429 25.3408 18.7504 25.359 18.5323C25.3772 18.3133 25.294 18.1034 25.1308 17.9566L24.0878 17.0176ZM23.0949 18.5481L23.6489 17.7998L24.3594 18.4393C23.973 18.6234 23.5558 18.6593 23.0949 18.5481ZM24.5455 18.6069C24.5455 18.6068 24.5453 18.6067 24.5452 18.6066L24.5455 18.6069Z" fill="#00A3FF"/>
<path d="M6.17801 15.6271C6.32974 15.4892 6.41677 15.2926 6.41677 15.0876C6.41677 14.8825 6.32974 14.6858 6.17801 14.548L5.02097 13.4966C4.84918 13.3404 4.61065 13.2751 4.38339 13.322C4.15577 13.3689 3.96245 13.5232 3.86626 13.7347C3.42999 14.6944 3.42935 15.6189 3.86434 16.4825C3.96735 16.687 4.15577 16.8282 4.38135 16.87C4.42661 16.8784 4.47188 16.8825 4.5168 16.8825C4.6964 16.8825 4.8693 16.8164 5.00551 16.6926L6.17801 15.6271ZM4.58499 14.2826L5.47078 15.0875L4.56504 15.9105C4.35755 15.3956 4.36408 14.8597 4.58499 14.2826Z" fill="#00A3FF"/>
<path d="M5.91234 13.2737C6.0405 13.3891 6.20716 13.4524 6.37819 13.4524C6.40123 13.4524 6.42439 13.4512 6.44749 13.4489C6.64215 13.4293 6.82059 13.3279 6.93708 13.1706L7.76121 12.0574C7.89305 11.8793 7.93219 11.6468 7.86592 11.4353C7.79965 11.2236 7.63469 11.0549 7.42469 10.9838C6.52513 10.6792 5.69581 10.7624 4.95976 11.231C4.77536 11.3484 4.65928 11.5409 4.64114 11.7591C4.62294 11.978 4.70606 12.1879 4.86928 12.3348L5.91234 13.2737ZM6.90517 11.7432L6.35118 12.4915L5.64068 11.852C6.02696 11.6678 6.44411 11.632 6.90517 11.7432ZM5.45454 11.6845L5.45483 11.6848L5.45454 11.6845Z" fill="#00A3FF"/>
<path d="M6.93665 17.1206C6.82021 16.9634 6.64177 16.8619 6.44706 16.8423C6.25222 16.8228 6.05733 16.8866 5.91191 17.0175L4.86879 17.9564C4.70563 18.1033 4.62245 18.3131 4.64065 18.5321C4.65879 18.7503 4.77493 18.9427 4.95927 19.0601C5.40592 19.3445 5.88682 19.4869 6.39712 19.4869C6.72764 19.4869 7.07052 19.4271 7.4242 19.3073C7.6342 19.2362 7.79916 19.0675 7.86543 18.8558C7.9317 18.6444 7.89256 18.4118 7.76072 18.2337L6.93665 17.1206ZM5.45417 18.6069L5.45446 18.6066C5.4544 18.6066 5.45428 18.6067 5.45417 18.6069ZM5.64031 18.4393L6.35081 17.7998L6.9048 18.5481C6.44379 18.6593 6.02653 18.6234 5.64031 18.4393Z" fill="#00A3FF"/>
</g>
<defs>
<clipPath id="clip0_647_27091">
<rect width="30" height="30" fill="white"/>
</clipPath>
</defs>
</svg>
