<svg width="28" height="28" viewBox="0 0 28 28" fill="none" xmlns="http://www.w3.org/2000/svg">
<g clip-path="url(#clip0_647_27105)">
<path d="M27.9661 15.6088C27.7592 14.1753 26.6331 13.0492 25.1996 12.8423V11.9939C25.1996 9.65313 23.4203 7.74729 21.233 7.74729C19.1088 7.74729 17.3303 9.59526 17.2664 11.867H17.2935L17.2664 11.8716V21.0681C17.2664 24.0081 15.0684 26.3955 12.3665 26.3955C9.66453 26.3955 7.46656 24.0048 7.46656 21.0681V20.2715C8.14322 20.2715 8.86654 19.781 8.86654 18.4049V17.2312C11.8616 16.4654 13.9998 13.8937 13.9998 10.978V10.005H13.0665L13.0469 3.93141C13.0401 2.80717 12.2334 1.84725 11.127 1.64711C10.8884 0.91603 10.1023 0.516803 9.37111 0.755499C8.64003 0.994137 8.24081 1.78028 8.4795 2.51142C8.71814 3.2425 9.50429 3.64173 10.2354 3.40304C10.6269 3.27523 10.9417 2.98071 11.0953 2.59863C11.6932 2.76873 12.1073 3.31262 12.1122 3.93421L12.1332 10.005H11.1998V10.9915C11.1626 12.6147 10.0744 14.0253 8.51374 14.4733C7.67871 14.7382 6.78214 14.7382 5.94711 14.4733C4.38829 14.0238 3.30249 12.6134 3.26662 10.9915V10.005H1.86664V3.93841C1.86932 3.30766 2.29352 2.75654 2.90262 2.59256C3.18665 3.3156 4.00301 3.67142 4.72604 3.3874C5.44907 3.10338 5.8049 2.28696 5.52088 1.56399C5.23686 0.841015 4.42044 0.485128 3.69746 0.769149C3.3057 0.923088 3.00342 1.24433 2.87369 1.64478C1.75528 1.83588 0.936411 2.80379 0.93332 3.93841V10.005H0V10.9756C0 13.8946 2.13964 16.4673 5.13326 17.2312V18.4049C5.13326 19.781 5.85658 20.2715 6.53324 20.2715V21.0681C6.53324 24.5214 9.1498 27.3288 12.3665 27.3288C15.5832 27.3288 18.1997 24.5181 18.1997 21.0681V11.894C18.2464 10.1231 19.6081 8.68201 21.233 8.68201C22.9055 8.68201 24.2663 10.1679 24.2663 11.9953V12.8423C22.4807 13.1 21.2421 14.7565 21.4998 16.5421C21.7576 18.3277 23.414 19.5663 25.1996 19.3086C26.9852 19.0508 28.2238 17.3943 27.9661 15.6088ZM9.79986 2.53843C9.54214 2.53843 9.3332 2.32948 9.3332 2.07177C9.3332 1.81406 9.54214 1.60511 9.79986 1.60511C10.0576 1.60511 10.2665 1.81406 10.2665 2.07177C10.2665 2.32948 10.0576 2.53843 9.79986 2.53843ZM4.19994 1.60511C4.45765 1.60511 4.6666 1.81406 4.6666 2.07177C4.6666 2.32948 4.45765 2.53843 4.19994 2.53843C3.94223 2.53843 3.73328 2.32948 3.73328 2.07177C3.73328 1.81406 3.94223 1.60511 4.19994 1.60511ZM0.93332 10.9756V10.9383H2.3333V10.9915C2.3683 13.0198 3.7177 14.7899 5.66432 15.3608C6.68438 15.6838 7.77928 15.6838 8.79934 15.3608C10.7469 14.7906 12.0975 13.0205 12.1332 10.9915V10.9383H13.0665V10.9756C13.0665 13.5717 11.0654 15.856 8.30655 16.4085C7.6587 16.5382 6.99511 16.5708 6.33771 16.5051C6.12129 16.4841 5.90616 16.4515 5.69325 16.4076C2.93436 15.856 0.93332 13.5717 0.93332 10.9756ZM6.53324 19.3382C6.11324 19.3382 6.06658 18.6849 6.06658 18.4049V17.4146C6.10391 17.4193 6.14218 17.4211 6.17998 17.4249C6.22664 17.43 6.27331 17.4337 6.31997 17.4379C6.5407 17.4575 6.7633 17.4706 6.98776 17.4711H7.0111C7.23509 17.4711 7.45723 17.4575 7.67656 17.4379C7.72322 17.4337 7.77269 17.43 7.82075 17.4249C7.85762 17.4207 7.89589 17.4193 7.93275 17.4146V18.4049C7.93275 18.6849 7.88609 19.3382 7.46609 19.3382H6.53324ZM24.733 18.4049C23.4444 18.4049 22.3997 17.3602 22.3997 16.0716C22.3997 14.7829 23.4444 13.7383 24.733 13.7383C26.0216 13.7383 27.0663 14.7829 27.0663 16.0716C27.0648 17.3596 26.021 18.4034 24.733 18.4049Z" fill="#00A3FF"/>
<path d="M24.733 14.6714C23.9598 14.6714 23.333 15.2982 23.333 16.0714C23.333 16.8446 23.9598 17.4713 24.733 17.4713C25.5062 17.4713 26.133 16.8446 26.133 16.0714C26.133 15.2982 25.5062 14.6714 24.733 14.6714ZM24.733 16.538C24.4753 16.538 24.2663 16.3291 24.2663 16.0714C24.2663 15.8137 24.4753 15.6047 24.733 15.6047C24.9907 15.6047 25.1996 15.8137 25.1996 16.0714C25.1996 16.3291 24.9907 16.538 24.733 16.538Z" fill="#00A3FF"/>
</g>
<defs>
<clipPath id="clip0_647_27105">
<rect width="28" height="28" fill="white"/>
</clipPath>
</defs>
</svg>
