<svg width="30" height="30" viewBox="0 0 30 30" fill="none" xmlns="http://www.w3.org/2000/svg">
<g clip-path="url(#clip0_1206_1108)">
<path d="M28.9844 1.05257C28.9711 0.948435 28.9481 0.848134 28.91 0.754028C28.9088 0.751668 28.9088 0.748423 28.9083 0.745473C28.9083 0.744883 28.9077 0.744293 28.9071 0.743703C28.8652 0.644582 28.808 0.554606 28.7433 0.47112C28.7274 0.451355 28.7118 0.431885 28.695 0.4133C28.6259 0.335419 28.551 0.263438 28.464 0.204732C28.4616 0.202962 28.4587 0.202372 28.4563 0.200602C28.3722 0.145142 28.2793 0.103251 28.182 0.0702108C28.1578 0.0616557 28.1342 0.0542806 28.1094 0.0477905C28.0073 0.0200602 27.9023 0 27.7917 0H19.3333C18.6663 0 18.125 0.541331 18.125 1.20833C18.125 1.87534 18.6663 2.41667 19.3333 2.41667H24.8741L17.6621 9.62861C15.739 8.09046 13.3713 7.25 10.875 7.25C4.87876 7.25 0 12.1288 0 18.125C0 24.1212 4.87876 29 10.875 29C16.8712 29 21.75 24.1212 21.75 18.125C21.75 15.6299 20.9101 13.2628 19.3708 11.3379L26.5833 4.12533V9.66667C26.5833 10.3337 27.1247 10.875 27.7917 10.875C28.4587 10.875 29 10.3337 29 9.66667V1.20833C29 1.18296 28.9941 1.15877 28.9926 1.13399C28.9909 1.10626 28.9879 1.07971 28.9844 1.05257ZM10.875 26.5833C6.2107 26.5833 2.41667 22.7893 2.41667 18.125C2.41667 13.4607 6.2107 9.66667 10.875 9.66667C13.1333 9.66667 15.2593 10.5458 16.858 12.1388C18.4542 13.7407 19.3333 15.8668 19.3333 18.125C19.3333 22.7893 15.5393 26.5833 10.875 26.5833Z" fill="#00A3FF"/>
</g>
<defs>
<clipPath id="clip0_1206_1108">
<rect width="30" height="30" fill="white"/>
</clipPath>
</defs>
</svg>
