<svg width="30" height="30" viewBox="0 0 30 30" fill="none" xmlns="http://www.w3.org/2000/svg">
<g clip-path="url(#clip0_702_23391)">
<path d="M5 10.8333C5 -3.61111 25 -3.61111 25 10.8333C25 14.1753 23.9857 15.8697 21.4044 18.0388C21.5511 17.9154 20.5986 18.7103 20.3569 18.9185C18.2931 20.6967 17.2211 22.3102 16.6505 25.1634C15.2215 32.3083 5 31.7356 5 24.1667C5 23.7064 5.3731 23.3333 5.83333 23.3333C6.29357 23.3333 6.66667 23.7064 6.66667 24.1667C6.66667 29.6581 13.97 30.0673 15.0162 24.8366C15.6673 21.581 16.9444 19.6587 19.269 17.6559C19.5224 17.4375 20.4892 16.6308 20.3322 16.7628C22.5712 14.8814 23.3333 13.6081 23.3333 10.8333C23.3333 -1.38889 6.66667 -1.38889 6.66667 10.8333C6.66667 11.2936 6.29357 11.6667 5.83333 11.6667C5.3731 11.6667 5 11.2936 5 10.8333Z" fill="#00A3FF"/>
<path d="M12.5 14.1667C12.6819 14.1667 12.799 13.5812 12.1273 13.2454C10.4267 12.3951 10 11.5416 10 10C10 6.87226 12.1603 5 15 5C17.687 5 20 6.69622 20 9.16667C20 9.6269 19.6269 10 19.1667 10C18.7064 10 18.3333 9.6269 18.3333 9.16667C18.3333 7.74823 16.8585 6.66667 15 6.66667C13.032 6.66667 11.6667 7.84996 11.6667 10C11.6667 10.9584 11.7955 11.2161 12.8727 11.7546C15.0798 12.8582 14.4847 15.8333 12.5 15.8333C12.0398 15.8333 11.6667 15.4602 11.6667 15C11.6667 14.5398 12.0398 14.1667 12.5 14.1667Z" fill="#00A3FF"/>
<path d="M11.6668 12.4998C11.6668 8.05539 18.3335 8.05539 18.3335 12.4998C18.3335 14.2495 17.7029 15.3392 16.2266 16.7946C16.1263 16.8935 15.6972 17.3103 15.5857 17.4204C13.978 19.0077 13.3335 20.2333 13.3335 22.4998C13.3335 26.1109 8.3335 26.1109 8.3335 22.4998C8.3335 22.0396 8.70659 21.6665 9.16683 21.6665C9.62707 21.6665 10.0002 22.0396 10.0002 22.4998C10.0002 23.8887 11.6668 23.8887 11.6668 22.4998C11.6668 19.7252 12.5175 18.1076 14.4147 16.2344C14.5325 16.1181 14.9622 15.7007 15.0565 15.6077C16.2458 14.4354 16.6668 13.7077 16.6668 12.4998C16.6668 10.2776 13.3335 10.2776 13.3335 12.4998C13.3335 12.9601 12.9604 13.3332 12.5002 13.3332C12.0399 13.3332 11.6668 12.9601 11.6668 12.4998Z" fill="#00A3FF"/>
</g>
<defs>
<clipPath id="clip0_702_23391">
<rect width="30" height="30" fill="white" transform="matrix(-1 0 0 1 30 0)"/>
</clipPath>
</defs>
</svg>
