<svg width="30" height="31" viewBox="0 0 30 31" fill="none" xmlns="http://www.w3.org/2000/svg">
<g clip-path="url(#clip0_647_27125)">
<path d="M14.9999 22.7415C17.5665 22.7415 19.6551 20.6529 19.6551 18.0863C19.6551 17.6891 19.6023 17.2836 19.4989 16.8812C19.4533 16.7048 19.3183 16.5651 19.143 16.5139C18.9687 16.4617 18.7789 16.5067 18.6454 16.6313C18.3547 16.9024 17.9782 17.0518 17.5861 17.0518C16.7306 17.0518 16.0344 16.3556 16.0344 15.5001C16.0344 15.108 16.1839 14.7315 16.4544 14.4403C16.5785 14.3068 16.623 14.1175 16.5718 13.9427C16.5206 13.7679 16.3809 13.6324 16.2046 13.5868C15.8027 13.4839 15.3971 13.4312 14.9999 13.4312C12.4333 13.4312 10.3447 15.5198 10.3447 18.0863C10.3447 20.6529 12.4333 22.7415 14.9999 22.7415ZM14.9999 14.4656C15.0708 14.4656 15.1421 14.4677 15.214 14.4724C15.0739 14.7941 14.9999 15.1432 14.9999 15.5001C14.9999 16.9262 16.1601 18.0863 17.5861 18.0863C17.943 18.0863 18.2921 18.0124 18.6139 17.8722C18.6185 17.9441 18.6206 18.0155 18.6206 18.0863C18.6206 20.0829 16.9965 21.707 14.9999 21.707C13.0033 21.707 11.3792 20.0829 11.3792 18.0863C11.3792 16.0898 13.0033 14.4656 14.9999 14.4656Z" fill="#00A3FF" stroke="#00A3FF" stroke-width="0.25"/>
<path d="M29.9038 17.7857C29.686 17.4811 24.4676 10.3276 15 10.3276C5.53241 10.3276 0.313965 17.4811 0.0962069 17.7857C-0.032069 17.9657 -0.032069 18.2068 0.0962069 18.3868C0.141207 18.4504 1.22845 19.9576 3.2969 21.6138C3.51983 21.7923 3.84517 21.7561 4.02414 21.5332C4.20259 21.3102 4.16638 20.9844 3.94345 20.8059C2.5231 19.669 1.58172 18.5921 1.17207 18.0863C2.01362 17.0518 5.09948 13.6219 10.0676 12.1007C8.34259 13.5252 7.24138 15.6795 7.24138 18.0863C7.24138 22.3644 10.7219 25.8449 15 25.8449C19.2781 25.8449 22.7586 22.3644 22.7586 18.0863C22.7586 15.6816 21.659 13.5288 19.936 12.1049C24.8938 13.6282 27.9843 17.0538 28.8274 18.0873C28.4172 18.5937 27.4759 19.6695 26.056 20.8064C25.8331 20.9849 25.7969 21.3107 25.9753 21.5337C26.0778 21.6614 26.2278 21.7276 26.3793 21.7276C26.4926 21.7276 26.6069 21.6904 26.7026 21.6144C28.7716 19.9582 29.8583 18.4504 29.9033 18.3873C30.0321 18.2068 30.0321 17.9657 29.9038 17.7857ZM21.7241 18.0863C21.7241 21.7938 18.7076 24.8104 15 24.8104C11.2924 24.8104 8.27586 21.7938 8.27586 18.0863C8.27586 14.3787 11.2924 11.3621 15 11.3621C18.7076 11.3621 21.7241 14.3782 21.7241 18.0863Z" fill="#00A3FF" stroke="#00A3FF" stroke-width="0.25"/>
<path d="M4.4926 12.873C6.68571 11.2401 10.2888 9.2932 14.9998 9.2932C19.7109 9.2932 23.314 11.2401 25.5071 12.873C25.5997 12.9418 25.7083 12.9754 25.8154 12.9754C25.9731 12.9754 26.1293 12.9035 26.2307 12.767C26.4014 12.5379 26.3538 12.2141 26.1247 12.0434C25.7042 11.7299 25.2329 11.4061 24.7157 11.0854L25.5547 9.62941C25.6974 9.38165 25.6126 9.06562 25.3648 8.92286C25.1166 8.77958 24.8005 8.86545 24.6583 9.11269L23.8214 10.5651C22.7967 10.0013 21.6231 9.47527 20.3083 9.06717L20.8214 7.157C20.8954 6.88131 20.7319 6.59734 20.4557 6.52338C20.18 6.44993 19.8966 6.61286 19.8221 6.88907L19.3126 8.78631C18.1436 8.49614 16.8743 8.31148 15.5166 8.27217V5.67251C15.5166 5.387 15.2848 5.15527 14.9993 5.15527C14.7138 5.15527 14.4821 5.387 14.4821 5.67251V8.27217C13.1243 8.31148 11.8545 8.49562 10.6861 8.78631L10.1766 6.88907C10.1021 6.61338 9.81967 6.44993 9.54295 6.52338C9.26674 6.59734 9.10329 6.88131 9.17726 7.157L9.69036 9.06717C8.37605 9.47476 7.20191 10.0008 6.17726 10.5651L5.34036 9.11269C5.1976 8.86545 4.88157 8.77958 4.63381 8.92286C4.38605 9.0651 4.30122 9.38165 4.44398 9.62941L5.28295 11.0854C4.76571 11.4061 4.2945 11.7304 3.87398 12.0434C3.64484 12.2141 3.59726 12.5384 3.76795 12.767C3.93967 12.9967 4.26398 13.0437 4.4926 12.873Z" fill="#00A3FF"/>
</g>
<defs>
<clipPath id="clip0_647_27125">
<rect width="30" height="30" fill="white" transform="translate(0 0.5)"/>
</clipPath>
</defs>
</svg>
