<svg width="30" height="30" viewBox="0 0 30 30" fill="none" xmlns="http://www.w3.org/2000/svg">
<g clip-path="url(#clip0_647_27132)">
<rect width="30" height="30" rx="6" fill="white"/>
<path d="M9.15888 19.102C9.84196 19.102 10.3959 18.5487 10.3959 17.8659C10.3959 17.1832 9.84196 16.6299 9.15888 16.6299C8.4758 16.6299 7.92188 17.1832 7.92188 17.8659C7.92188 18.5487 8.4758 19.102 9.15888 19.102Z" fill="#00A3FF" stroke="#00A3FF" stroke-width="0.25"/>
<path d="M20.8356 19.102C21.5187 19.102 22.0727 18.5487 22.0727 17.8659C22.0727 17.1832 21.5187 16.6299 20.8356 16.6299C20.1526 16.6299 19.5986 17.1832 19.5986 17.8659C19.5986 18.5487 20.1526 19.102 20.8356 19.102Z" fill="#00A3FF" stroke="#00A3FF" stroke-width="0.25"/>
<path d="M22.9245 26.2048L22.8634 26.0958L22.9246 26.2048C24.9761 25.054 26.1333 23.2102 26.3757 20.7325C27.9405 20.4265 29.1253 19.047 29.1253 17.3947C29.1253 15.7597 27.965 14.3921 26.4246 14.0671V13.6845C26.4246 7.3887 21.2984 2.26709 14.9975 2.26709C8.69652 2.26709 3.57035 7.3887 3.57035 13.6845V14.0671C2.02988 14.3922 0.869629 15.7598 0.869629 17.3947C0.869629 19.047 2.05443 20.4265 3.61924 20.7325C3.86163 23.2102 5.01881 25.054 7.07044 26.2048C8.91091 27.2372 11.5089 27.7322 14.9975 27.7322C18.486 27.7322 21.0841 27.2371 22.9245 26.2048ZM16.5896 4.42796L16.5034 4.51847L16.5896 4.42795C16.3003 4.15243 15.9833 3.90781 15.6435 3.69529C20.8682 4.02914 25.0168 8.38175 25.0168 13.6845V19.7161C25.0168 20.9712 24.7869 22.0242 24.3267 22.8929C23.867 23.7607 23.1739 24.4517 22.2355 24.9781C20.6278 25.8799 18.266 26.3255 14.9975 26.3255C11.729 26.3255 9.3671 25.8799 7.75953 24.9781C6.82107 24.4517 6.12789 23.7607 5.66821 22.8929C5.20799 22.0242 4.97809 20.9712 4.97809 19.7161V13.6845C4.97809 9.17112 7.98373 5.34582 12.1006 4.10108C15.2089 4.14941 16.8355 6.38956 16.8355 7.97352C16.8355 9.17739 15.855 10.1572 14.6498 10.1572C13.7633 10.1572 13.042 9.43642 13.042 8.55096C13.042 7.92019 13.5559 7.40657 14.1875 7.40657C14.5761 7.40657 14.8914 7.09175 14.8914 6.7032C14.8914 6.31466 14.5761 5.99983 14.1875 5.99983C12.7796 5.99983 11.6343 7.14404 11.6343 8.55096C11.6343 10.2126 12.987 11.564 14.6498 11.564C16.6313 11.564 18.2433 9.95353 18.2433 7.97352C18.2433 6.73319 17.6211 5.41034 16.5896 4.42796ZM2.27737 17.3947C2.27737 16.5426 2.81539 15.8135 3.57027 15.5284V19.2611C2.8154 18.976 2.27737 18.2468 2.27737 17.3947ZM27.7175 17.3948C27.7175 18.2468 27.1795 18.976 26.4246 19.2611V15.5284C27.1795 15.8135 27.7175 16.5427 27.7175 17.3948Z" fill="#00A3FF" stroke="#00A3FF" stroke-width="0.25"/>
<path d="M17.1479 19.37L17.1478 19.37C15.9623 20.5547 14.0326 20.5547 12.8471 19.37L12.847 19.37C12.5721 19.0954 12.1266 19.0954 11.8517 19.37L11.8517 19.37C11.5768 19.6447 11.5768 20.0902 11.8517 20.3648C12.7191 21.2315 13.8586 21.6647 14.9975 21.6647C16.1364 21.6647 17.2758 21.2315 18.1433 20.3648L18.1433 20.3648C18.4182 20.0902 18.4182 19.6447 18.1433 19.37L18.1433 19.37C17.8683 19.0954 17.4228 19.0954 17.1479 19.37Z" fill="#00A3FF" stroke="#00A3FF" stroke-width="0.25"/>
</g>
<defs>
<clipPath id="clip0_647_27132">
<rect width="30" height="30" rx="6" fill="white"/>
</clipPath>
</defs>
</svg>
