<svg width="30" height="30" viewBox="0 0 30 30" fill="none" xmlns="http://www.w3.org/2000/svg">
<path d="M13.9464 6.21841C14.5412 6.8132 14.8689 7.6041 14.8689 8.44539C14.8689 8.98486 14.7335 9.50335 14.4799 9.96296L19.4095 14.8926C19.5744 15.0574 19.667 15.2809 19.667 15.514C19.667 15.7471 19.5744 15.9707 19.4095 16.1355L17.9698 17.5752C17.7981 17.7468 17.5732 17.8326 17.3483 17.8326C17.1234 17.8326 16.8984 17.7468 16.7268 17.5752C16.3836 17.232 16.3836 16.6755 16.7268 16.3322L17.5451 15.514L16.2918 14.2606L15.4735 15.0789C15.3018 15.2506 15.0769 15.3364 14.852 15.3364C14.6271 15.3364 14.4021 15.2505 14.2305 15.0789C13.8873 14.7357 13.8873 14.1792 14.2305 13.836L15.0488 13.0176L13.236 11.2048C12.7654 11.4631 12.2426 11.5932 11.7194 11.5932C10.9129 11.5932 10.1064 11.2862 9.49242 10.6722C8.26447 9.44423 8.26447 7.44619 9.49242 6.21824C10.7204 4.99035 12.7184 4.99041 13.9464 6.21841ZM10.7354 9.42941C11.2779 9.97199 12.1608 9.97199 12.7034 9.42941C12.9663 9.16656 13.111 8.8171 13.111 8.44539C13.111 8.07367 12.9663 7.72421 12.7034 7.46136C12.4321 7.19007 12.0758 7.05443 11.7194 7.05443C11.363 7.05443 11.0067 7.19007 10.7354 7.46136C10.1928 8.004 10.1928 8.88677 10.7354 9.42941Z" fill="#00A3FF"/>
<path d="M6.47193 4.45854C8.71972 2.22828 11.7083 1 14.887 1C18.0659 1 21.0544 2.22828 23.3021 4.45854C25.5267 6.66583 26.7621 9.59276 26.7873 12.7104L28.9529 17.008C29.0497 17.2 28.995 17.4337 28.8094 17.5441L26.8153 18.7395V25.0821C26.8153 25.3091 26.6022 25.5205 26.3735 25.5205H22.3974V28.589C22.3974 28.816 22.2119 29 21.9832 29C21.7544 29 21.569 28.816 21.569 28.589V25.0821C21.569 24.8552 21.7268 24.6986 21.9556 24.6986H25.987V18.5068C25.987 18.3625 26.0495 18.2287 26.1743 18.1544L28.0475 17.0351L26.0066 12.992C25.9778 12.9349 25.9611 12.872 25.9611 12.8082C25.9612 6.75033 20.9933 1.8219 14.8879 1.8219C8.78245 1.8219 3.81506 6.75033 3.81506 12.8082C3.81506 16.2123 5.38091 19.3687 8.08743 21.4682C8.18785 21.5461 8.26011 21.6655 8.26011 21.792V28.589C8.26011 28.8159 8.07465 28.9999 7.84591 28.9999C7.61718 28.9999 7.43172 28.8159 7.43172 28.589V21.9903C4.61529 19.7347 3 16.3998 3 12.8082C3.00011 9.65412 4.22424 6.6888 6.47193 4.45854Z" fill="#00A3FF" stroke="#00A3FF"/>
</svg>
