<svg width="30" height="30" viewBox="0 0 30 30" fill="none" xmlns="http://www.w3.org/2000/svg">
<path d="M6.47193 4.45854C8.71972 2.22828 11.7083 1 14.887 1C18.0659 1 21.0544 2.22828 23.3021 4.45854C25.5267 6.66583 26.7621 9.59276 26.7873 12.7104L28.9529 17.008C29.0497 17.2 28.995 17.4337 28.8094 17.5441L26.8153 18.7395V25.0821C26.8153 25.3091 26.6022 25.5205 26.3735 25.5205H22.3974V28.589C22.3974 28.816 22.2119 29 21.9832 29C21.7544 29 21.569 28.816 21.569 28.589V25.0821C21.569 24.8552 21.7268 24.6986 21.9556 24.6986H25.987V18.5068C25.987 18.3625 26.0495 18.2287 26.1743 18.1544L28.0475 17.0351L26.0066 12.992C25.9778 12.9349 25.9611 12.872 25.9611 12.8082C25.9612 6.75033 20.9933 1.8219 14.8879 1.8219C8.78245 1.8219 3.81506 6.75033 3.81506 12.8082C3.81506 16.2123 5.38091 19.3687 8.08743 21.4682C8.18785 21.5461 8.26011 21.6655 8.26011 21.792V28.589C8.26011 28.8159 8.07465 28.9999 7.84591 28.9999C7.61718 28.9999 7.43172 28.8159 7.43172 28.589V21.9903C4.61529 19.7347 3 16.3998 3 12.8082C3.00011 9.65412 4.22424 6.6888 6.47193 4.45854Z" fill="#00A3FF" stroke="#00A3FF"/>
<path d="M13.5038 5C11.0204 5 9 6.73929 9 8.87724C9 9.57054 9.65513 10.1345 10.4605 10.1345C11.2658 10.1345 11.921 9.57054 11.921 8.87724C11.921 8.12591 12.631 7.51473 13.5037 7.51473C14.3763 7.51473 15.0864 8.12597 15.0864 8.87724C15.0864 9.6285 14.3716 10.2397 13.4989 10.2397C12.6936 10.2397 12.0337 10.8037 12.0337 11.497V13.7427C12.0337 14.436 12.6862 15 13.4915 15C14.2969 15 14.9494 14.436 14.9494 13.7427V12.5448C16.7618 12.0131 18 10.5314 18 8.87717C18.0002 6.73936 15.9873 5 13.5038 5ZM14.2346 11.6658C13.9656 11.7185 13.7674 11.9244 13.7674 12.1618V13.7428C13.7674 13.875 13.6452 13.9825 13.4916 13.9825C13.338 13.9825 13.2158 13.875 13.2158 13.7428V11.4971C13.2158 11.3649 13.3454 11.2574 13.499 11.2574C15.0235 11.2574 16.2661 10.1896 16.2661 8.87724C16.2661 7.56483 15.0271 6.49711 13.5026 6.49711C11.9781 6.49711 10.7383 7.56483 10.7383 8.87724C10.7383 9.00946 10.6137 9.11698 10.4602 9.11698C10.3066 9.11698 10.1818 9.00946 10.1818 8.87724C10.1818 7.30044 11.672 6.01755 13.5037 6.01755C15.3352 6.01755 16.8217 7.30037 16.8217 8.87724C16.8219 10.1994 15.7317 11.3721 14.2346 11.6658Z" fill="#00A3FF"/>
<path d="M13.5 16C12.6729 16 12 16.6729 12 17.5C12 18.3271 12.6729 19 13.5 19C14.3271 19 15 18.3271 15 17.5C15 16.6729 14.3271 16 13.5 16ZM13.5 17.786C13.3422 17.786 13.214 17.6578 13.214 17.5C13.214 17.3422 13.3422 17.214 13.5 17.214C13.6578 17.214 13.786 17.3422 13.786 17.5C13.786 17.6578 13.6578 17.786 13.5 17.786Z" fill="#00A3FF"/>
</svg>
