<svg width="30" height="30" viewBox="0 0 30 30" fill="none" xmlns="http://www.w3.org/2000/svg">
<g clip-path="url(#clip0_647_27154)">
<path d="M2.34401 29.9999C2.68356 29.9999 3.02369 29.9248 3.33101 29.7825C4.06207 29.5617 11.7151 27.1696 13.201 23.419C14.1508 21.0211 13.5166 17.882 12.7588 15.5527L13.7573 14.5544C14.4425 13.8691 15.5575 13.8692 16.2428 14.5544L17.2412 15.5527C16.4835 17.882 15.8493 21.0211 16.799 23.419C18.285 27.1696 25.938 29.5616 26.669 29.7825C26.9763 29.9248 27.3165 29.9998 27.656 29.9998C29.0195 29.9998 30.0776 28.8397 29.9956 27.521C29.9677 26.761 29.8569 24.0926 29.5793 21.0832C29.5496 20.761 29.2645 20.5236 28.942 20.5536C28.6198 20.5833 28.3827 20.8687 28.4124 21.1909C28.7495 24.8443 28.8091 27.3676 28.8258 27.5903C28.8692 28.2446 28.3383 28.828 27.6561 28.828C27.3267 28.828 27.164 28.7071 27.0467 28.6723C24.3722 27.8791 18.9334 25.6244 17.8885 22.9874C17.1147 21.0337 17.6326 18.3449 18.1782 16.4894L19.2732 17.5841C19.502 17.8129 19.8729 17.8129 20.1019 17.5841C20.3307 17.3553 20.3307 16.9843 20.1019 16.7555L17.0714 13.7256C15.9293 12.5836 14.0709 12.5834 12.9289 13.7256L9.89836 16.7555C9.66955 16.9843 9.66955 17.3553 9.89836 17.5841C10.1272 17.8129 10.4981 17.8129 10.727 17.5841L11.822 16.4894C12.3676 18.3448 12.8855 21.0337 12.1117 22.9872C11.5791 24.3314 9.84932 25.735 7.10912 27.0465C4.97095 28.0699 2.97347 28.6663 2.95349 28.6722C2.83607 28.7071 2.67319 28.8279 2.34413 28.8279C1.71707 28.8279 1.14714 28.3266 1.17538 27.5719C1.22226 26.2853 1.68379 14.911 3.44134 11.7707C5.17339 8.67647 10.0946 6.21119 11.4846 6.21119C12.4538 6.21119 13.2424 6.99973 13.2424 7.96897V8.8836C13.2424 9.66639 12.9377 10.4021 12.3844 10.9554L11.2692 12.0704H8.96978C6.87451 12.0704 5.70951 13.5211 5.10126 14.7381C4.95654 15.0276 5.0739 15.3795 5.36335 15.5242C5.65344 15.6691 6.005 15.551 6.14943 15.262C7.15904 13.2423 8.52196 13.2423 8.96984 13.2423H10.0973L7.75047 15.5889C6.76377 16.5755 6.20802 17.9416 6.2113 19.3366V22.9608L4.03921 25.1324C3.81041 25.3612 3.81041 25.7323 4.03921 25.9611C4.26808 26.1899 4.63897 26.1899 4.86789 25.9611L6.79729 24.0317L7.55483 24.7893C7.78369 25.0181 8.15458 25.0181 8.3835 24.7893C8.61231 24.5605 8.61231 24.1894 8.3835 23.9606L7.38274 22.9598L7.37882 21.0976L8.72674 22.4456C8.9556 22.6744 9.32649 22.6744 9.55542 22.4456C9.78422 22.2168 9.78422 21.8457 9.55542 21.6169L7.37536 19.4368L7.37513 19.334C7.37255 18.2484 7.81141 17.1853 8.5792 16.4176L13.2134 11.784C13.9879 11.0095 14.4144 9.97945 14.4144 8.88365V1.17234H15.5863V8.88371C15.5863 9.97951 16.0128 11.0096 16.7874 11.7841L21.4161 16.4122C22.1908 17.1874 22.6174 18.2175 22.6174 19.3126V19.4449L20.4453 21.6169C20.2165 21.8457 20.2165 22.2168 20.4453 22.4456C20.6742 22.6744 21.0451 22.6744 21.274 22.4456L22.6175 21.1021V22.9604L21.6172 23.9606C21.3884 24.1894 21.3884 24.5605 21.6172 24.7893C21.8461 25.0181 22.217 25.0181 22.4459 24.7893L23.2034 24.0318L25.1328 25.9612C25.3617 26.19 25.7326 26.19 25.9615 25.9612C26.1903 25.7324 26.1903 25.3614 25.9615 25.1325L23.7894 22.9604C23.7894 22.3043 23.7894 19.7367 23.7894 19.3126C23.7894 17.9046 23.241 16.5804 22.245 15.5837L19.9035 13.2424H21.0309C21.4788 13.2424 22.8416 13.2424 23.8513 15.2622C23.996 15.5517 24.3479 15.6689 24.6374 15.5243C24.9268 15.3796 25.0441 15.0277 24.8995 14.7382C24.2912 13.5213 23.1262 12.0706 21.031 12.0706H18.7309L17.6157 10.9555C17.0625 10.4023 16.7578 9.66645 16.7578 8.88371V7.96908C16.7578 6.99984 17.5463 6.2113 18.5156 6.2113C20.1551 6.2113 24.955 8.9061 26.5588 11.7708C27.0038 12.5658 27.4067 13.9908 27.7563 16.0061C27.8114 16.3234 28.1132 16.5387 28.4338 16.4833C28.7526 16.428 28.9663 16.1246 28.911 15.8058C28.5333 13.6293 28.0985 12.1222 27.5814 11.1984C25.7554 7.93686 20.5557 5.03945 18.5156 5.03945C17.8565 5.03945 17.2478 5.2583 16.7578 5.62696V0.586414C16.7578 0.262807 16.4954 0.000488281 16.1719 0.000488281H13.8282C13.5046 0.000488281 13.2422 0.262807 13.2422 0.586414V5.62696C12.7522 5.2583 12.1435 5.03945 11.4845 5.03945C9.44134 5.03945 4.24458 7.9365 2.4186 11.1985C0.568364 14.5044 0.0835692 25.3552 0.00446919 27.5211C-0.0776191 28.8404 0.981267 29.9999 2.34401 29.9999Z" fill="#00A3FF"/>
<path d="M28.7109 19.1016C29.0345 19.1016 29.2969 18.8392 29.2969 18.5156C29.2969 18.192 29.0345 17.9297 28.7109 17.9297C28.3873 17.9297 28.125 18.192 28.125 18.5156C28.125 18.8392 28.3873 19.1016 28.7109 19.1016Z" fill="#00A3FF"/>
</g>
<defs>
<clipPath id="clip0_647_27154">
<rect width="30" height="30" fill="white"/>
</clipPath>
</defs>
</svg>
