<svg width="30" height="30" viewBox="0 0 30 30" fill="none" xmlns="http://www.w3.org/2000/svg">
<path d="M4.92019 12.4434C4.96895 12.4976 5.02854 12.5409 5.09507 12.5705C5.1616 12.6001 5.23358 12.6152 5.30633 12.615H16.742C16.8144 12.6148 16.886 12.5994 16.9522 12.5698C17.0184 12.5401 17.0776 12.4969 17.1262 12.4429C17.1747 12.3888 17.2115 12.3252 17.2342 12.256C17.2568 12.1869 17.2648 12.1137 17.2576 12.0413L16.9012 8.39531C16.9012 8.38993 16.9012 8.38426 16.9012 8.37889L16.6487 5.80128C16.6067 5.36417 16.464 4.94289 16.2321 4.57071C16.0002 4.19852 15.6853 3.88565 15.3124 3.6568C15.3085 3.65351 15.3041 3.65113 15.2999 3.64814C15.2871 3.64038 15.2758 3.63083 15.2628 3.62307C15.2497 3.61531 15.2441 3.61441 15.2348 3.60904L15.2146 3.59889C14.7899 3.35933 14.311 3.23332 13.824 3.23292H8.22168C7.5175 3.23135 6.83806 3.49379 6.31621 3.96894C5.79436 4.44409 5.46763 5.09777 5.39989 5.80217L5.26474 7.17919C5.26474 7.18187 5.26474 7.18456 5.26296 7.18725L5.02831 9.57531V9.58814L4.78771 12.0413C4.78051 12.1139 4.78857 12.1872 4.8114 12.2565C4.83422 12.3258 4.87129 12.3894 4.92019 12.4434ZM15.0002 4.71919C15.3479 5.02098 15.5668 5.44562 15.6115 5.90516L15.8628 8.46695C15.8628 8.47322 15.8628 8.47919 15.8642 8.48516L16.1672 11.5702H13.8332L14.3919 5.90456C14.4344 5.44522 14.6524 5.02032 15.0002 4.71919ZM6.43415 5.90575C6.4769 5.45943 6.68382 5.04519 7.01442 4.74409C7.34502 4.44298 7.77551 4.27667 8.22168 4.27769H11.5024C11.34 4.69823 11.2346 5.13879 11.189 5.58754L11.0794 6.7165H6.35663L6.43415 5.90575ZM6.25207 7.76128H11.5487C11.6777 7.76131 11.802 7.71314 11.8976 7.62613C11.9932 7.53913 12.0532 7.4195 12.0658 7.29053L12.2233 5.69053C12.2723 5.19788 12.4123 4.71874 12.6361 4.27769H13.8243C13.875 4.27769 13.9249 4.28366 13.9751 4.28784C13.6267 4.7214 13.412 5.24787 13.3573 5.80247L12.7882 11.5702H11.6467L11.8312 9.67799C11.8383 9.60542 11.8302 9.53214 11.8075 9.46289C11.7847 9.39365 11.7478 9.32996 11.699 9.27593C11.6503 9.22191 11.5908 9.17875 11.5245 9.14923C11.4581 9.11972 11.3863 9.1045 11.3138 9.10456H6.119L6.25207 7.76128ZM6.01771 10.1493H10.7405L10.6018 11.5702H5.87841L6.01771 10.1493Z" fill="#00A3FF"/>
<path d="M25.6783 27.4336C25.7173 27.8321 25.902 28.2019 26.1967 28.4714C26.4914 28.7409 26.8752 28.8909 27.2736 28.8924C27.3268 28.8924 27.3809 28.8897 27.4349 28.8844C27.8593 28.8415 28.2495 28.6313 28.52 28.2998C28.7905 27.9684 28.9192 27.5427 28.8779 27.116L26.7663 5.58824C26.6487 4.34215 26.0719 3.18525 25.149 2.34465C24.2262 1.50405 23.0241 1.04049 21.7786 1.04496H16.1763C15.7801 1.04552 15.3853 1.09301 15.0001 1.18645C14.6149 1.09298 14.2201 1.04549 13.8238 1.04496H8.22185C6.97638 1.04007 5.77411 1.50342 4.85126 2.34398C3.92841 3.18454 3.3517 4.34153 3.23442 5.58765L1.12254 27.116C1.10237 27.3284 1.12407 27.5427 1.1864 27.7466C1.24873 27.9505 1.35048 28.1401 1.4858 28.3045C1.62113 28.4688 1.78739 28.6048 1.97505 28.7045C2.16272 28.8042 2.36811 28.8657 2.57947 28.8856C2.62759 28.8894 2.67571 28.8927 2.72383 28.8927C3.12352 28.8943 3.50931 28.7454 3.80516 28.4754C4.10102 28.2053 4.28546 27.8336 4.32215 27.4336L5.56225 14.8032H10.285L9.07611 27.116C9.05585 27.3284 9.07749 27.5427 9.1398 27.7467C9.2021 27.9506 9.30384 28.1402 9.43918 28.3046C9.57452 28.469 9.74081 28.6049 9.92851 28.7046C10.1162 28.8043 10.3216 28.8658 10.533 28.8856C10.5812 28.8894 10.6293 28.8927 10.6777 28.8927C11.0775 28.8938 11.4633 28.7448 11.7594 28.4748C12.0556 28.2049 12.2408 27.8336 12.2787 27.4336L13.5167 14.8032H16.4852L17.7223 27.4336C17.7643 27.8604 17.9732 28.253 18.3031 28.525C18.633 28.797 19.057 28.9262 19.4816 28.8841C19.9063 28.8419 20.297 28.632 20.5676 28.3004C20.8383 27.9689 20.9668 27.5428 20.9249 27.116L19.7154 14.8032H24.4382L25.6783 27.4336ZM11.2453 27.3303C11.2304 27.4714 11.1644 27.6021 11.06 27.6975C10.9555 27.7929 10.8198 27.8465 10.6786 27.8479C10.6584 27.8479 10.6385 27.8459 10.6227 27.8447C10.4722 27.8296 10.3338 27.7552 10.2379 27.6376C10.142 27.5201 10.0964 27.3691 10.1113 27.2178L11.3306 14.8032H12.4723L11.2453 27.3303ZM19.8889 27.2187C19.8974 27.2941 19.891 27.3705 19.8699 27.4434C19.8488 27.5163 19.8135 27.5842 19.766 27.6432C19.7185 27.7023 19.6599 27.7513 19.5934 27.7873C19.5269 27.8234 19.454 27.8458 19.3788 27.8532C19.3037 27.8607 19.2278 27.8531 19.1556 27.8308C19.0834 27.8085 19.0163 27.772 18.9583 27.7234C18.9002 27.6748 18.8524 27.6152 18.8175 27.5478C18.7826 27.4805 18.7614 27.4069 18.7551 27.3312L17.4719 14.2297C17.4593 14.1006 17.3994 13.9809 17.3037 13.8937C17.2081 13.8066 17.0836 13.7584 16.9545 13.7584H5.09116C4.96222 13.7585 4.83793 13.8068 4.74242 13.8938C4.64691 13.9809 4.587 14.1005 4.57432 14.2294L3.28789 27.3339C3.27347 27.4745 3.2079 27.6049 3.10375 27.6999C2.9996 27.7949 2.8642 27.848 2.72353 27.8488C2.70363 27.8488 2.68373 27.8468 2.66799 27.8456C2.5175 27.8305 2.37912 27.756 2.28322 27.6385C2.18732 27.5209 2.14175 27.37 2.1565 27.2187L4.26898 5.68974C4.3622 4.70225 4.81938 3.78546 5.55076 3.11938C6.28213 2.4533 7.23485 2.08605 8.22185 2.08974H13.8238C14.1757 2.08933 14.526 2.1356 14.8658 2.22735C15.6436 2.43889 16.3389 2.88358 16.8589 3.50219C17.379 4.12081 17.6991 4.88397 17.7767 5.69004L18.6238 14.3318L19.8889 27.2187ZM18.4982 4.2778H21.7786C22.2247 4.27677 22.6552 4.44304 22.9857 4.74408C23.3163 5.04512 23.5233 5.45929 23.5661 5.90556L24.1218 11.5703H19.3991L18.8113 5.58735C18.7657 5.13872 18.6604 4.69827 18.4982 4.2778ZM19.6129 13.7584L19.5007 12.6151H24.6951C24.7676 12.6151 24.8394 12.5998 24.9057 12.5703C24.972 12.5407 25.0314 12.4975 25.0801 12.4435C25.1288 12.3895 25.1657 12.3259 25.1885 12.2567C25.2112 12.1874 25.2193 12.1142 25.2122 12.0417L24.6007 5.80287C24.5329 5.09853 24.2061 4.44492 23.6843 3.96983C23.1624 3.49474 22.483 3.23234 21.7789 3.23392H17.9549C17.6622 2.79859 17.3026 2.4127 16.8895 2.09063H21.7786C22.7657 2.08702 23.7184 2.45438 24.4498 3.12057C25.1812 3.78677 25.6383 4.70366 25.7315 5.69123L27.8436 27.2196C27.8584 27.3709 27.8128 27.5219 27.7168 27.6394C27.6209 27.757 27.4824 27.8314 27.3319 27.8465C27.2581 27.8541 27.1836 27.8468 27.1126 27.8251C27.0417 27.8035 26.9757 27.7678 26.9187 27.7202C26.8605 27.6724 26.8123 27.6135 26.7769 27.5469C26.7415 27.4803 26.7197 27.4073 26.7125 27.3321L25.4258 14.2294C25.4131 14.1004 25.3532 13.9808 25.2576 13.8937C25.162 13.8067 25.0377 13.7584 24.9087 13.7584H19.6129Z" fill="#00A3FF"/>
</svg>
