<svg width="30" height="30" viewBox="0 0 30 30" fill="none" xmlns="http://www.w3.org/2000/svg">
<path d="M24.375 5H5.625C5.27982 5 5 5.27982 5 5.625V16.875C5 17.2202 5.27982 17.5 5.625 17.5H24.375C24.7202 17.5 25 17.2202 25 16.875V5.625C25 5.27982 24.7202 5 24.375 5ZM23.75 6.25V16.25H6.25V6.25H23.75Z" fill="#00A3FF"/>
<path d="M15.625 7.5H8.125C7.77982 7.5 7.5 7.77982 7.5 8.125V14.375C7.5 14.7202 7.77982 15 8.125 15H15.625C15.9702 15 16.25 14.7202 16.25 14.375V8.125C16.25 7.77982 15.9702 7.5 15.625 7.5ZM15 8.75V13.75H8.75V8.75H15Z" fill="#00A3FF"/>
<path d="M12.5187 9.84825C12.6372 9.37416 13.2173 9.22487 13.5524 9.54305L13.625 9.62484L15.5 12.1248C15.7071 12.401 15.6512 12.7927 15.375 12.9998C15.1296 13.1839 14.7928 13.1602 14.5755 12.9587L14.5 12.8748L13.4125 11.4248L13.1064 12.6514C12.9879 13.1255 12.4078 13.2748 12.0727 12.9566L12 12.8748L10.9125 11.4248L10.6064 12.6514C10.4879 13.1255 9.90777 13.2748 9.57269 12.9566L9.50004 12.8748L7.62504 10.3748C7.41793 10.0987 7.47389 9.70695 7.75004 9.49984C7.9955 9.31574 8.3323 9.33951 8.54957 9.541L8.62504 9.62484L9.71129 11.0736L10.0187 9.84825C10.1372 9.37416 10.7173 9.22487 11.0524 9.54305L11.125 9.62484L12.2113 11.0736L12.5187 9.84825Z" fill="#00A3FF"/>
<path d="M6.25 16.25V6.25H4.375C2.77982 6.25 1.25 7.77982 1.25 9.375V13.125C1.25 14.7202 2.77982 16.25 4.375 16.25H6.25ZM5 7.5V15H4.375C3.47018 15 2.5 14.0298 2.5 13.125V9.375L2.50986 9.21486C2.61391 8.3594 3.5234 7.5 4.375 7.5H5Z" fill="#00A3FF"/>
<path d="M23.75 16.25V6.25H25.625C27.2202 6.25 28.75 7.77982 28.75 9.375V13.125C28.75 14.7202 27.2202 16.25 25.625 16.25H23.75ZM25 7.5V15H25.625C26.5298 15 27.5 14.0298 27.5 13.125V9.375L27.4901 9.21486C27.3861 8.3594 26.4766 7.5 25.625 7.5H25Z" fill="#00A3FF"/>
<path d="M3.75 15V16.875C3.75 17.6128 3.6302 18.1551 3.30254 19.0346L2.88443 20.1103C2.59721 20.8764 2.5 21.3107 2.5 21.875C2.5 24.9702 7.2895 24.5571 7.49331 20.8701L7.5 20.625V16.875H8.75V20.625C8.75 26.0875 1.25 26.8375 1.25 21.875C1.25 21.1372 1.3698 20.5949 1.69746 19.7154L2.11557 18.6397C2.37406 17.9502 2.47866 17.5295 2.49699 17.0408L2.5 16.875V15H3.75Z" fill="#00A3FF"/>
<path d="M27.5 15.4712L26.25 15.4688V16.875C26.25 17.6866 26.395 18.2616 26.8021 19.3092L27.1156 20.1103C27.4028 20.8764 27.5 21.3107 27.5 21.875C27.5 23.2245 26.4285 24.046 25.0622 23.9094C23.6485 23.768 22.595 22.6707 22.5061 20.8743L22.5 20.625V16.875H21.25V20.625C21.25 23.2123 22.822 24.9416 24.9378 25.1531C26.997 25.3591 28.75 24.0151 28.75 21.875C28.75 21.1372 28.6302 20.5949 28.3025 19.7154L27.8844 18.6397C27.6259 17.9502 27.5213 17.5295 27.503 17.0408L27.5 16.875V15.4712Z" fill="#00A3FF"/>
<path d="M21.875 10H18.125C17.7798 10 17.5 10.2798 17.5 10.625V14.375C17.5 14.7202 17.7798 15 18.125 15H21.875C22.2202 15 22.5 14.7202 22.5 14.375V10.625C22.5 10.2798 22.2202 10 21.875 10ZM21.25 11.25V13.75H18.75V11.25H21.25Z" fill="#00A3FF"/>
<path d="M21.875 7.5C22.2202 7.5 22.5 7.77982 22.5 8.125C22.5 8.43182 22.2789 8.68701 21.9873 8.73993L21.875 8.75H18.125C17.7798 8.75 17.5 8.47018 17.5 8.125C17.5 7.81818 17.7211 7.56299 18.0127 7.51007L18.125 7.5H21.875Z" fill="#00A3FF"/>
</svg>
