<svg width="30" height="30" viewBox="0 0 30 30" fill="none" xmlns="http://www.w3.org/2000/svg">
<g clip-path="url(#clip0_647_27180)">
<path d="M12.7642 3.5459C13.0069 3.5459 13.2036 3.3492 13.2036 3.10645V2.34473C13.2036 2.10197 13.0069 1.90527 12.7642 1.90527C12.5214 1.90527 12.3247 2.10197 12.3247 2.34473V3.10645C12.3247 3.34914 12.5215 3.5459 12.7642 3.5459Z" fill="#00A3FF"/>
<path d="M12.7641 15.571C13.0069 15.571 13.2036 15.3743 13.2036 15.1315V13.6284C13.2036 13.3857 13.0069 13.189 12.7641 13.189C12.5214 13.189 12.3247 13.3857 12.3247 13.6284V15.1315C12.3247 15.3743 12.5215 15.571 12.7641 15.571Z" fill="#00A3FF"/>
<path d="M12.7641 6.5524C13.0069 6.5524 13.2036 6.35571 13.2036 6.11296V4.60985C13.2036 4.3671 13.0069 4.17041 12.7641 4.17041C12.5214 4.17041 12.3247 4.3671 12.3247 4.60985V6.11296C12.3247 6.35571 12.5215 6.5524 12.7641 6.5524Z" fill="#00A3FF"/>
<path d="M12.7641 12.5646C13.0069 12.5646 13.2036 12.3679 13.2036 12.1252V10.6221C13.2036 10.3793 13.0069 10.1826 12.7641 10.1826C12.5214 10.1826 12.3247 10.3793 12.3247 10.6221V12.1252C12.3247 12.3679 12.5215 12.5646 12.7641 12.5646Z" fill="#00A3FF"/>
<path d="M12.7641 9.55826C13.0069 9.55826 13.2036 9.36157 13.2036 9.11882V7.61571C13.2036 7.37296 13.0069 7.17627 12.7641 7.17627C12.5214 7.17627 12.3247 7.37296 12.3247 7.61571V9.11882C12.3247 9.36151 12.5215 9.55826 12.7641 9.55826Z" fill="#00A3FF"/>
<path d="M12.7642 17.8359C13.0069 17.8359 13.2036 17.6392 13.2036 17.3965V16.6348C13.2036 16.392 13.0069 16.1953 12.7642 16.1953C12.5214 16.1953 12.3247 16.392 12.3247 16.6348V17.3965C12.3247 17.6392 12.5215 17.8359 12.7642 17.8359Z" fill="#00A3FF"/>
<path d="M15.9206 22.223V25.1934V29.5601C15.9206 29.8028 15.7239 29.9995 15.4811 29.9995C15.2384 29.9995 15.0417 29.8028 15.0417 29.5601V22.223C15.0417 22.0636 14.9378 21.9794 14.8932 21.9507C14.8486 21.9219 14.729 21.8621 14.5838 21.9281L13.2018 22.5557C12.9807 22.656 12.7203 22.5582 12.62 22.3372C12.5197 22.1162 12.6175 21.8557 12.8384 21.7554L14.2204 21.1278C14.5945 20.958 15.0238 20.9894 15.369 21.2118C15.7144 21.4342 15.9206 21.8123 15.9206 22.223Z" fill="#00A3FF" stroke="#00A3FF" stroke-width="0.25"/>
<path d="M25.8153 28.3892C25.908 28.3892 26.0015 28.36 26.081 28.2995C26.2742 28.1525 26.3116 27.8768 26.1647 27.6837L25.9904 27.4547C25.8434 27.2614 25.5676 27.2241 25.3746 27.371C25.1814 27.518 25.144 27.7937 25.2909 27.9868L25.4652 28.2158C25.5516 28.3295 25.6827 28.3892 25.8153 28.3892Z" fill="#00A3FF"/>
<path d="M23.3979 21.8064C23.1376 21.5011 22.6891 21.4449 22.3624 21.6715L18.3052 16.5186C18.2119 16.4002 18.0651 16.3379 17.9144 16.3534C17.7644 16.3691 17.6329 16.4605 17.566 16.5957C16.8152 18.1135 17.0069 19.9539 18.0546 21.2844L18.628 22.0126C18.7918 22.2207 19.0262 22.3574 19.2877 22.3975L19.9864 22.5049C20.0271 22.5111 20.0636 22.5325 20.0891 22.5648L20.0892 22.5649L20.5292 23.1237C20.3646 23.3788 20.3591 23.7171 20.5384 23.9822L22.2861 26.5652C22.4221 26.7661 22.6953 26.8188 22.8963 26.6829C23.0973 26.5469 23.15 26.2737 23.014 26.0726L21.3221 23.5721C21.4165 23.5262 21.3198 23.5684 22.7909 22.449L26.7058 27.0399C26.9331 27.3064 27.0376 27.645 27.0002 27.9933C26.9627 28.3416 26.7886 28.6503 26.5097 28.8625C26.2309 29.0746 25.887 29.1601 25.5414 29.1034C25.1957 29.0467 24.8971 28.8556 24.7008 28.5654L23.9788 27.4984C23.8428 27.2974 23.5696 27.2447 23.3686 27.3807C23.1675 27.5167 23.1149 27.7899 23.2509 27.9909L23.9728 29.0579C24.306 29.5502 24.8124 29.8744 25.399 29.9707C25.5173 29.9901 25.6354 29.9997 25.7525 29.9997C26.2162 29.9996 26.6643 29.8492 27.042 29.5618C27.515 29.2018 27.8105 28.6781 27.874 28.0871C27.9376 27.4962 27.7601 26.9216 27.3745 26.4695L23.3979 21.8064ZM19.4211 21.5288C19.3805 21.5226 19.344 21.5012 19.3185 21.4689L18.7451 20.7407C18.0601 19.8706 17.8319 18.7284 18.0985 17.6768L21.6601 22.2001C21.4295 22.3816 21.5341 22.3008 21.2 22.555L20.7797 22.0212C20.616 21.8132 20.3817 21.6765 20.1199 21.6362L19.4211 21.5288Z" fill="#00A3FF"/>
<path d="M10.3134 22.9017L11.1392 22.5267C11.3603 22.4265 11.6207 22.5241 11.7211 22.745C11.8214 22.966 11.7236 23.2265 11.5027 23.3269L10.6768 23.7019C10.5613 23.7543 10.4868 23.8701 10.4868 23.9968V29.5596C10.4868 29.8024 10.2901 29.9991 10.0473 29.9991C9.8046 29.9991 9.60791 29.8024 9.60791 29.5596V25.0066V23.9969C9.60791 23.5262 9.88487 23.0964 10.3134 22.9017Z" fill="#00A3FF" stroke="#00A3FF" stroke-width="0.25"/>
<path d="M26.4993 7.43193C27.2279 7.16727 28.0365 7.54442 28.3014 8.27313C28.5662 9.00195 28.1888 9.81034 27.4603 10.0752L26.9457 10.2622C26.5104 10.4204 26.0533 10.5006 25.5871 10.5006C24.5414 10.5007 23.5171 10.084 22.7768 9.35766L20.8905 7.50675C20.2432 6.87161 19.5599 6.50238 18.5533 6.36157C18.1963 6.31162 17.6304 6.33544 17.6304 6.33544C17.6304 6.33544 16.6571 6.50184 16.1989 6.71834C16.0298 6.7982 15.9206 6.97222 15.9206 7.16164V10.8594L15.9205 18.0784C15.9205 18.549 15.6436 18.9789 15.2151 19.1735L11.3081 20.9478C11.1485 21.0202 10.9789 21.0561 10.81 21.0561C10.558 21.0561 10.3077 20.9763 10.095 20.8193C9.78198 20.5884 9.6079 20.2136 9.6079 19.8246V14.3177C9.6079 13.9963 9.35719 13.8811 9.28032 13.8534C9.20467 13.8262 8.94253 13.7564 8.74139 13.9994C8.57241 14.2036 8.42939 14.4269 8.31619 14.6633C6.95586 17.5053 3.69464 17.6492 3.0547 17.6492C3.01791 17.6492 2.99371 17.6487 2.9834 17.6484C2.2084 17.6281 1.59436 16.9809 1.61475 16.2058C1.63497 15.434 2.2766 14.8197 3.05078 14.8369C3.16105 14.8365 4.39889 14.757 5.04929 14.2726C5.33755 14.0579 5.69116 13.613 5.69116 13.613C5.69116 13.613 5.75227 13.506 5.77952 13.449C6.65435 11.6212 8.17486 10.7038 9.29637 10.2561C9.48562 10.1805 9.6079 10.0011 9.6079 9.79886V5.2819C8.31478 5.718 7.32177 6.6615 6.88526 8.00572C6.37522 9.57633 5.47361 10.2563 4.80707 10.5503C4.29087 10.7779 3.83796 10.8157 3.59439 10.8157C3.49426 10.8157 3.42952 10.8093 3.41018 10.8071C3.16907 10.7797 2.99582 10.562 3.02324 10.3208C3.05066 10.0797 3.26792 9.90655 3.50955 9.93386C3.57816 9.9403 5.28805 10.0788 6.04933 7.73432C6.17214 7.35599 6.50043 6.71687 6.50043 6.71687C6.50043 6.71687 6.80711 6.22988 7.0475 5.95243C7.81801 5.06313 9.03904 4.52126 9.6079 4.36412V0.439464C9.6079 0.192266 9.81198 -0.00723955 10.0608 0.000201606C10.3013 0.0074084 10.4868 0.217226 10.4868 0.457862V9.79886C10.4868 10.3627 10.1474 10.8626 9.62226 11.0723C8.64606 11.4619 7.32464 12.2565 6.57214 13.8285C5.69719 15.6562 3.35083 15.7157 3.05207 15.7157L3.03502 15.7156C2.74393 15.7081 2.50095 15.9386 2.49328 16.2288C2.48964 16.3697 2.54097 16.5035 2.63794 16.6056C2.73485 16.7078 2.8658 16.7662 3.0066 16.7699C3.01363 16.7701 3.02992 16.7703 3.0547 16.7703C3.39032 16.7703 6.36672 16.7006 7.5235 14.2838C7.66758 13.9827 7.84956 13.6985 8.0643 13.439C8.43507 12.9908 9.02913 12.8288 9.57808 13.0265C10.1301 13.2253 10.4868 13.7321 10.4868 14.3176V19.8525C10.4868 20.0119 10.5907 20.0961 10.6353 20.1248C10.68 20.1536 10.7994 20.2135 10.9447 20.1475L14.8516 18.3732C14.9671 18.3209 15.0416 18.2051 15.0416 18.0783V7.16164C15.0416 6.63397 15.3486 6.14801 15.8234 5.92366C17.7243 5.0255 20.0081 5.40957 21.506 6.87941L23.3922 8.73032C23.9696 9.2969 24.7695 9.6218 25.587 9.62174C25.9506 9.62174 26.3066 9.55934 26.6453 9.43618L27.1599 9.24915C27.4332 9.14984 27.5747 8.84669 27.4754 8.57335C27.376 8.30026 27.0729 8.15876 26.7996 8.2579L26.2851 8.44498C25.5411 8.71526 24.6956 8.5317 24.1309 7.97748C22.4037 6.28271 21.7045 5.38631 20.1763 4.79418C19.9537 4.70794 19.8259 4.46144 19.9035 4.23569C19.9849 3.99921 20.2452 3.87892 20.4769 3.96821C21.0896 4.20375 22.1736 4.90762 22.1736 4.90762L22.843 5.48258L22.8602 5.49934C23.5987 6.22023 24.7464 7.35025 24.7464 7.35025C25.071 7.66887 25.5572 7.77416 25.9848 7.61901L26.4993 7.43193Z" fill="#00A3FF" stroke="#00A3FF" stroke-width="0.25"/>
<path d="M15.5535 4.24843C15.7987 4.44606 16.0979 4.55047 16.4043 4.55047C16.5002 4.55047 16.5968 4.54022 16.6927 4.51942C17.2474 4.39907 17.815 4.35695 18.3804 4.39474C18.4401 4.39872 18.4994 4.4047 18.5588 4.41062L18.5765 4.41237C18.819 4.43587 19.0332 4.2598 19.0572 4.01834C19.0811 3.77683 18.9046 3.56162 18.6631 3.53771L18.6456 3.53602C18.5769 3.52922 18.508 3.52248 18.4388 3.51779C17.7916 3.47473 17.1416 3.52272 16.5064 3.66058C16.3135 3.70242 16.1721 3.61816 16.1051 3.5642C15.9877 3.46957 15.9204 3.32883 15.9204 3.17831V0.439439C15.9204 0.196693 15.7237 0 15.4809 0C15.2382 0 15.0415 0.196693 15.0415 0.439439V3.17831C15.0414 3.59601 15.2281 3.98606 15.5535 4.24843Z" fill="#00A3FF" stroke="#00A3FF" stroke-width="0.25"/>
</g>
<defs>
<clipPath id="clip0_647_27180">
<rect width="30" height="30" fill="white"/>
</clipPath>
</defs>
</svg>
