<svg width="30" height="30" viewBox="0 0 30 30" fill="none" xmlns="http://www.w3.org/2000/svg">
<rect width="30" height="30" rx="6" fill="white"/>
<path fill-rule="evenodd" clip-rule="evenodd" d="M11.1451 4.07238L11.6362 4.14424L12.0045 4.24808L12.3728 4.35188L12.8407 4.55032L13.3085 4.74871L13.7852 5.05037L14.262 5.35204L14.4915 5.41952L14.721 5.48697H15H15.279L15.5085 5.41952L15.738 5.35204L16.2052 5.05637L16.6725 4.76075L17.0315 4.60093L17.3905 4.44115L17.8543 4.296L18.318 4.1509L18.8383 4.07545L19.3586 4L19.7206 4.00029L20.0826 4.00058L20.5493 4.06931L21.016 4.138L21.4087 4.25926L21.8013 4.38047L22.2359 4.59718L22.6705 4.81385L22.9725 5.02457L23.2746 5.23524L23.6339 5.5605L23.9933 5.88571L24.3029 6.27395L24.6124 6.66215L24.8231 6.99791L25.0338 7.33368L25.216 7.71741L25.3982 8.10115L25.5716 8.62878L25.745 9.15641L25.8233 9.54015L25.9016 9.92388L25.95 10.3796L25.9983 10.8352L25.9992 11.2202L26 11.6052L25.9488 12.0117L25.8976 12.4181L25.7702 12.8978L25.6427 13.3775L25.4492 13.8697L25.2557 14.3619L24.3614 16.1241L23.4672 17.8863L23.0345 18.8217L22.6018 19.757L21.7682 21.6517L20.9345 23.5464L20.5245 24.3618L20.1144 25.1773L19.8079 25.6299L19.5015 26.0824L19.1983 26.3785L18.8952 26.6746L18.5569 26.8373L18.2186 27L17.7019 26.9988L17.1853 26.9976L16.9286 26.8854L16.6719 26.7733L16.4701 26.5594L16.2682 26.3455L16.1529 26.0908L16.0376 25.8361L15.963 25.4827L15.8883 25.1293L15.837 24.5108L15.7857 23.8922V22.8071V21.722L15.7335 20.9557L15.6813 20.1894L15.6118 19.8346L15.5423 19.4798L15.4423 19.278L15.3423 19.0763L15.2179 19.0209L15.0936 18.9656H15H14.9064L14.7821 19.0209L14.6577 19.0763L14.5577 19.278L14.4577 19.4798L14.3882 19.8346L14.3187 20.1894L14.2665 20.9557L14.2143 21.722V22.8071V23.8922L14.163 24.5108L14.1117 25.1293L14.037 25.4827L13.9624 25.8361L13.8471 26.0908L13.7318 26.3455L13.5299 26.5594L13.3281 26.7733L13.0714 26.8854L12.8147 26.9976L12.2981 26.9988L11.7814 27L11.4431 26.8373L11.1048 26.6746L10.8017 26.3785L10.4985 26.0824L10.1921 25.6299L9.88564 25.1773L9.47505 24.3618L9.06447 23.5464L8.23151 21.6517L7.39851 19.757L6.96568 18.8217L6.53285 17.8863L5.63856 16.1241L4.74432 14.3619L4.55079 13.8697L4.3573 13.3775L4.23046 12.8978L4.10367 12.4181L4.05186 12.0429L4 11.6677L4.00039 11.2275L4.00079 10.7873L4.05014 10.3556L4.09944 9.92388L4.17703 9.54015L4.25467 9.15641L4.44751 8.57362L4.64041 7.99078L4.90171 7.48847L5.163 6.98611L5.45043 6.5843L5.7378 6.18248L6.23163 5.70176L6.72545 5.22099L7.11084 4.96979L7.49623 4.71859L7.84745 4.55425L8.19866 4.38992L8.58342 4.26434L8.96822 4.13877L9.39368 4.07401L9.8192 4.00931L10.2366 4.00494L10.654 4.00058L11.1451 4.07238ZM9.43606 4.84373L9.05298 4.91137L8.61391 5.07244L8.17489 5.23351L7.76937 5.46816L7.36384 5.70282L6.81674 6.23045L6.26968 6.75808L5.9908 7.17827L5.71192 7.59846L5.52154 7.99528L5.3312 8.39207L5.18471 8.82223L5.03827 9.25235L4.96112 9.62193L4.88398 9.99146L4.82849 10.4853L4.77295 10.9791L4.80241 11.5308L4.83183 12.0824L4.95258 12.562L5.07333 13.0417L5.22552 13.4494L5.3777 13.8571L6.35503 15.7998L7.33231 17.7424L7.70651 18.5532L8.08071 19.364L8.91607 21.2633L9.75143 23.1627L10.1606 23.9781L10.5698 24.7935L10.8197 25.1654L11.0696 25.5372L11.2764 25.7563L11.4832 25.9755L11.6924 26.0953L11.9016 26.215L12.1618 26.241L12.4219 26.2671L12.6261 26.2132L12.8303 26.1592L12.9808 25.9918L13.1313 25.8244L13.2054 25.5728L13.2796 25.3212L13.3311 24.9854L13.3827 24.6496L13.4272 22.659L13.4718 20.6684L13.5484 20.1097L13.625 19.5511L13.7215 19.2463L13.8179 18.9416L13.9632 18.718L14.1085 18.4943L14.3455 18.3582L14.5826 18.2221H15H15.4174L15.6545 18.3582L15.8915 18.4943L16.0368 18.718L16.1821 18.9416L16.2785 19.2463L16.375 19.5511L16.4516 20.1097L16.5282 20.6684L16.5728 22.659L16.6173 24.6496L16.6689 24.9854L16.7204 25.3212L16.7946 25.5728L16.8687 25.8244L17.0192 25.9918L17.1697 26.1592L17.3739 26.2132L17.5781 26.2671L17.8382 26.241L18.0984 26.215L18.3076 26.0953L18.5168 25.9755L18.7236 25.7563L18.9304 25.5372L19.1806 25.1654L19.4307 24.7935L19.8389 23.9781L20.2472 23.1627L21.0806 21.268L21.9141 19.3733L22.2911 18.5579L22.6681 17.7424L23.6421 15.7998L24.6161 13.8571L24.7694 13.4592L24.9226 13.0611L25.0549 12.5478L25.1871 12.0344L25.1862 11.195L25.1853 10.3556L25.0755 9.81571L24.9657 9.2758L24.8192 8.83806L24.6728 8.40031L24.4804 7.99941L24.2881 7.59846L24.0096 7.17827L23.7312 6.75808L23.1817 6.23045L22.6324 5.70282L22.2287 5.46816L21.8251 5.23351L21.3896 5.07369L20.954 4.91391L20.5242 4.84071L20.0943 4.76747L19.7201 4.76766L19.346 4.76785L18.8808 4.84153L18.4156 4.9152L17.986 5.05584L17.5563 5.19643L17.248 5.347L16.9397 5.49757L16.5262 5.76738L16.1128 6.03724L16.3298 6.08118L16.5469 6.12507L17.529 6.12905L18.5112 6.13303L19.0422 6.02223L19.5731 5.91142L19.8478 5.81913L20.1225 5.7268H20.1307H20.139L20.2544 6.08621L20.3698 6.44563L20.3452 6.46961L20.3206 6.49359L19.7597 6.63414L19.1987 6.77468L18.8304 6.83809L18.4621 6.9015L17.4554 6.90174L16.4487 6.90198L16.0374 6.81535L15.6262 6.72877L15.2271 6.60665L14.8281 6.48458L14.3862 6.27621L13.9442 6.06789L13.5268 5.79717L13.1094 5.52644L12.776 5.36129L12.4426 5.1961L12.0135 5.05565L11.5844 4.9152L11.1192 4.84153L10.654 4.76785L10.2366 4.77198L9.8192 4.77605L9.43606 4.84373ZM10.6786 5.91008V6.28518L10.3193 6.33976L9.96008 6.3943L9.57042 6.51532L9.1808 6.63629L8.76452 6.8651L8.34824 7.09385L7.92705 7.50156L7.50586 7.90928L7.2724 8.27752L7.039 8.64571L6.87311 9.04499L6.70723 9.44421L6.60484 9.82795L6.50245 10.2117L6.42309 10.7633L6.34374 11.3149L5.96988 11.2909L5.59598 11.2669L5.60934 11.0031L5.62275 10.7393L5.69326 10.3316L5.76378 9.92388L5.89126 9.49218L6.01875 9.06048L6.18586 8.68121L6.35302 8.30189L6.58834 7.91739L6.82366 7.53289L7.2532 7.09164L7.68269 6.6504L8.03892 6.41056L8.39509 6.17078L8.69469 6.02366L8.99429 5.87655L9.30853 5.77208L9.62277 5.66761L9.96652 5.60559L10.3103 5.54357L10.4944 5.53925L10.6786 5.53493V5.91008ZM24.4286 11.3806V11.4702L24.3549 11.8962L24.2812 12.3222L24.0789 12.9377L23.8767 13.5532L23.4934 14.3047L23.1101 15.0563L22.7613 15.5766L22.4126 16.0969L22.3451 16.0716L22.2775 16.0463L22.0272 15.8705L21.7768 15.6948V15.6708V15.6467L22.04 15.2556L22.3031 14.8644L22.5515 14.4327L22.7998 14.001L22.9944 13.5682L23.1891 13.1355L23.3423 12.6683L23.4955 12.2011L23.5781 11.746L23.6606 11.2909H24.0446H24.4286V11.3806ZM6.35714 12.4421V12.8259H5.96429H5.57143V12.4421V12.0584H5.96429H6.35714V12.4421Z" fill="#00A3FF"/>
</svg>
