<svg width="30" height="30" viewBox="0 0 30 30" fill="none" xmlns="http://www.w3.org/2000/svg">
<g clip-path="url(#clip0_1206_1112)">
<path d="M21.125 29.75C16.645 29.75 13 26.105 13 21.625C13 17.145 16.645 13.5 21.125 13.5C25.605 13.5 29.25 17.145 29.25 21.625C29.25 26.105 25.605 29.75 21.125 29.75ZM21.125 14.75C17.3337 14.75 14.25 17.8337 14.25 21.625C14.25 25.4163 17.3337 28.5 21.125 28.5C24.9163 28.5 28 25.4163 28 21.625C28 17.8337 24.9163 14.75 21.125 14.75Z" fill="#00A3FF" stroke="#00A3FF" stroke-width="0.25"/>
<path d="M23.625 25.375C23.465 25.375 23.305 25.3138 23.1825 25.1925L20.6825 22.6925C20.5662 22.575 20.5 22.4163 20.5 22.25V17.875C20.5 17.53 20.78 17.25 21.125 17.25C21.47 17.25 21.75 17.53 21.75 17.875V21.9912L24.0675 24.3087C24.3113 24.5525 24.3113 24.9488 24.0675 25.1925C23.945 25.3138 23.785 25.375 23.625 25.375Z" fill="#00A3FF" stroke="#00A3FF" stroke-width="0.25"/>
<path d="M10.6253 23.75C10.4653 23.75 10.3053 23.6888 10.1828 23.5675L2.68281 16.0675C2.43906 15.8238 2.43906 15.4275 2.68281 15.1838C2.92656 14.94 3.32281 14.94 3.56656 15.1838L11.0666 22.6838C11.3103 22.9275 11.3103 23.3238 11.0666 23.5675C10.9453 23.6888 10.7853 23.75 10.6253 23.75Z" fill="#00A3FF" stroke="#00A3FF" stroke-width="0.25"/>
<path d="M21.5003 5.5C21.3723 5.5 21.2443 5.45099 21.1463 5.35398C20.9512 5.15895 20.9512 4.8419 21.1463 4.64687L25.1467 0.646272C25.3417 0.451243 25.6587 0.451243 25.8537 0.646272C26.0488 0.841301 26.0488 1.15835 25.8537 1.35338L21.8533 5.35398C21.7563 5.45099 21.6283 5.5 21.5003 5.5Z" fill="#00A3FF" stroke="#00A3FF" stroke-width="0.25"/>
<path d="M4.37531 17.5C4.21531 17.5 4.05531 17.4387 3.93281 17.3175C3.68906 17.0737 3.68906 16.6775 3.93281 16.4337L15.9203 4.44625C17.1366 3.23 19.1141 3.23 20.3291 4.44625L21.8041 5.92125C23.0203 7.1375 23.0203 9.115 21.8041 10.33L20.9791 11.155C20.7353 11.3987 20.3391 11.3987 20.0953 11.155C19.8516 10.9112 19.8516 10.515 20.0953 10.2712L20.9203 9.44625C21.6491 8.7175 21.6491 7.53249 20.9203 6.80499L19.4453 5.33C18.7166 4.60125 17.5328 4.60125 16.8041 5.33L4.81656 17.3175C4.69531 17.4387 4.53531 17.5 4.37531 17.5Z" fill="#00A3FF" stroke="#00A3FF" stroke-width="0.25"/>
<path d="M2.50023 24.375C2.34023 24.375 2.1225 24.1213 2 24C1.75625 23.7562 1.81398 23.5525 2.05773 23.3088L6.43273 18.9338C6.67648 18.69 7.07273 18.69 7.31648 18.9338C7.56023 19.1775 7.56023 19.5738 7.31648 19.8175L2.94148 24.1925C2.82023 24.3138 2.66023 24.375 2.50023 24.375Z" fill="#00A3FF" stroke="#00A3FF" stroke-width="0.25"/>
<path d="M3.62522 25.5C3.52921 25.5 3.4332 25.4632 3.35969 25.3905L0.49935 22.5303C0.353081 22.384 0.353081 22.1462 0.49935 22C0.645618 21.8537 0.883398 21.8537 1.02967 22L3.89001 24.8601C4.03627 25.0064 4.03627 25.2442 3.89001 25.3905C3.81725 25.4632 3.72123 25.5 3.62522 25.5Z" fill="#00A3FF" stroke="#00A3FF" stroke-width="0.25"/>
<path d="M14.3753 10C14.2153 10 14.0553 9.93879 13.9328 9.81754L12.6828 8.56754C12.4391 8.32379 12.4391 7.92754 12.6828 7.68379C12.9266 7.44004 13.3228 7.44004 13.5666 7.68379L14.8166 8.93379C15.0603 9.17754 15.0603 9.57379 14.8166 9.81754C14.6953 9.93879 14.5353 10 14.3753 10Z" fill="#00A3FF" stroke="#00A3FF" stroke-width="0.25"/>
<path d="M13.1253 13.75C12.9653 13.75 12.8053 13.6888 12.6828 13.5675L10.1828 11.0675C9.93906 10.8238 9.93906 10.4275 10.1828 10.1838C10.4266 9.94004 10.8228 9.94004 11.0666 10.1838L13.5666 12.6838C13.8103 12.9275 13.8103 13.3238 13.5666 13.5675C13.4453 13.6888 13.2853 13.75 13.1253 13.75Z" fill="#00A3FF" stroke="#00A3FF" stroke-width="0.25"/>
<path d="M9.37531 15C9.21531 15 9.05531 14.9388 8.93281 14.8175L7.68281 13.5675C7.43906 13.3238 7.43906 12.9275 7.68281 12.6838C7.92656 12.44 8.32281 12.44 8.56656 12.6838L9.81656 13.9338C10.0603 14.1775 10.0603 14.5738 9.81656 14.8175C9.69531 14.9388 9.53531 15 9.37531 15Z" fill="#00A3FF" stroke="#00A3FF" stroke-width="0.25"/>
</g>
<defs>
<clipPath id="clip0_1206_1112">
<rect width="30" height="30" fill="white"/>
</clipPath>
</defs>
</svg>
