<svg width="30" height="31" viewBox="0 0 30 31" fill="none" xmlns="http://www.w3.org/2000/svg">
<g clip-path="url(#clip0_647_27205)">
<path d="M15 0.5C6.71573 0.5 0 7.21573 0 15.5C0 23.7843 6.71573 30.5 15 30.5C23.2843 30.5 30 23.7843 30 15.5C30 7.21573 23.2843 0.5 15 0.5ZM15 29.3C7.3785 29.3 1.2 23.1215 1.2 15.5C1.2 7.8785 7.3785 1.7 15 1.7C22.6215 1.7 28.8 7.8785 28.8 15.5C28.8 23.1215 22.6215 29.3 15 29.3Z" fill="#00A3FF"/>
<path d="M14.9999 2.8999C8.0411 2.8999 2.3999 8.5411 2.3999 15.4999C2.3999 22.4587 8.0411 28.0999 14.9999 28.0999C21.9587 28.0999 27.5999 22.4587 27.5999 15.4999C27.5999 8.5411 21.9587 2.8999 14.9999 2.8999ZM14.9999 4.0999C17.815 4.09975 20.5294 5.14788 22.6139 7.0399L17.3999 12.2539V8.2999H17.9999C18.3313 8.2999 18.5999 8.03125 18.5999 7.6999V5.8999C18.5999 5.56855 18.3313 5.2999 17.9999 5.2999H11.9999C11.6686 5.2999 11.3999 5.56855 11.3999 5.8999V7.6999C11.3999 8.03125 11.6686 8.2999 11.9999 8.2999H12.5999V13.3519L9.7019 17.7319C9.07033 18.6679 8.73193 19.7708 8.7299 20.8999L6.5399 23.1139C2.3348 18.4281 2.7245 11.2205 7.41035 7.01538C9.49588 5.14383 12.1978 4.1059 14.9999 4.0999ZM13.6259 7.2739C13.5127 7.16163 13.3594 7.099 13.1999 7.0999H12.5999V6.4999H17.3999V7.0999H16.7999C16.4686 7.0999 16.1999 7.36855 16.1999 7.6999V13.4539L12.9539 16.6999H11.8259L13.6979 13.8619C13.7635 13.7643 13.799 13.6495 13.7999 13.5319V7.6999C13.8008 7.54045 13.7382 7.38715 13.6259 7.2739ZM10.6979 18.3979L11.0279 17.8999H11.7539L10.1639 19.4899C10.294 19.1044 10.4735 18.7374 10.6979 18.3979ZM13.4459 17.8999H18.9719L19.3019 18.4039C20.2866 19.8727 20.3425 21.7758 19.4459 23.2999H10.5539C10.2257 22.7137 10.0215 22.0663 9.9539 21.3979L13.4459 17.8999ZM14.6459 16.6999L16.7999 14.5759L18.1739 16.6999H14.6459ZM14.9999 26.8999C12.1848 26.9001 9.47045 25.8519 7.3859 23.9599L8.9219 22.4299C9.06208 22.9404 9.26353 23.4319 9.5219 23.8939L9.6899 24.1939C9.79385 24.3789 9.98773 24.4953 10.1999 24.4999H19.7999C20.0164 24.4995 20.2159 24.3826 20.3219 24.1939L20.4899 23.8939C21.6146 21.9756 21.5399 19.5824 20.2979 17.7379L17.6399 13.6999L23.4599 7.8739C27.6716 12.5538 27.2921 19.7619 22.6122 23.9736C20.5224 25.8543 17.8114 26.8965 14.9999 26.8999Z" fill="#00A3FF"/>
</g>
<defs>
<clipPath id="clip0_647_27205">
<rect width="30" height="30" fill="white" transform="translate(0 0.5)"/>
</clipPath>
</defs>
</svg>
