<svg width="30" height="30" viewBox="0 0 30 30" fill="none" xmlns="http://www.w3.org/2000/svg">
<g clip-path="url(#clip0_647_27212)">
<path d="M21.704 14.322C21.6647 14.2021 21.6331 14.0848 21.6102 13.9707C21.5468 13.6533 21.2381 13.4475 20.9207 13.511C20.6034 13.5745 20.3976 13.8831 20.4611 14.2005C20.5261 14.5258 20.6415 14.8697 20.8018 15.2241L20.4045 15.6214C20.1757 15.8502 20.1757 16.2212 20.4045 16.4501C20.6334 16.6789 21.0043 16.6788 21.2331 16.4501L21.397 16.2863C21.6756 16.7057 22.0072 17.1284 22.3835 17.5424L21.9212 18.0048C21.6923 18.2336 21.6923 18.6046 21.9212 18.8335C22.1501 19.0623 22.5209 19.0622 22.7498 18.8335L23.2122 18.3711C23.6262 18.7475 24.049 19.0791 24.4685 19.3577L24.3047 19.5216C24.0759 19.7504 24.0759 20.1214 24.3047 20.3503C24.5336 20.5791 24.9045 20.5791 25.1333 20.3503L25.5306 19.953C25.885 20.1134 26.2289 20.2287 26.5542 20.2938C26.8711 20.3573 27.1802 20.1517 27.2437 19.8341C27.3072 19.5168 27.1014 19.2081 26.784 19.1446C26.6699 19.1218 26.5525 19.0901 26.4327 19.0508L26.8667 18.6168C27.0955 18.3879 27.0955 18.0169 26.8667 17.7881C26.6378 17.5593 26.2668 17.5593 26.038 17.7881L25.3163 18.5098C24.8878 18.243 24.4547 17.9114 24.0422 17.541L24.4833 17.1C24.7121 16.8712 24.7121 16.5002 24.4833 16.2713C24.2544 16.0426 23.8835 16.0426 23.6546 16.2713L23.2136 16.7123C22.8432 16.3 22.5116 15.8668 22.2448 15.4384L22.9666 14.7166C23.1954 14.4878 23.1954 14.1168 22.9666 13.888C22.7377 13.6592 22.3668 13.6592 22.1379 13.888L21.704 14.322Z" fill="#00A3FF"/>
<path d="M27.0801 7.91443C27.1444 7.8501 27.1929 7.7717 27.2217 7.68539L27.5937 6.56918C28.0385 6.12439 29.3856 4.77738 29.816 4.34695C29.9254 4.23762 29.9871 4.08943 29.9876 3.9348L30 0.596073C30.0019 0.074823 29.3694 -0.189904 28.9997 0.179589C28.5186 0.660702 21.2904 7.88889 20.8067 8.37258C19.207 8.19357 17.7405 9.2107 17.302 10.7061L16.7542 10.4405V0.593905C16.7542 0.27035 16.4919 0.00796747 16.1683 0.00796747H13.8162C13.4926 0.00796747 13.2303 0.27035 13.2303 0.593905V10.4406L12.6838 10.7055C12.1948 9.02683 10.3775 7.92803 8.54707 8.5057C3.50648 10.0974 0 14.7763 0 20.1678V29.4065C0 29.7301 0.262324 29.9924 0.585938 29.9924C7.32949 29.9924 12.8158 24.5061 12.8158 17.7626V15.0799L14.9921 14.0249L17.1688 15.0802V17.7627C17.1688 24.5062 22.655 29.9924 29.3986 29.9924C29.7221 29.9924 29.9845 29.7301 29.9845 29.4065V20.1677C29.9845 16.2679 28.1162 12.5136 24.8033 10.1756C25.0113 9.9965 24.9072 10.0811 27.0801 7.91443ZM26.6672 5.83834C26.6029 5.90267 26.5544 5.98113 26.5256 6.06738L26.1536 7.18359L24.1724 9.16471C23.4018 9.93551 22.2158 10.0655 21.3093 9.52734L26.5174 4.31924L27.3531 5.1525L26.6672 5.83834ZM28.8166 3.68906L28.1818 4.32392L27.3461 3.4906L28.8229 2.01381L28.8166 3.68906ZM1.17188 20.1678C1.17188 19.3623 1.25813 18.5738 1.4223 17.8119C1.53463 17.8172 1.64484 17.82 1.75254 17.82C3.77086 17.82 4.97977 16.9262 5.88375 16.2578C6.49617 15.805 6.85863 15.5533 7.18482 15.6345C8.13615 15.8722 8.59752 16.2515 9.0859 16.653C9.60662 17.0811 10.1422 17.5209 11.1437 17.7055C9.70148 21.7558 5.15789 20.6659 1.17188 24.2831V20.1678ZM8.89998 9.6232C10.2604 9.19336 11.6439 10.2073 11.6439 11.6341V14.0855C11.6439 14.9021 11.593 15.7695 11.4437 16.5687C10.6832 16.4488 10.3126 16.1445 9.83021 15.7478C9.28939 15.3032 8.67645 14.7994 7.46912 14.4976C6.59021 14.2778 5.90883 14.7819 5.18713 15.3155C4.33523 15.9454 3.3798 16.6517 1.74053 16.6478C2.83705 13.3578 5.44459 10.7143 8.89998 9.6232ZM1.17188 28.8052V25.9489C4.66805 21.9996 9.19822 22.8886 11.4917 19.594C10.6479 24.6351 6.38209 28.5319 1.17188 28.8052ZM14.7367 12.8465L12.8158 13.7776V11.9439L14.0718 11.3349C14.2738 11.2369 14.4022 11.0322 14.4022 10.8077V1.17984H15.5824V10.8076C15.5824 11.0321 15.7106 11.2369 15.9127 11.3348L17.1688 11.9438V13.7777L15.2479 12.8465C15.0865 12.7683 14.8981 12.7683 14.7367 12.8465ZM18.499 19.6327C20.8034 22.8841 25.3295 22.0149 28.8126 25.9723V28.8052C23.6157 28.5326 19.3581 24.6551 18.499 19.6327ZM28.8126 20.1677V24.3015C24.0284 19.9383 18.7036 22.4121 18.3406 14.9507C18.3406 14.5677 18.3406 11.9374 18.3406 11.6345C18.3406 10.6821 18.9692 9.87627 19.8446 9.61242C19.8525 9.75099 19.9087 9.8874 20.0146 9.99328C21.0132 10.992 22.4466 11.2579 23.674 10.829C26.8505 12.8424 28.8126 16.3934 28.8126 20.1677Z" fill="#00A3FF"/>
</g>
<defs>
<clipPath id="clip0_647_27212">
<rect width="30" height="30" fill="white"/>
</clipPath>
</defs>
</svg>
