<svg width="30" height="31" viewBox="0 0 30 31" fill="none" xmlns="http://www.w3.org/2000/svg">
<g clip-path="url(#clip0_647_27218)">
<path d="M24.1236 30.4998H25.5869V21.4907L18.2791 19.3323C16.1205 18.6919 14.6113 16.6707 14.6113 14.4206V4.89014H1.44057V14.7682C1.44057 16.6249 1.20289 18.4725 0.736378 20.256L0.169376 22.4329C-0.0136395 23.1462 -0.0685711 23.8962 0.0230713 24.6462C0.352125 27.381 2.68444 29.5853 5.44683 29.7592C5.80349 29.7865 6.16014 29.7774 6.50768 29.7316L11.4467 29.1737C13.8798 28.8993 16.3948 29.0365 18.773 29.5944L21.3248 30.1799C22.2302 30.3902 23.1723 30.4998 24.1236 30.4998ZM24.1236 29.0365C23.2822 29.0365 22.4499 28.9451 21.6359 28.753L19.0932 28.1675C16.5505 27.5823 13.8613 27.436 11.2731 27.7195L6.33405 28.2773C6.06877 28.3047 5.80349 28.3138 5.53821 28.2956C3.47117 28.1584 1.72408 26.512 1.47729 24.4632C1.40413 23.8962 1.44057 23.3383 1.58688 22.7987L2.15415 20.6218C2.648 18.7195 2.90417 16.7438 2.90417 14.7591V6.35346H13.148V14.4206C13.148 17.32 15.0869 19.9176 17.8675 20.7316L24.1236 22.5883V29.0365Z" fill="#00A3FF"/>
<path d="M24.8553 29.7683H27.7819C28.9894 29.7683 29.9771 28.7803 29.9771 27.5732C29.9771 25.5061 28.5687 23.7499 26.5472 23.2925L25.0107 22.9541L24.6905 24.381L26.2272 24.7285C27.5716 25.0305 28.5137 26.2012 28.5137 27.5732C28.5137 27.9757 28.1844 28.3047 27.7819 28.3047H24.8553V29.7683Z" fill="#00A3FF"/>
<path d="M13.1479 0.5H11.6846V5.62204H13.1479V0.5Z" fill="#00A3FF"/>
<path d="M4.36719 0.5H2.90386V5.62204H4.36719V0.5Z" fill="#00A3FF"/>
<path d="M13.3602 7.29883L0.988215 19.671L2.02307 20.7056L14.395 8.33369L13.3602 7.29883Z" fill="#00A3FF"/>
<path d="M14.4002 17.2368L3.46398 28.1733L4.49857 29.2079L15.4351 18.2717L14.4002 17.2368Z" fill="#00A3FF"/>
<path d="M20.7064 20.4473L13.3659 27.7877L14.4007 28.8223L21.7412 21.4819L20.7064 20.4473Z" fill="#00A3FF"/>
<path d="M10.9526 10.0122H2.17215V11.4755H10.9526V10.0122Z" fill="#00A3FF"/>
</g>
<defs>
<clipPath id="clip0_647_27218">
<rect width="30" height="30" fill="white" transform="matrix(-1 0 0 1 30 0.5)"/>
</clipPath>
</defs>
</svg>
