<svg width="30" height="31" viewBox="0 0 30 31" fill="none" xmlns="http://www.w3.org/2000/svg">
<path d="M17.3484 10.3438C17.3484 9.02047 18.5222 8.94031 18.7547 8.9375H20.1478C20.1497 8.9375 20.1516 8.93844 20.1534 8.93844C20.6006 8.93844 20.8261 9.20984 21.1856 9.68891C21.5616 10.19 22.0294 10.8139 22.9669 10.8139C23.2261 10.8139 23.4356 10.6039 23.4356 10.3452C23.4356 10.0864 23.2261 9.87641 22.9669 9.87641C22.5202 9.87641 22.2947 9.60547 21.9356 9.12641C21.8892 9.065 21.8419 9.00125 21.7922 8.9375H22.028C22.0289 8.9375 22.0294 8.93797 22.0303 8.93797C22.0322 8.93797 22.0341 8.9375 22.0359 8.9375H24.3759C24.6352 8.9375 24.8447 8.7275 24.8447 8.46875C24.8447 8.21 24.6352 8 24.3759 8H23.6695C23.7188 7.93672 23.7661 7.87344 23.812 7.8125C24.1716 7.33344 24.3966 7.0625 24.8433 7.0625C25.1025 7.0625 25.312 6.8525 25.312 6.59375C25.312 6.335 25.1025 6.125 24.8433 6.125C23.9058 6.125 23.438 6.74891 23.062 7.25C22.7034 7.72812 22.478 7.99859 22.0331 8H18.7547C17.9442 8 16.4109 8.48984 16.4109 10.3438C16.4109 11.3202 17.1816 12.5619 18.0731 14.0005C19.0519 15.5783 20.1609 17.3661 20.1609 18.7812C20.1609 19.6756 19.8361 20.3202 19.2014 20.7134C19.027 18.8473 17.2111 17.3741 15 17.3741C12.7894 17.3741 10.9734 18.8469 10.7986 20.7125C10.1672 20.3202 9.84375 19.6756 9.84375 18.7812C9.84375 17.3661 10.9528 15.5783 11.9316 14.0005C12.8231 12.5619 13.5938 11.3202 13.5938 10.3438C13.5938 8.48984 12.0605 8 11.25 8H7.96641C7.52109 7.99859 7.29609 7.72812 6.9375 7.25C6.56156 6.74891 6.09375 6.125 5.15625 6.125C4.8975 6.125 4.6875 6.335 4.6875 6.59375C4.6875 6.8525 4.8975 7.0625 5.15625 7.0625C5.60344 7.0625 5.82844 7.33344 6.1875 7.8125C6.23344 7.87344 6.28078 7.93672 6.33 8H5.625C5.36625 8 5.15625 8.21 5.15625 8.46875C5.15625 8.7275 5.36625 8.9375 5.625 8.9375H7.96359C7.96547 8.9375 7.96734 8.93797 7.96922 8.93797C7.97016 8.93797 7.97063 8.9375 7.97156 8.9375H8.20734C8.15766 9.00125 8.10984 9.065 8.06391 9.12641C7.70437 9.60547 7.47938 9.87641 7.03266 9.87641C6.77391 9.87641 6.56391 10.0864 6.56391 10.3452C6.56391 10.6039 6.77391 10.8139 7.03266 10.8139C7.97016 10.8139 8.43797 10.19 8.81391 9.68891C9.17344 9.20984 9.39844 8.93844 9.84562 8.93844C9.8475 8.93844 9.84938 8.9375 9.85125 8.9375H11.2477C11.483 8.94031 12.6562 9.02047 12.6562 10.3438C12.6562 11.053 11.8828 12.2998 11.1347 13.5064C10.0903 15.1902 8.90625 17.0994 8.90625 18.7812C8.90625 20.6731 10.028 21.463 10.8623 21.7897C11.1497 23.3277 12.1866 25.3991 13.5938 26.2981V29.0933C13.5938 29.3525 13.8038 29.562 14.0625 29.562C14.3212 29.562 14.5312 29.3525 14.5312 29.0933V26.6984C14.685 26.7303 14.8411 26.7495 15 26.7495C15.1589 26.7495 15.315 26.7303 15.4688 26.6984V29.0933C15.4688 29.3525 15.6783 29.562 15.9375 29.562C16.1967 29.562 16.4062 29.3525 16.4062 29.0933V26.2981C17.8139 25.3995 18.8503 23.3281 19.1377 21.7902C19.9739 21.4625 21.0984 20.6727 21.0984 18.7812C21.0984 17.0994 19.9148 15.1902 18.87 13.5064C18.1219 12.2998 17.3484 11.053 17.3484 10.3438ZM15 25.8116C13.2712 25.8116 11.7188 22.5481 11.7188 21.0069C11.7188 19.5205 13.1906 18.3116 15 18.3116C16.8089 18.3116 18.2812 19.5205 18.2812 21.0069C18.2812 22.5481 16.7288 25.8116 15 25.8116ZM6.32812 15.5C3.61406 15.5 1.40625 12.3458 1.40625 8.46875C1.40625 4.59172 3.61406 1.4375 6.32812 1.4375C8.67891 1.4375 10.658 3.72266 11.1417 6.99406C11.1797 7.25 11.0025 7.48859 10.7466 7.52609C10.4939 7.56547 10.252 7.38734 10.2145 7.13094C9.80672 4.37516 8.17266 2.375 6.32812 2.375C4.13109 2.375 2.34375 5.10875 2.34375 8.46875C2.34375 11.8287 4.13109 14.5625 6.32812 14.5625C8.17266 14.5625 9.80672 12.5623 10.2145 9.80656C10.2525 9.55016 10.4939 9.37531 10.7466 9.41141C11.0025 9.44938 11.1797 9.6875 11.1417 9.94344C10.658 13.2148 8.67891 15.5 6.32812 15.5ZM28.5928 8.46875C28.5928 12.3458 26.385 15.5 23.6709 15.5C21.3202 15.5 19.3406 13.2148 18.8569 9.94344C18.8189 9.6875 18.9961 9.44891 19.252 9.41141C19.5084 9.37156 19.7466 9.55016 19.7845 9.80656C20.1919 12.5623 21.8264 14.5625 23.6709 14.5625C25.868 14.5625 27.6553 11.8287 27.6553 8.46875C27.6553 5.10875 25.868 2.375 23.6709 2.375C21.8259 2.375 20.1919 4.37516 19.7845 7.13094C19.7466 7.38734 19.5084 7.56359 19.252 7.52609C18.9961 7.48813 18.8189 7.25 18.8569 6.99406C19.3406 3.72266 21.3202 1.4375 23.6709 1.4375C26.385 1.4375 28.5928 4.59172 28.5928 8.46875Z" fill="#00A3FF" stroke="#00A3FF" stroke-width="0.5"/>
</svg>
