<svg width="31" height="30" viewBox="0 0 31 30" fill="none" xmlns="http://www.w3.org/2000/svg">
<g clip-path="url(#clip0_647_27234)">
<path d="M12.0435 27.8467C12.0435 27.3613 12.437 26.9678 12.9224 26.9678H14.6803C15.1658 26.9678 15.5593 27.3613 15.5593 27.8467C15.5593 28.3322 15.1658 28.7257 14.6803 28.7257H12.9224C12.437 28.7257 12.0435 28.3322 12.0435 27.8467Z" fill="#00A3FF"/>
<path d="M29.4719 2.30204C28.1011 0.931222 25.8706 0.931222 24.4998 2.30204L1.12151 25.6807C0.778263 26.0239 0.778276 26.5804 1.12154 26.9237C3.52044 29.3226 7.42382 29.3225 9.82272 26.9236L14.2891 22.4571C14.6323 22.1139 14.6323 21.5574 14.2891 21.2141C13.9464 20.8715 13.9464 20.3138 14.2891 19.9711L16.775 17.4852L18.018 18.7282L29.472 7.27411C30.8427 5.90329 30.8427 3.6728 29.4719 2.30204ZM13.046 18.7281C12.2357 19.5384 12.0641 20.7492 12.531 21.7292L8.57964 25.6806C7.07897 27.1813 4.7539 27.3676 3.04844 26.2398L14.2889 14.9992L15.5319 16.2423L13.046 18.7281ZM18.0179 16.2422L15.5319 13.7562L16.775 12.5131L19.2609 14.9992L18.0179 16.2422ZM20.504 13.7561L18.018 11.27L19.261 10.027L21.747 12.5131L20.504 13.7561ZM28.2289 6.03115L22.99 11.2701L20.5041 8.78398L25.7428 3.54511C26.4282 2.85971 27.5434 2.85971 28.2289 3.54511C28.9143 4.23046 28.9143 5.34568 28.2289 6.03115Z" fill="#00A3FF"/>
<path d="M22.5913 27.8467C22.5913 27.3613 22.9848 26.9678 23.4703 26.9678H25.2282C25.7136 26.9678 26.1071 27.3613 26.1071 27.8467C26.1071 28.3322 25.7136 28.7257 25.2282 28.7257H23.4703C22.9848 28.7257 22.5913 28.3322 22.5913 27.8467Z" fill="#00A3FF"/>
<path d="M17.3174 27.8467C17.3174 27.3613 17.7109 26.9678 18.1963 26.9678H19.9542C20.4397 26.9678 20.8332 27.3613 20.8332 27.8467C20.8332 28.3322 20.4397 28.7257 19.9542 28.7257H18.1963C17.7109 28.7257 17.3174 28.3322 17.3174 27.8467Z" fill="#00A3FF"/>
</g>
<defs>
<clipPath id="clip0_647_27234">
<rect width="30" height="30" fill="white" transform="translate(0.5)"/>
</clipPath>
</defs>
</svg>
