<svg width="31" height="30" viewBox="0 0 31 30" fill="none" xmlns="http://www.w3.org/2000/svg">
<path d="M24.2875 16.347C20.9929 16.092 20.7641 12.6519 20.7565 12.5306V8.95236C23.1814 7.29809 23.2363 5.70464 23.2278 5.45404L23.2289 2.58936C23.2281 2.46528 23.1784 2.34652 23.0907 2.25879C23.003 2.17106 22.8842 2.12141 22.7601 2.12061H8.1902C8.12864 2.12059 8.06768 2.1327 8.0108 2.15625C7.95392 2.17981 7.90224 2.21433 7.85871 2.25786C7.81518 2.30139 7.78065 2.35307 7.7571 2.40995C7.73355 2.46683 7.72143 2.52779 7.72145 2.58936L7.72328 5.42248C7.71667 5.49738 7.6107 7.21133 10.2435 8.98522L10.2442 12.5128C10.2359 12.6593 10.0071 16.0994 6.71254 16.3543C2.5961 16.6738 2.38301 19.17 2.375 19.3074V27.4102C2.37581 27.5343 2.42548 27.6531 2.51327 27.7409C2.60105 27.8286 2.71987 27.8782 2.84398 27.879L28.1565 27.8717C28.2807 27.8716 28.3999 27.8221 28.4877 27.7343C28.5756 27.6464 28.625 27.5272 28.625 27.4029L28.6239 19.2689C28.617 19.1627 28.4039 16.6665 24.2875 16.347ZM8.65895 5.46275V3.05811H22.2911L22.2902 5.46275C22.2902 5.46962 22.2909 5.48655 22.2914 5.49342C22.2918 5.50715 22.3236 6.8864 19.8963 8.39793C17.2326 10.0569 16.2848 10.1956 15.5423 10.1956C14.5922 10.1918 13.852 10.1136 11.0528 8.39798C8.62553 6.8864 8.65735 5.50714 8.65895 5.46275ZM16.813 10.961C16.66 11.8414 16.5643 12.7307 16.5264 13.6234C16.1853 13.8286 15.9194 14.1382 15.768 14.5063C15.6318 14.7741 15.5481 14.9142 15.4709 14.9339C15.1305 14.6105 15.0133 13.9189 14.4749 13.6583C14.437 12.759 14.3417 11.8631 14.1894 10.976C15.0493 11.2073 15.9558 11.2022 16.813 10.961ZM3.3125 26.9415L3.3109 19.3449C3.31799 19.2712 3.5201 17.5422 6.78486 17.2891C10.0835 17.0336 11.1025 14.0852 11.181 12.5379V9.57204C11.7811 9.93479 12.4014 10.2631 13.0389 10.5554C13.0645 10.6223 13.1052 10.6825 13.1579 10.7312C13.2169 10.8764 13.3888 11.4552 13.5218 13.4284C13.3493 13.4292 13.1772 13.4454 13.0075 13.4768C11.5203 13.9677 11.6084 15.6224 11.6106 16.7365C11.5907 17.8535 11.5534 19.9327 13.3242 20.0485C13.4481 20.0635 13.573 20.0678 13.6975 20.0615C13.699 20.5902 13.6987 21.4526 13.6996 22.3103C13.7004 23.2106 13.6998 24.1342 13.7004 24.867C13.7486 26.1554 13.5517 26.0997 13.9363 26.9383L3.3125 26.9415ZM16.362 26.0649C16.3593 26.2339 16.3073 26.3985 16.2125 26.5384C16.1176 26.6784 15.984 26.7876 15.828 26.8528C15.672 26.9179 15.5004 26.9361 15.3342 26.9052C15.168 26.8743 15.0144 26.7956 14.8923 26.6787C14.5038 26.1946 14.6766 26.0905 14.638 25.3114H16.362C16.362 25.7307 16.362 26.0139 16.362 26.0649ZM16.3621 24.3739H14.6379C14.6377 23.8775 14.6376 23.3187 14.6374 22.7584H16.3626C16.3624 23.3183 16.3623 23.8773 16.3621 24.3739ZM16.3631 21.8209H14.6369C14.6364 20.9242 14.6355 20.1291 14.6343 19.7278C14.6892 19.6837 14.7405 19.6352 14.7877 19.5829C15.0842 19.3294 15.21 18.7692 15.4716 18.5552C15.5462 18.5781 15.6321 18.7219 15.7643 18.981C15.8931 19.2896 16.1004 19.5592 16.3656 19.7629C16.3644 20.1636 16.3636 20.942 16.3631 21.8209H16.3631ZM16.5991 18.5543C16.0846 17.3276 14.8888 17.2848 14.3496 18.5553C14.1106 18.9622 14.0978 19.1631 13.4138 19.1156C12.6552 19.0657 12.5218 18.2115 12.5481 16.743C12.5307 15.6745 12.542 14.6066 13.2483 14.385C13.8865 14.3082 14.1131 14.4169 14.3451 14.9298C14.8905 16.2283 16.1065 16.1349 16.6039 14.9306C16.6613 14.8002 16.7358 14.678 16.8254 14.5672C17.0367 14.3475 17.218 14.3434 17.7009 14.385C18.4087 14.6062 18.4204 15.6835 18.401 16.753C18.4265 18.2115 18.2928 19.0657 17.5059 19.1183C16.8815 19.1596 16.8277 18.964 16.5991 18.5543L16.5991 18.5543ZM27.6875 26.9342L17.064 26.9374C17.4493 26.1013 17.2509 26.1445 17.2998 24.8427C17.2996 23.4195 17.3006 21.1305 17.3024 20.0675C19.278 20.182 19.4029 17.98 19.3385 16.7425C19.341 15.6259 19.4306 13.968 17.941 13.4764C17.7882 13.4483 17.6332 13.4331 17.4778 13.4308C17.6112 11.4546 17.7828 10.8763 17.8417 10.7316C17.9003 10.6763 17.9434 10.6067 17.9668 10.5296C18.602 10.235 19.2204 9.90539 19.8191 9.54224L19.8197 12.5544C19.8975 14.0779 20.9165 17.0263 24.2152 17.2818C27.4799 17.5349 27.682 19.2639 27.6875 19.3001L27.6875 26.9342Z" fill="#00A3FF" stroke="#00A3FF" stroke-width="0.5"/>
</svg>
