<svg width="30" height="30" viewBox="0 0 30 30" fill="none" xmlns="http://www.w3.org/2000/svg">
<g clip-path="url(#clip0_1206_1136)">
<path d="M18.0135 6.98094C18.0058 6.9732 17.998 6.96545 17.9903 6.96545C15.7454 5.33981 15.2577 1.55439 15.2499 1.5002C15.2112 1.15959 14.9016 0.919611 14.561 0.958317C14.2204 0.997023 13.9804 1.30667 14.0191 1.64728C14.0423 1.81759 14.5455 5.84299 17.0923 7.84021C17.0149 8.11889 16.7208 8.66077 16.6124 8.8543C16.5272 9.00912 16.4576 9.13298 16.4111 9.23361C16.4034 9.2491 16.3956 9.26458 16.3956 9.27232C16.2718 9.62067 16.1557 9.96902 16.0395 10.3096C15.6293 11.5405 15.2422 12.6939 14.5378 13.7235C13.6243 15.0163 12.5638 16.1542 11.7045 16.758C11.1316 17.1528 10.4969 17.4392 9.83113 17.7334C9.21958 18.0121 8.57706 18.2908 7.97325 18.6778C7.64812 18.8868 7.33848 19.1191 7.04431 19.3668C6.45599 19.8467 5.89862 20.2957 5.20966 20.3654C5.09354 20.3731 4.98517 20.3886 4.87679 20.3964C4.17235 20.4583 3.43694 20.5202 2.65508 20.9769C-0.0852908 22.5949 -0.0233614 26.3183 0.00760325 28.1066C0.0153444 28.4472 0.286285 28.7181 0.626896 28.7181H0.634637C0.975248 28.7104 1.24619 28.4317 1.24619 28.0911V28.0833C1.192 25.5829 1.40875 23.129 3.26663 22.0375C3.80077 21.7278 4.31943 21.6814 4.96968 21.6272C5.0858 21.6195 5.20192 21.604 5.31804 21.5962C6.37083 21.4956 7.12947 20.8763 7.81069 20.3344C8.06615 20.1177 8.33709 19.9164 8.62351 19.7306C9.15765 19.39 9.72275 19.1346 10.3266 18.8714C11.0155 18.5617 11.7355 18.2443 12.4012 17.7799C13.8101 16.789 15.0642 15.1169 15.5441 14.4357C16.3492 13.259 16.7904 11.9585 17.2085 10.7044C17.3168 10.3793 17.4329 10.0464 17.5491 9.71356C17.58 9.65938 17.6342 9.551 17.6961 9.45037C18.1374 8.65303 18.7412 7.56152 18.0135 6.98094Z" fill="#00A3FF"/>
<path d="M28.5728 8.99328C27.2955 6.62449 25.2518 5.19237 22.6663 4.85176C22.6585 4.85176 22.6508 4.85176 22.6353 4.85176C22.4805 4.83628 22.3334 4.83628 22.1941 4.83628C21.9076 4.82854 21.6444 4.82854 21.4896 4.73565C21.4819 4.73565 21.4819 4.72791 21.4741 4.72791C20.9787 4.44922 19.0279 2.21203 18.9196 0.625093C18.8963 0.284482 18.6022 0.0290236 18.2616 0.052247C17.9209 0.0754705 17.6655 0.369634 17.6887 0.710245C17.8203 2.76939 20.0033 5.31623 20.8626 5.81167C21.2961 6.06713 21.7606 6.07487 22.1786 6.08261C22.3024 6.08261 22.4186 6.08261 22.5269 6.09809C24.7254 6.38451 26.3898 7.56891 27.4813 9.60483C28.387 11.3079 28.8437 13.5296 28.7586 15.8752C28.5186 21.7894 25.5924 26.078 20.5142 27.9591C19.0744 28.501 14.0658 29.5925 10.0327 27.5024C10.0327 27.5024 10.025 27.5024 10.025 27.4946C9.28181 27.1231 8.60059 26.5038 7.85744 25.5361L7.8497 25.5207C7.26911 24.7388 6.47952 23.6628 4.92354 24.2743C3.19727 24.9246 3.19727 27.425 3.19727 28.4855C3.19727 28.8261 3.47595 29.1048 3.81656 29.1048C4.15717 29.1048 4.43585 28.8261 4.43585 28.4855C4.43585 27.7424 4.43585 25.7838 5.36479 25.4278H5.37253C5.98408 25.1878 6.21632 25.3813 6.85883 26.2483L6.87431 26.2638L6.88206 26.2715C7.73358 27.394 8.56189 28.1294 9.47534 28.5861C11.2248 29.4919 13.2685 29.9486 15.5444 29.9486C15.8618 29.9486 16.1792 29.9409 16.5043 29.9254C18.5944 29.8093 20.2897 29.3525 20.9477 29.0971C23.75 28.0597 25.9563 26.3567 27.52 24.0266C29.0295 21.7739 29.8655 19.0336 29.9894 15.8984C30.0823 13.3361 29.5791 10.8899 28.5728 8.99328Z" fill="#00A3FF"/>
<path d="M26.7137 14.9001C26.6131 14.6679 26.2647 13.9944 25.5913 13.9015C25.5835 13.9015 25.5758 13.9015 25.568 13.9015C25.2352 13.8706 24.5926 13.9557 24.043 14.9234C22.7503 16.9128 20.753 17.9889 19.2977 18.5462C16.9908 19.4442 14.653 19.599 12.1758 19.7538C11.5411 19.7925 10.7979 19.87 10.0857 20.1564C8.96326 20.5821 8.17366 21.4337 7.92594 22.4942C7.67822 23.5547 7.99561 24.6695 8.80843 25.5597C9.35805 26.148 10.1399 26.6202 11.1927 27.0073C12.47 27.4718 13.8247 27.7117 15.1871 27.704C16.178 27.704 17.1689 27.5801 18.1365 27.3479C20.3195 26.8215 22.4174 25.6526 24.1978 23.965C25.5448 22.6645 26.4273 21.333 26.8995 19.8854C27.5033 18.2056 27.4337 16.3942 26.7137 14.9001ZM25.7229 19.4752C25.7229 19.4829 25.7151 19.4906 25.7151 19.4906C25.3048 20.7447 24.5307 21.9136 23.3308 23.0671C21.7129 24.6075 19.8086 25.6681 17.8346 26.148C15.7058 26.6589 13.5538 26.5583 11.6107 25.8461C10.7592 25.5287 10.1167 25.1494 9.71415 24.7159C9.18775 24.1431 8.971 23.4386 9.12582 22.7806C9.28064 22.1226 9.79156 21.5885 10.527 21.3098C10.5347 21.3098 10.5347 21.3098 10.5425 21.3021C11.0998 21.0776 11.7191 21.0156 12.2532 20.9847C14.7072 20.8299 17.254 20.6673 19.7312 19.6997C22.6806 18.5772 24.2675 16.8432 25.0803 15.5814C25.0881 15.5736 25.0958 15.5581 25.1036 15.5426C25.1732 15.3956 25.2816 15.264 25.4055 15.1556C25.4751 15.233 25.5293 15.3182 25.568 15.411C25.568 15.4188 25.5758 15.4265 25.5835 15.4343C26.1641 16.6342 26.2183 18.105 25.7229 19.4752Z" fill="#00A3FF"/>
</g>
<defs>
<clipPath id="clip0_1206_1136">
<rect width="30" height="30" fill="white"/>
</clipPath>
</defs>
</svg>
