<svg width="30" height="31" viewBox="0 0 30 31" fill="none" xmlns="http://www.w3.org/2000/svg">
<path d="M13.2174 11.7488L12.8812 11.406L12.545 11.7488C12.2691 12.0313 5.81836 18.6473 5.81836 22.4372C5.81836 26.3379 8.9805 29.5 12.8812 29.5C16.7819 29.5 19.944 26.3379 19.944 22.4372C19.944 18.6473 13.4933 12.0313 13.2174 11.7488ZM12.8812 28.5583C9.50221 28.5544 6.76395 25.8162 6.76007 22.4372C6.76007 19.4863 11.5548 14.1742 12.8812 12.7607C14.2076 14.1732 19.0023 19.4845 19.0023 22.4372C18.9984 25.8162 16.2602 28.5544 12.8812 28.5583Z" fill="#00A3FF" stroke="#00A3FF" stroke-width="0.5"/>
<path d="M9.11456 22.4371H8.17285C8.17544 24.7765 10.0712 26.6722 12.4105 26.6748V25.7331C10.5912 25.7308 9.11691 24.2565 9.11456 22.4371Z" fill="#00A3FF" stroke="#00A3FF" stroke-width="0.5"/>
<path d="M20.8855 1.96658L20.5 1.5L20.116 1.96709C19.43 2.80368 16 7.07205 16 8.92567C16 11.452 18.0148 13.5 20.5 13.5C22.9853 13.5 25 11.452 25 8.92567C25 7.48424 22.783 4.27611 20.8855 1.96658ZM20.5 12.4835C18.5681 12.4809 17.0025 10.8895 17 8.92567C17 8.18158 18.2 5.96709 20.5 3.09136C22.776 5.93761 24 8.19733 24 8.92567C23.9975 10.8896 22.4319 12.4809 20.5 12.4835Z" fill="#00A3FF" stroke="#00A3FF" stroke-width="0.5"/>
</svg>
