<svg width="30" height="31" viewBox="0 0 30 31" fill="none" xmlns="http://www.w3.org/2000/svg">
<g clip-path="url(#clip0_1206_1160)">
<path d="M10.8061 20.0804C9.98653 17.8145 9.64898 15.8378 9.89003 14.2468L15.0005 19.3572C15.2897 19.6465 15.6754 19.6465 15.9647 19.3572C16.2539 19.068 16.2539 18.6823 15.9647 18.393L10.3721 12.8005C10.6132 12.3666 10.806 11.9809 11.1435 11.6434C12.6381 10.1488 15.0487 10.2453 16.7843 10.5345C17.17 10.6309 17.5075 10.3899 17.6039 10.0042C17.7003 9.61847 17.4593 9.28097 17.0736 9.18455C14.0362 8.65422 11.6738 9.18455 10.1793 10.6791C8.1544 12.704 7.91335 16.2235 9.55257 20.5625C10.5168 23.166 10.7579 25.4319 10.2757 27.1675L4.87605 21.7678C4.58677 21.4786 4.20108 21.4786 3.91184 21.7678C3.62257 22.0571 3.62261 22.4428 3.91184 22.732L9.64906 28.4693C9.55265 28.6621 9.35983 28.855 9.21519 28.9996L8.73308 29.4817C8.44381 29.771 8.44385 30.1567 8.73308 30.4459C9.02232 30.7351 9.40805 30.7351 9.69729 30.4459L10.1794 29.9638C12.2042 27.939 12.4453 24.4195 10.8061 20.0804Z" fill="#00A3FF"/>
<path d="M7.96135 19.6467C8.05776 19.261 7.81671 18.9235 7.43102 18.8271C4.39364 18.2968 2.03127 18.8271 0.536731 20.3217L0.0546266 20.8038C-0.234652 21.0931 -0.23461 21.4787 0.0546273 21.768C0.343906 22.0573 0.729596 22.0572 1.01883 21.768L1.50094 21.2859C2.99552 19.7913 5.40611 19.8878 7.14174 20.177C7.52743 20.2735 7.86494 20.0324 7.96135 19.6467Z" fill="#00A3FF"/>
<path d="M20.4477 10.4377C19.4834 7.83423 19.2424 5.56831 19.7245 3.83268L25.1242 9.23239C25.4135 9.52167 25.7992 9.52163 26.0884 9.23239C26.3777 8.94316 26.3777 8.55742 26.0884 8.26819L20.3512 2.53097C20.4476 2.3381 20.6405 2.14524 20.7851 2.00064L21.2673 1.51845C21.5565 1.22922 21.5565 0.843525 21.2673 0.554247C20.978 0.264968 20.5923 0.26501 20.3031 0.554247L19.8209 1.03635C17.796 3.06126 17.555 6.58074 19.1942 10.9198C20.0138 13.1857 20.3513 15.1624 20.1103 16.7534L14.9998 11.6429C14.7105 11.3536 14.3248 11.3537 14.0356 11.6429C13.7463 11.9322 13.7464 12.3179 14.0356 12.6071L19.6282 18.1997C19.3871 18.6336 19.1943 19.0193 18.8568 19.3568C17.3622 20.8514 14.9034 20.8032 13.1196 20.4657C12.7339 20.3692 12.3964 20.6103 12.3 20.996C12.2517 21.237 12.3481 21.4299 12.4928 21.5745C12.5892 21.671 12.7339 21.7192 12.8785 21.7674C15.8676 22.346 18.2782 21.8638 19.821 20.3211C21.8458 18.2962 22.0869 14.7767 20.4477 10.4377Z" fill="#00A3FF"/>
<path d="M29.9461 9.23225C29.6568 8.94297 29.2711 8.94301 28.9819 9.23225L28.4998 9.71435C27.0052 11.2089 24.5464 11.1607 22.7626 10.8232C22.3769 10.7268 22.0394 10.9678 21.943 11.3535C21.8947 11.5946 21.9912 11.7874 22.1358 11.9321C22.2322 12.0285 22.3769 12.0767 22.5215 12.1249C25.5106 12.7035 27.9212 12.2214 29.464 10.6786L29.9461 10.1965C30.2354 9.90726 30.2354 9.52152 29.9461 9.23225Z" fill="#00A3FF"/>
</g>
<defs>
<clipPath id="clip0_1206_1160">
<rect width="30" height="30" fill="white" transform="translate(0 0.5)"/>
</clipPath>
</defs>
</svg>
