<svg width="30" height="30" viewBox="0 0 30 30" fill="none" xmlns="http://www.w3.org/2000/svg">
<path d="M26 11.0439C26 5.23 21.0654 0.5 15 0.5C8.93459 0.5 4 5.23 4 11.0439C4 16.5526 8.43008 21.0873 14.0545 21.5485V24.1916H11.5653C11.0432 24.1916 10.6199 24.5974 10.6199 25.0979C10.6199 25.5984 11.0432 26.0041 11.5653 26.0041H14.0545V28.5938C14.0545 29.0942 14.4778 29.5 14.9999 29.5C15.5221 29.5 15.9454 29.0942 15.9454 28.5938V26.0041H18.4346C18.9567 26.0041 19.38 25.5984 19.38 25.0979C19.38 24.5974 18.9567 24.1916 18.4346 24.1916H15.9454V21.5485C21.5699 21.0874 26 16.5526 26 11.0439ZM5.8909 11.0439C5.8909 6.22943 9.97724 2.3125 15 2.3125C20.0228 2.3125 24.1091 6.22943 24.1091 11.0439C24.1091 15.8584 20.0228 19.7754 15 19.7754C9.97724 19.7754 5.8909 15.8585 5.8909 11.0439Z" fill="#00A3FF"/>
</svg>
