<svg width="30" height="30" viewBox="0 0 30 30" fill="none" xmlns="http://www.w3.org/2000/svg">
<g clip-path="url(#clip0_1206_1180)">
<path d="M4.646 22.0824C5.19699 22.7889 5.49741 23.6585 5.5 24.5544V28.4999C5.5 28.8977 5.65804 29.2793 5.93934 29.5606C6.22064 29.8419 6.60218 29.9999 7 29.9999H17C17.3978 29.9999 17.7794 29.8419 18.0607 29.5606C18.342 29.2793 18.5 28.8977 18.5 28.4999V27.3799C20.1344 27.1463 21.6899 26.5278 23.0385 25.5754L27.0635 29.6054C27.3203 29.8578 27.6661 29.999 28.0261 29.9985C28.3862 29.9979 28.7315 29.8556 28.9875 29.6024L29.603 28.9874C29.8564 28.7307 29.9984 28.3846 29.9984 28.0239C29.9984 27.6632 29.8564 27.3171 29.603 27.0604L25.576 23.0384C26.5122 21.7159 27.1287 20.1941 27.3769 18.5928C27.625 16.9916 27.498 15.3546 27.006 13.8107C26.5139 12.2669 25.6702 10.8583 24.5412 9.69598C23.4122 8.53364 22.0289 7.64924 20.5 7.11241V4.58441C20.5061 3.95308 20.2792 3.34167 19.8629 2.86707C19.4465 2.39248 18.8698 2.08802 18.243 2.01191C17.8971 1.97802 17.5479 2.01663 17.2177 2.12527C16.8876 2.23392 16.5837 2.41022 16.3255 2.64291C16.1881 2.25892 15.9582 1.91475 15.6559 1.64093C15.3537 1.36711 14.9886 1.1721 14.5929 1.07319C14.1973 0.974275 13.7833 0.974522 13.3878 1.0739C12.9923 1.17329 12.6274 1.36873 12.3255 1.64291C12.188 1.25833 11.9576 0.913699 11.6547 0.639673C11.3519 0.365647 10.986 0.170727 10.5896 0.0722519C10.1932 -0.0262228 9.77868 -0.025198 9.38279 0.075235C8.98691 0.175668 8.62199 0.372395 8.3205 0.647915C8.11914 0.83031 7.94905 1.04448 7.817 1.28191C7.773 1.23591 7.7275 1.19091 7.6795 1.14791C7.42102 0.914003 7.11657 0.736616 6.78561 0.627101C6.45466 0.517586 6.10449 0.478354 5.7575 0.511915C5.13065 0.587909 4.55382 0.892319 4.13733 1.36692C3.72085 1.84153 3.49393 2.45301 3.5 3.08441V5.03091C2.53383 5.15394 1.64556 5.62474 1.00137 6.35525C0.357184 7.08576 0.00119506 8.02594 0 8.99991L0 14.4449C0.00314688 15.5643 0.378516 16.6508 1.067 17.5334L4.646 22.0824ZM28.896 28.2824L28.281 28.8969C28.2125 28.964 28.1204 29.0016 28.0245 29.0016C27.9286 29.0016 27.8365 28.964 27.768 28.8969L25.193 26.3189L26.318 25.1939L28.893 27.7659C28.9606 27.8343 28.9986 27.9265 28.9991 28.0227C28.9996 28.1188 28.9624 28.2113 28.8955 28.2804L28.896 28.2824ZM25.61 24.4859L24.486 25.6099L23.833 24.9559C24.2348 24.6101 24.6102 24.2347 24.956 23.8329L25.61 24.4859ZM26.5 16.9999C26.5 18.8788 25.9428 20.7156 24.899 22.2778C23.8551 23.8401 22.3714 25.0577 20.6355 25.7768C18.8996 26.4958 16.9895 26.6839 15.1466 26.3174C13.3038 25.9508 11.6111 25.046 10.2825 23.7174C8.95389 22.3888 8.0491 20.6961 7.68254 18.8533C7.31598 17.0105 7.50411 15.1003 8.22314 13.3644C8.94218 11.6285 10.1598 10.1448 11.7221 9.10095C13.2844 8.05708 15.1211 7.49991 17 7.49991C19.5187 7.50269 21.9335 8.50448 23.7144 10.2855C25.4954 12.0665 26.4972 14.4812 26.5 16.9999ZM1 8.99991C1.00131 8.29164 1.25293 7.60662 1.7104 7.0659C2.16786 6.52518 2.80173 6.16355 3.5 6.04491V12.9999C3.5 13.1325 3.55268 13.2597 3.64645 13.3535C3.74021 13.4472 3.86739 13.4999 4 13.4999C4.13261 13.4999 4.25979 13.4472 4.35355 13.3535C4.44732 13.2597 4.5 13.1325 4.5 12.9999V5.49991V3.08441C4.49224 2.70112 4.62598 2.32841 4.87566 2.0375C5.12535 1.74658 5.47346 1.55787 5.8535 1.50741C6.06188 1.486 6.27243 1.50883 6.47138 1.5744C6.67033 1.63997 6.85319 1.7468 7.008 1.88791C7.16282 2.02887 7.28655 2.20056 7.37126 2.39203C7.45598 2.5835 7.49982 2.79054 7.5 2.99991C7.5 3.13252 7.55268 3.2597 7.64645 3.35347C7.74021 3.44724 7.86739 3.49991 8 3.49991C8.13261 3.49991 8.25979 3.44724 8.35355 3.35347C8.44732 3.2597 8.5 3.13252 8.5 2.99991V2.49991C8.50011 2.2906 8.54402 2.08363 8.62892 1.8923C8.71382 1.70098 8.83781 1.52954 8.99294 1.38901C9.14807 1.24849 9.33089 1.14198 9.52964 1.07635C9.7284 1.01071 9.93869 0.987402 10.147 1.00791C10.5269 1.05847 10.8748 1.24717 11.1244 1.53796C11.3739 1.82876 11.5077 2.20128 11.5 2.58441V3.49991C11.5 3.63252 11.5527 3.7597 11.6464 3.85347C11.7402 3.94724 11.8674 3.99991 12 3.99991C12.1326 3.99991 12.2598 3.94724 12.3536 3.85347C12.4473 3.7597 12.5 3.63252 12.5 3.49991C12.5002 3.29062 12.5441 3.08368 12.6288 2.8923C12.7136 2.70092 12.8372 2.52931 12.992 2.38841C13.1468 2.24715 13.3298 2.14023 13.5288 2.07465C13.7279 2.00908 13.9385 1.98633 14.147 2.00791C14.5269 2.05847 14.8748 2.24716 15.1244 2.53796C15.3739 2.82876 15.5077 3.20128 15.5 3.58441V4.49991C15.5 4.63252 15.5527 4.7597 15.6464 4.85347C15.7402 4.94724 15.8674 4.99991 16 4.99991C16.1326 4.99991 16.2598 4.94724 16.3536 4.85347C16.4473 4.7597 16.5 4.63252 16.5 4.49991C16.5002 4.29062 16.5441 4.08368 16.6288 3.8923C16.7136 3.70092 16.8372 3.52931 16.992 3.38841C17.1469 3.24734 17.3299 3.14054 17.5289 3.07497C17.7279 3.00941 17.9385 2.98656 18.147 3.00791C18.5269 3.05847 18.8748 3.24716 19.1244 3.53796C19.3739 3.82876 19.5077 4.20128 19.5 4.58441V6.81341C18.058 6.45888 16.5571 6.4144 15.0966 6.68292C13.6361 6.95144 12.2492 7.52685 11.0276 8.37112C9.80592 9.21539 8.77736 10.3093 8.00984 11.5806C7.24232 12.8518 6.75332 14.2715 6.57515 15.7457C6.39699 17.22 6.53371 18.7153 6.97628 20.1328C7.41886 21.5503 8.15722 22.8577 9.14255 23.9687C10.1279 25.0797 11.3378 25.9689 12.6923 26.5776C14.0468 27.1864 15.515 27.5007 17 27.4999C17.169 27.4999 17.333 27.4824 17.5 27.4744V28.4999C17.5 28.6325 17.4473 28.7597 17.3536 28.8535C17.2598 28.9472 17.1326 28.9999 17 28.9999H7C6.86739 28.9999 6.74021 28.9472 6.64645 28.8535C6.55268 28.7597 6.5 28.6325 6.5 28.4999V24.5544C6.49685 23.435 6.12148 22.3485 5.433 21.4659L1.854 16.9159C1.30322 16.2097 1.00281 15.3405 1 14.4449V8.99991Z" fill="#00A3FF"/>
<path d="M8.5 17C8.50017 18.5897 8.94616 20.1476 9.78732 21.4966C10.6285 22.8455 11.8311 23.9316 13.2585 24.6314C14.686 25.3311 16.2811 25.6165 17.8626 25.4552C19.4442 25.2939 20.9488 24.6922 22.2055 23.7187C23.4623 22.7451 24.4208 21.4385 24.9723 19.9475C25.5237 18.4565 25.6459 16.8407 25.3251 15.2836C25.0043 13.7266 24.2532 12.2907 23.1572 11.1392C22.0612 9.98758 20.6643 9.16644 19.125 8.769C18.9978 8.73908 18.8638 8.76019 18.752 8.82779C18.6401 8.8954 18.5591 9.00413 18.5264 9.1307C18.4938 9.25726 18.5119 9.3916 18.5771 9.50493C18.6422 9.61825 18.7492 9.70156 18.875 9.737C19.0873 9.792 19.2957 9.85583 19.5 9.9285V15.65C19.5011 16.14 19.3989 16.6247 19.2 17.0725L17.8915 20.0195C17.6338 20.5954 17.5004 21.2191 17.5 21.85V24.4745C17.334 24.4855 17.169 24.5 17 24.5C15.0109 24.5 13.1032 23.7098 11.6967 22.3033C10.2902 20.8968 9.5 18.9891 9.5 17C9.5 15.0109 10.2902 13.1032 11.6967 11.6967C13.1032 10.2902 15.0109 9.5 17 9.5C17.1326 9.5 17.2598 9.44732 17.3536 9.35355C17.4473 9.25979 17.5 9.13261 17.5 9C17.5 8.86739 17.4473 8.74021 17.3536 8.64645C17.2598 8.55268 17.1326 8.5 17 8.5C14.7464 8.50251 12.5859 9.39886 10.9924 10.9924C9.39886 12.5859 8.50251 14.7464 8.5 17ZM18.5 21.85C18.4989 21.36 18.6011 20.8753 18.8 20.4275L20.1085 17.4805C20.3662 16.9046 20.4996 16.2809 20.5 15.65V10.37C21.867 11.0919 22.9775 12.2186 23.6796 13.5959C24.3817 14.9732 24.641 16.5338 24.4221 18.0642C24.2031 19.5945 23.5166 21.0198 22.4566 22.145C21.3965 23.2702 20.0146 24.0403 18.5 24.35V21.85Z" fill="#00A3FF"/>
<path d="M16 21C15.8674 21 15.7402 21.0527 15.6464 21.1464C15.5527 21.2402 15.5 21.3674 15.5 21.5V22C15.5 22.1326 15.5527 22.2598 15.6464 22.3536C15.7402 22.4473 15.8674 22.5 16 22.5C16.1326 22.5 16.2598 22.4473 16.3536 22.3536C16.4473 22.2598 16.5 22.1326 16.5 22V21.5C16.5 21.3674 16.4473 21.2402 16.3536 21.1464C16.2598 21.0527 16.1326 21 16 21Z" fill="#00A3FF"/>
<path d="M16.5 19C16.5 18.8674 16.4473 18.7402 16.3536 18.6464C16.2598 18.5527 16.1326 18.5 16 18.5C15.8674 18.5 15.7402 18.5527 15.6464 18.6464C15.5527 18.7402 15.5 18.8674 15.5 19V19.5C15.5 19.6326 15.5527 19.7598 15.6464 19.8536C15.7402 19.9473 15.8674 20 16 20C16.1326 20 16.2598 19.9473 16.3536 19.8536C16.4473 19.7598 16.5 19.6326 16.5 19.5V19Z" fill="#00A3FF"/>
<path d="M16.5 16.5C16.5 16.3674 16.4473 16.2402 16.3536 16.1464C16.2598 16.0527 16.1326 16 16 16C15.8674 16 15.7402 16.0527 15.6464 16.1464C15.5527 16.2402 15.5 16.3674 15.5 16.5V17C15.5 17.1326 15.5527 17.2598 15.6464 17.3536C15.7402 17.4473 15.8674 17.5 16 17.5C16.1326 17.5 16.2598 17.4473 16.3536 17.3536C16.4473 17.2598 16.5 17.1326 16.5 17V16.5Z" fill="#00A3FF"/>
<path d="M16.5 14C16.5 13.8674 16.4473 13.7402 16.3536 13.6464C16.2598 13.5527 16.1326 13.5 16 13.5C15.8674 13.5 15.7402 13.5527 15.6464 13.6464C15.5527 13.7402 15.5 13.8674 15.5 14V14.5C15.5 14.6326 15.5527 14.7598 15.6464 14.8536C15.7402 14.9473 15.8674 15 16 15C16.1326 15 16.2598 14.9473 16.3536 14.8536C16.4473 14.7598 16.5 14.6326 16.5 14.5V14Z" fill="#00A3FF"/>
<path d="M16.5 11.5C16.5 11.3674 16.4473 11.2402 16.3536 11.1464C16.2598 11.0527 16.1326 11 16 11C15.8674 11 15.7402 11.0527 15.6464 11.1464C15.5527 11.2402 15.5 11.3674 15.5 11.5V12C15.5 12.1326 15.5527 12.2598 15.6464 12.3536C15.7402 12.4473 15.8674 12.5 16 12.5C16.1326 12.5 16.2598 12.4473 16.3536 12.3536C16.4473 12.2598 16.5 12.1326 16.5 12V11.5Z" fill="#00A3FF"/>
<path d="M18 15.5C17.8674 15.5 17.7402 15.5527 17.6464 15.6464C17.5527 15.7402 17.5 15.8674 17.5 16V16.5C17.5 16.6326 17.5527 16.7598 17.6464 16.8536C17.7402 16.9473 17.8674 17 18 17C18.1326 17 18.2598 16.9473 18.3536 16.8536C18.4473 16.7598 18.5 16.6326 18.5 16.5V16C18.5 15.8674 18.4473 15.7402 18.3536 15.6464C18.2598 15.5527 18.1326 15.5 18 15.5Z" fill="#00A3FF"/>
<path d="M18.5 13.5C18.5 13.3674 18.4473 13.2402 18.3536 13.1464C18.2598 13.0527 18.1326 13 18 13C17.8674 13 17.7402 13.0527 17.6464 13.1464C17.5527 13.2402 17.5 13.3674 17.5 13.5V14C17.5 14.1326 17.5527 14.2598 17.6464 14.3536C17.7402 14.4473 17.8674 14.5 18 14.5C18.1326 14.5 18.2598 14.4473 18.3536 14.3536C18.4473 14.2598 18.5 14.1326 18.5 14V13.5Z" fill="#00A3FF"/>
<path d="M17.5 11.5C17.5 11.6326 17.5527 11.7598 17.6464 11.8536C17.7402 11.9473 17.8674 12 18 12C18.1326 12 18.2598 11.9473 18.3536 11.8536C18.4473 11.7598 18.5 11.6326 18.5 11.5V11C18.5 10.8674 18.4473 10.7402 18.3536 10.6464C18.2598 10.5527 18.1326 10.5 18 10.5C17.8674 10.5 17.7402 10.5527 17.6464 10.6464C17.5527 10.7402 17.5 10.8674 17.5 11V11.5Z" fill="#00A3FF"/>
<path d="M14.5 17.5C14.5 17.3674 14.4473 17.2402 14.3536 17.1464C14.2598 17.0527 14.1326 17 14 17C13.8674 17 13.7402 17.0527 13.6464 17.1464C13.5527 17.2402 13.5 17.3674 13.5 17.5V18C13.5 18.1326 13.5527 18.2598 13.6464 18.3536C13.7402 18.4473 13.8674 18.5 14 18.5C14.1326 18.5 14.2598 18.4473 14.3536 18.3536C14.4473 18.2598 14.5 18.1326 14.5 18V17.5Z" fill="#00A3FF"/>
<path d="M14 19.5C13.8674 19.5 13.7402 19.5527 13.6464 19.6464C13.5527 19.7402 13.5 19.8674 13.5 20V20.5C13.5 20.6326 13.5527 20.7598 13.6464 20.8536C13.7402 20.9473 13.8674 21 14 21C14.1326 21 14.2598 20.9473 14.3536 20.8536C14.4473 20.7598 14.5 20.6326 14.5 20.5V20C14.5 19.8674 14.4473 19.7402 14.3536 19.6464C14.2598 19.5527 14.1326 19.5 14 19.5Z" fill="#00A3FF"/>
<path d="M14.5 15C14.5 14.8674 14.4473 14.7402 14.3536 14.6464C14.2598 14.5527 14.1326 14.5 14 14.5C13.8674 14.5 13.7402 14.5527 13.6464 14.6464C13.5527 14.7402 13.5 14.8674 13.5 15V15.5C13.5 15.6326 13.5527 15.7598 13.6464 15.8536C13.7402 15.9473 13.8674 16 14 16C14.1326 16 14.2598 15.9473 14.3536 15.8536C14.4473 15.7598 14.5 15.6326 14.5 15.5V15Z" fill="#00A3FF"/>
<path d="M12.5 17C12.5 16.8674 12.4473 16.7402 12.3536 16.6464C12.2598 16.5527 12.1326 16.5 12 16.5C11.8674 16.5 11.7402 16.5527 11.6464 16.6464C11.5527 16.7402 11.5 16.8674 11.5 17V17.5C11.5 17.6326 11.5527 17.7598 11.6464 17.8536C11.7402 17.9473 11.8674 18 12 18C12.1326 18 12.2598 17.9473 12.3536 17.8536C12.4473 17.7598 12.5 17.6326 12.5 17.5V17Z" fill="#00A3FF"/>
<path d="M12 19C11.8674 19 11.7402 19.0527 11.6464 19.1464C11.5527 19.2402 11.5 19.3674 11.5 19.5V20C11.5 20.1326 11.5527 20.2598 11.6464 20.3536C11.7402 20.4473 11.8674 20.5 12 20.5C12.1326 20.5 12.2598 20.4473 12.3536 20.3536C12.4473 20.2598 12.5 20.1326 12.5 20V19.5C12.5 19.3674 12.4473 19.2402 12.3536 19.1464C12.2598 19.0527 12.1326 19 12 19Z" fill="#00A3FF"/>
<path d="M12.5 14.5C12.5 14.3674 12.4473 14.2402 12.3536 14.1464C12.2598 14.0527 12.1326 14 12 14C11.8674 14 11.7402 14.0527 11.6464 14.1464C11.5527 14.2402 11.5 14.3674 11.5 14.5V15C11.5 15.1326 11.5527 15.2598 11.6464 15.3536C11.7402 15.4473 11.8674 15.5 12 15.5C12.1326 15.5 12.2598 15.4473 12.3536 15.3536C12.4473 15.2598 12.5 15.1326 12.5 15V14.5Z" fill="#00A3FF"/>
<path d="M14.5 12.5C14.5 12.3674 14.4473 12.2402 14.3536 12.1464C14.2598 12.0527 14.1326 12 14 12C13.8674 12 13.7402 12.0527 13.6464 12.1464C13.5527 12.2402 13.5 12.3674 13.5 12.5V13C13.5 13.1326 13.5527 13.2598 13.6464 13.3536C13.7402 13.4473 13.8674 13.5 14 13.5C14.1326 13.5 14.2598 13.4473 14.3536 13.3536C14.4473 13.2598 14.5 13.1326 14.5 13V12.5Z" fill="#00A3FF"/>
</g>
<defs>
<clipPath id="clip0_1206_1180">
<rect width="30" height="30" fill="white"/>
</clipPath>
</defs>
</svg>
