<svg width="30" height="30" viewBox="0 0 30 30" fill="none" xmlns="http://www.w3.org/2000/svg">
<path d="M26.1133 3.50746L20.8604 1.73755C17.0807 0.463498 12.917 0.464071 9.13735 1.73755L3.88503 3.50746C2.75331 3.8891 1.99519 4.94794 1.99805 6.14165L2.01068 11.3251C2.03019 18.007 5.62969 24.2384 11.4065 27.5894L13.5638 28.8353C14.0063 29.0913 14.5027 29.2187 14.9986 29.2187C15.4944 29.2187 15.9909 29.0907 16.4333 28.8353L18.5918 27.5894C24.3675 24.239 27.967 18.007 27.9865 11.3251L27.9991 6.14165C28.0031 4.94737 27.245 3.8891 26.1133 3.50746ZM26.8393 11.3217C26.8215 17.5967 23.4406 23.4499 18.0173 26.5954L15.86 27.8413C15.3286 28.1478 14.6692 28.1478 14.1377 27.8413L11.9816 26.596C6.55768 23.4499 3.17684 17.5967 3.15905 11.3217L3.14643 6.13821C3.1447 5.43862 3.5889 4.81824 4.25175 4.59499L9.50407 2.82509C13.0479 1.63081 16.9504 1.63081 20.4937 2.82509L25.746 4.59499C26.4088 4.81824 26.8536 5.43862 26.8513 6.13763L26.8393 11.3217Z" fill="#00A3FF"/>
<path d="M24.7387 6.07259L20.128 4.51847C16.8206 3.40339 13.178 3.40396 9.87067 4.51847L5.25997 6.07259C5.02582 6.15179 4.86857 6.37102 4.86914 6.61779L4.88062 11.3169C4.89669 16.9824 7.94696 22.2657 12.8412 25.1042C12.8417 25.1042 12.8417 25.1042 12.8423 25.1048L14.7127 26.1849C14.8016 26.2359 14.9003 26.2618 14.9996 26.2618C15.0989 26.2618 15.1976 26.2359 15.2865 26.1849L17.1529 25.1071C22.0494 22.2663 25.1019 16.983 25.118 11.318L25.1295 6.61837C25.1295 6.37102 24.9722 6.15179 24.7387 6.07259ZM23.9696 11.3152C23.9547 16.5738 21.1214 21.4778 16.5772 24.1137L14.999 25.025L13.4156 24.1108C8.87381 21.476 6.04334 16.5721 6.02784 11.314L6.01751 7.0287L10.2368 5.60658C13.3077 4.57127 16.6897 4.57127 19.7612 5.60658L23.9805 7.0287L23.9696 11.3152Z" fill="#00A3FF"/>
<path d="M17.3707 10.5954V8.2321C17.3707 7.91531 17.1136 7.6582 16.7968 7.6582H13.2025C12.8857 7.6582 12.6286 7.91531 12.6286 8.2321V10.5954H10.2653C9.94851 10.5954 9.69141 10.8525 9.69141 11.1693V14.7636C9.69141 15.0804 9.94851 15.3375 10.2653 15.3375H12.6286V17.6934C12.6286 18.0102 12.8857 18.2673 13.2025 18.2673H16.7968C17.1136 18.2673 17.3707 18.0102 17.3707 17.6934V15.3375H19.7341C20.0509 15.3375 20.308 15.0804 20.308 14.7636V11.1693C20.308 10.8525 20.0509 10.5954 19.7341 10.5954H17.3707ZM19.1602 14.1892H16.7968C16.4801 14.1892 16.2229 14.4463 16.2229 14.7631V17.1189H13.7764V14.7631C13.7764 14.4463 13.5193 14.1892 13.2025 14.1892H10.8392V11.7426H13.2025C13.5193 11.7426 13.7764 11.4855 13.7764 11.1687V8.80543H16.2229V11.1687C16.2229 11.4855 16.4801 11.7426 16.7968 11.7426H19.1602V14.1892Z" fill="#00A3FF"/>
</svg>
